<?xml version="1.0" encoding="UTF-8" standalone="no"?>
<!-- Generator: Adobe Illustrator 18.1.1, SVG Export Plug-In . SVG Version: 6.00 Build 0)  -->

<svg
   xmlns:dc="http://purl.org/dc/elements/1.1/"
   xmlns:cc="http://creativecommons.org/ns#"
   xmlns:rdf="http://www.w3.org/1999/02/22-rdf-syntax-ns#"
   xmlns:svg="http://www.w3.org/2000/svg"
   xmlns="http://www.w3.org/2000/svg"
   xmlns:sodipodi="http://sodipodi.sourceforge.net/DTD/sodipodi-0.dtd"
   xmlns:inkscape="http://www.inkscape.org/namespaces/inkscape"
   version="1.1"
   id="Capa_1"
   x="0px"
   y="0px"
   viewBox="0 0 32 32"
   xml:space="preserve"
   inkscape:version="0.48.4 r9939"
   width="100%"
   height="100%"
   sodipodi:docname="help.svg"
   inkscape:export-filename="/home/arkascha/Projects/ownCloud/owncloud-shorty/shorty/img/actions/help.png"
   inkscape:export-xdpi="97.508125"
   inkscape:export-ydpi="97.508125"><title
     id="title3052">help</title><metadata
     id="metadata75"><rdf:RDF><cc:Work
         rdf:about=""><dc:format>image/svg+xml</dc:format><dc:type
           rdf:resource="http://purl.org/dc/dcmitype/StillImage" /><dc:title>help</dc:title><dc:date>2015-01-01</dc:date><dc:creator><cc:Agent><dc:title>Christian Reiner</dc:title></cc:Agent></dc:creator><dc:rights><cc:Agent><dc:title>Creative Commons Share Alike</dc:title></cc:Agent></dc:rights><dc:publisher><cc:Agent><dc:title>Chistian Reiner</dc:title></cc:Agent></dc:publisher><dc:identifier>help</dc:identifier><cc:license
           rdf:resource="http://creativecommons.org/licenses/by-sa/3.0/" /></cc:Work><cc:License
         rdf:about="http://creativecommons.org/licenses/by-sa/3.0/"><cc:permits
           rdf:resource="http://creativecommons.org/ns#Reproduction" /><cc:permits
           rdf:resource="http://creativecommons.org/ns#Distribution" /><cc:requires
           rdf:resource="http://creativecommons.org/ns#Notice" /><cc:requires
           rdf:resource="http://creativecommons.org/ns#Attribution" /><cc:permits
           rdf:resource="http://creativecommons.org/ns#DerivativeWorks" /><cc:requires
           rdf:resource="http://creativecommons.org/ns#ShareAlike" /></cc:License></rdf:RDF></metadata><defs
     id="defs73" /><sodipodi:namedview
     pagecolor="#ffffff"
     bordercolor="#666666"
     borderopacity="1"
     objecttolerance="10"
     gridtolerance="10"
     guidetolerance="10"
     inkscape:pageopacity="0"
     inkscape:pageshadow="2"
     inkscape:window-width="1920"
     inkscape:window-height="1115"
     id="namedview71"
     showgrid="false"
     inkscape:zoom="45.199675"
     inkscape:cx="7.9242053"
     inkscape:cy="24.634175"
     inkscape:window-x="-4"
     inkscape:window-y="-4"
     inkscape:window-maximized="1"
     inkscape:current-layer="Capa_1"
     inkscape:snap-bbox="true" /><path
     inkscape:connector-curvature="0"
     id="path5"
     d="M 16.003882,5.94e-5 C 7.1642515,5.94e-5 0,7.1639121 0,16.007894 c 0,8.839645 7.1642515,16.00675 16.003882,16.00675 8.839631,0 16.003882,-7.167105 16.003882,-16.00675 C 32.006681,7.1639121 24.842429,5.94e-5 16.003882,5.94e-5 z m 0,29.4033386 c -7.399411,0 -13.3954486,-5.996434 -13.3954486,-13.396588 0,-7.401239 5.9960376,-13.399841 13.3954486,-13.399841 7.397244,0 13.393282,5.999686 13.393282,13.399841 0,7.400154 -5.996038,13.396588 -13.393282,13.396588 z"
     style="stroke-width:4;stroke-miterlimit:4;stroke-dasharray:none" /><path
     inkscape:connector-curvature="0"
     id="path7"
     d="m 15.58883,20.96048 c -1.449972,0 -2.480558,1.03084 -2.480558,2.536452 0,1.448163 1.003494,2.535369 2.480558,2.535369 1.532333,0 2.507651,-1.087206 2.507651,-2.535369 C 18.067221,21.99132 17.09082,20.96048 15.58883,20.96048 z" /><path
     inkscape:connector-curvature="0"
     id="path9"
     d="m 15.975706,6.6035078 c -1.976644,0 -3.619513,0.5560684 -4.652266,1.1414037 l 0.948226,3.0394075 c 0.723903,-0.500787 1.839016,-0.8368128 2.757982,-0.8368128 1.392537,0.029267 2.036247,0.6980668 2.036247,1.6725408 0,0.921361 -0.72607,1.83947 -1.619028,2.92776 -1.252741,1.478514 -1.727396,2.92776 -1.642868,4.348824 l 0.02709,0.725166 h 3.706208 v -0.501871 c -0.02709,-1.255219 0.419386,-2.343509 1.420713,-3.484913 1.060929,-1.17067 2.39603,-2.564635 2.39603,-4.683765 0,-2.3142423 -1.697053,-4.3477402 -5.378336,-4.3477402 z" /><g
     id="g11"
     transform="matrix(1.0836865,0,0,1.0839541,0,5.9416937e-5)" /><g
     id="g13"
     transform="matrix(1.0836865,0,0,1.0839541,0,5.9416937e-5)" /><g
     id="g15"
     transform="matrix(1.0836865,0,0,1.0839541,0,5.9416937e-5)" /><g
     id="g17"
     transform="matrix(1.0836865,0,0,1.0839541,0,5.9416937e-5)" /><g
     id="g19"
     transform="matrix(1.0836865,0,0,1.0839541,0,5.9416937e-5)" /><g
     id="g21"
     transform="matrix(1.0836865,0,0,1.0839541,0,5.9416937e-5)" /><g
     id="g23"
     transform="matrix(1.0836865,0,0,1.0839541,0,5.9416937e-5)" /><g
     id="g25"
     transform="matrix(1.0836865,0,0,1.0839541,0,5.9416937e-5)" /><g
     id="g27"
     transform="matrix(1.0836865,0,0,1.0839541,0,5.9416937e-5)" /><g
     id="g29"
     transform="matrix(1.0836865,0,0,1.0839541,0,5.9416937e-5)" /><g
     id="g31"
     transform="matrix(1.0836865,0,0,1.0839541,0,5.9416937e-5)" /><g
     id="g33"
     transform="matrix(1.0836865,0,0,1.0839541,0,5.9416937e-5)" /><g
     id="g35"
     transform="matrix(1.0836865,0,0,1.0839541,0,5.9416937e-5)" /><g
     id="g37"
     transform="matrix(1.0836865,0,0,1.0839541,0,5.9416937e-5)" /><g
     id="g39"
     transform="matrix(1.0836865,0,0,1.0839541,0,5.9416937e-5)" /><g
     id="g41"
     transform="translate(0,2.4640001)" /><g
     id="g43"
     transform="translate(0,2.4640001)" /><g
     id="g45"
     transform="translate(0,2.4640001)" /><g
     id="g47"
     transform="translate(0,2.4640001)" /><g
     id="g49"
     transform="translate(0,2.4640001)" /><g
     id="g51"
     transform="translate(0,2.4640001)" /><g
     id="g53"
     transform="translate(0,2.4640001)" /><g
     id="g55"
     transform="translate(0,2.4640001)" /><g
     id="g57"
     transform="translate(0,2.4640001)" /><g
     id="g59"
     transform="translate(0,2.4640001)" /><g
     id="g61"
     transform="translate(0,2.4640001)" /><g
     id="g63"
     transform="translate(0,2.4640001)" /><g
     id="g65"
     transform="translate(0,2.4640001)" /><g
     id="g67"
     transform="translate(0,2.4640001)" /><g
     id="g69"
     transform="translate(0,2.4640001)" /><path
     style="stroke-width:4;stroke-miterlimit:4;stroke-dasharray:none"
     d="m 16.021884,1.5094819 c -7.9470875,0 -14.3879605,6.4768763 -14.3879605,14.4727671 0,7.991968 6.440873,14.471784 14.3879605,14.471784 7.94709,0 14.387961,-6.479816 14.387961,-14.471784 C 30.408872,7.9863582 23.967998,1.5094819 16.021884,1.5094819 z m 0,26.5837111 c -6.6522877,0 -12.042902,-5.421408 -12.042902,-12.111925 0,-6.6914988 5.3906143,-12.1148658 12.042902,-12.1148658 6.650341,0 12.040955,5.4243471 12.040955,12.1148658 0,6.690517 -5.390614,12.111925 -12.040955,12.111925 z"
     id="path3890"
     inkscape:connector-curvature="0" /></svg>