<?xml version="1.0" encoding="UTF-8" standalone="no"?>
<svg xmlns:rdf="http://www.w3.org/1999/02/22-rdf-syntax-ns#" xmlns="http://www.w3.org/2000/svg" height="16" width="16" version="1.1" xmlns:cc="http://creativecommons.org/ns#" xmlns:dc="http://purl.org/dc/elements/1.1/">
 <title>info</title>
 <g transform="matrix(.019712 0 0 .015599 .52084 .011268)">
  <g fill="none" transform="translate(212.95 163.84)">
   <path d="m0 487.05c12.442 24.828 26.063 44.836 51.619 16.019 32.566-17.5 140.86-93.04 133.08-22.29-29.48 131.42-66.81 261.73-93.794 393.47-31.367 72.69 50.854 134.75 131.18 85.53 86.33-32.78 159.51-83.96 234.51-131.16-11.56-20.98-20.06-51.38-47.8-22.53-37.51 15.58-117.67 85.85-135.87 30.67 25.26-142.08 78.14-279.85 109.36-421 31.86-65.49-29.19-144.88-112.1-88.85-100.64 40.23-183.38 103.24-270.19 160.14zm357.16-486.88c-104.72-1.1296-152.62 139.81-51.48 174.61 81.89 24.62 166.31-46.52 143.33-114.06-7.83-35.311-47.84-63.195-91.85-60.546z" fill="#000" transform="translate(-61.901 -148.54)"/>
  </g>
 </g>
</svg>
