<?xml version="1.0" encoding="UTF-8" standalone="no"?>
<svg
   xmlns:dc="http://purl.org/dc/elements/1.1/"
   xmlns:cc="http://creativecommons.org/ns#"
   xmlns:rdf="http://www.w3.org/1999/02/22-rdf-syntax-ns#"
   xmlns:svg="http://www.w3.org/2000/svg"
   xmlns="http://www.w3.org/2000/svg"
   xmlns:sodipodi="http://sodipodi.sourceforge.net/DTD/sodipodi-0.dtd"
   xmlns:inkscape="http://www.inkscape.org/namespaces/inkscape"
   height="16"
   width="16"
   version="1.0"
   id="svg2987"
   inkscape:version="0.48.4 r9939"
   sodipodi:docname="preferences.svg">
  <metadata
     id="metadata2997">
    <rdf:RDF>
      <cc:Work
         rdf:about="">
        <dc:format>image/svg+xml</dc:format>
        <dc:type
           rdf:resource="http://purl.org/dc/dcmitype/StillImage" />
      </cc:Work>
    </rdf:RDF>
  </metadata>
  <defs
     id="defs2995" />
  <sodipodi:namedview
     pagecolor="#ffffff"
     bordercolor="#666666"
     borderopacity="1"
     objecttolerance="10"
     gridtolerance="10"
     guidetolerance="10"
     inkscape:pageopacity="0"
     inkscape:pageshadow="2"
     inkscape:window-width="1920"
     inkscape:window-height="1115"
     id="namedview2993"
     showgrid="false"
     inkscape:zoom="29.5"
     inkscape:cx="1.4576271"
     inkscape:cy="8.1503901"
     inkscape:window-x="-4"
     inkscape:window-y="-4"
     inkscape:window-maximized="1"
     inkscape:current-layer="svg2987" />
  <g
     transform="matrix(1.0661968,0,0,1.0669976,-0.53164442,-0.05973177)"
     id="g2989"
     style="opacity:1;fill:#000000;fill-opacity:1">
    <path
       display="block"
       d="M 6.9375,0.056 C 6.6891,0.056 6.5,0.24508 6.5,0.4935 v 1.25 C 5.9461,1.8857 5.4488,2.1154 4.9688,2.3998 L 4.0625,1.4935 c -0.17566,-0.17566 -0.44934,-0.17566 -0.625,0 l -1.5,1.5 c -0.17566,0.17566 -0.17566,0.44934 0,0.625 L 2.8438,4.5248 C 2.5594,5.0048 2.3297,5.5021 2.1875,6.056 h -1.25 C 0.68908,6.056 0.5,6.2451 0.5,6.4935 v 2.125 c 1e-8,0.24842 0.18908,0.4375 0.4375,0.4375 h 1.25 c 0.1422,0.5539 0.37188,1.0512 0.65625,1.5312 l -0.9063,0.907 c -0.17566,0.17566 -0.17566,0.44934 0,0.625 l 1.5,1.5 c 0.17566,0.17566 0.44934,0.17566 0.625,0 l 0.9063,-0.907 c 0.48,0.285 0.9773,0.514 1.5312,0.656 v 1.25 c 1e-7,0.24842 0.18908,0.4375 0.4375,0.4375 h 2.125 c 0.2484,0 0.4375,-0.189 0.4375,-0.438 v -1.25 c 0.5539,-0.1422 1.0512,-0.37188 1.5312,-0.65625 l 0.90625,0.90625 c 0.17566,0.17566 0.44934,0.17566 0.625,0 l 1.5,-1.5 c 0.17566,-0.17566 0.17566,-0.44934 0,-0.625 l -0.906,-0.906 c 0.285,-0.48 0.514,-0.9771 0.656,-1.531 h 1.25 c 0.249,0 0.438,-0.1891 0.438,-0.4375 v -2.125 c 0,-0.2484 -0.189,-0.4375 -0.438,-0.4375 h -1.25 c -0.142,-0.5539 -0.371,-1.0512 -0.656,-1.5312 l 0.906,-0.9063 c 0.17566,-0.17566 0.17566,-0.44934 0,-0.625 l -1.5,-1.5 c -0.17566,-0.17566 -0.44934,-0.17566 -0.625,0 l -0.906,0.9063 c -0.48,-0.2844 -0.977,-0.5141 -1.531,-0.6563 v -1.25 C 9.5004,0.24478 9.3113,0.0557 9.0629,0.0557 z M 8,4.2133 c 1.8451,0 3.3427,1.4975 3.3427,3.3427 0,1.8451 -1.4975,3.3427 -3.3427,3.3427 -1.8451,0 -3.3427,-1.4979 -3.3427,-3.343 C 4.6573,5.7106 6.1549,4.213 8,4.213 z"
       id="path2991"
       inkscape:connector-curvature="0"
       style="fill:#000000;display:block;fill-opacity:1" />
  </g>
</svg>
