<?xml version="1.0" encoding="UTF-8" standalone="no"?>
<svg xmlns:rdf="http://www.w3.org/1999/02/22-rdf-syntax-ns#" xmlns="http://www.w3.org/2000/svg" height="16" width="16" version="1.1" xmlns:cc="http://creativecommons.org/ns#" xmlns:dc="http://purl.org/dc/elements/1.1/">
 <title>recycle</title>
 <g transform="matrix(-.10727 0 0 .10538 15.997 -.0011207)">
  <path fill="#010101" d="m70.802 151.72c-33.547-2.27-59.694-23.46-68.21-55.272-3.7324-13.945-3.4129-31.124 0.8219-44.174 6.7371-20.762 23.57-38.953 43.295-46.789 35.497-14.101 73.551-0.3446 92.851 33.568 7.34 12.892 10.355 26.318 9.4 41.853-0.76 12.368-2.629 19.553-7.945 30.542-3.422 7.074-5.716 10.094-13.664 18-6.689 6.653-11.649 10.604-16.551 13.184-12.028 6.329-27.814 9.916-40 9.09zm4.5-19.274 0.5-7.481 5.5-0.737c12.754-1.708 24.63-7.529 34.462-16.892 11.858-11.29 18.207-24.78 19.251-40.905 0.739-11.397-0.975-20.604-5.72-30.735-7.28-15.531-24.88-29.262-41.368-32.269-9.566-1.7444-26.279-0.7652-34.63 2.0289-20.958 7.0131-38.671 23.462-45.98 42.697-8.7143 22.934-5.7724 50.09 7.633 70.456 4.2466 6.452 11.041 13.477 12.054 12.464 0.2731-0.273-1.1342-3.139-3.1273-6.368-6.2607-10.143-10.579-24.58-10.579-35.366 0-5.978 2.4851-18.516 4.962-25.034 6.7044-17.644 24.988-32.628 45.665-37.424 3.7707-0.8745 7.4223-2.0601 8.1146-2.6347 0.7686-0.6379 1.2587-3.5049 1.2587-7.3632 0-3.4751 0.4448-6.5934 0.9885-6.9294 1.3812-0.85363 8.7657 2.5714 15.681 7.2734 7.1284 4.8465 13.952 12.028 19.39 20.406 3.307 5.0959 3.997 6.944 3.578 9.5846-1.425 8.9891-17.783 27.922-29.44 34.075-3.4665 1.8297-6.8857 3.1031-7.5982 2.8297-0.7624-0.2926-1.5662-3.0878-1.9535-6.793-0.3619-3.4627-1.0505-6.6884-1.5303-7.1681-1.2221-1.2221-9.6586 3.2474-16.223 8.5948-9.0772 7.3942-17.892 20.35-17.892 26.297 0 9.067 14.039 25.185 28.5 32.72 7.3326 3.821 7.9129 3.458 8.5-5.327z"/>
 </g>
</svg>
