<?xml version="1.0" encoding="UTF-8" standalone="no"?>
<svg
   xmlns:dc="http://purl.org/dc/elements/1.1/"
   xmlns:cc="http://creativecommons.org/ns#"
   xmlns:rdf="http://www.w3.org/1999/02/22-rdf-syntax-ns#"
   xmlns:svg="http://www.w3.org/2000/svg"
   xmlns="http://www.w3.org/2000/svg"
   xmlns:sodipodi="http://sodipodi.sourceforge.net/DTD/sodipodi-0.dtd"
   xmlns:inkscape="http://www.inkscape.org/namespaces/inkscape"
   version="1.1"
   id="Layer_1"
   x="0px"
   y="0px"
   width="512px"
   height="512px"
   viewBox="0 0 512 512"
   enable-background="new 0 0 512 512"
   xml:space="preserve"
   inkscape:version="0.48.4 r9939"
   sodipodi:docname="refresh.svg"
   inkscape:export-xdpi="5.625"
   inkscape:export-ydpi="5.625"><title
     id="title4340">reload</title><metadata
     id="metadata9"><rdf:RDF><cc:Work
         rdf:about=""><dc:format>image/svg+xml</dc:format><dc:type
           rdf:resource="http://purl.org/dc/dcmitype/StillImage" /><dc:title>reload</dc:title><dc:date>2014-10-10</dc:date><dc:creator><cc:Agent><dc:title>Christian Reiner</dc:title></cc:Agent></dc:creator><dc:rights><cc:Agent><dc:title>Copyright 2014: Christian Reiner, Hamburg, Germany</dc:title></cc:Agent></dc:rights><dc:publisher><cc:Agent><dc:title>Christian Reiner</dc:title></cc:Agent></dc:publisher><dc:subject><rdf:Bag><rdf:li>reload</rdf:li></rdf:Bag></dc:subject></cc:Work></rdf:RDF></metadata><defs
     id="defs7" /><sodipodi:namedview
     pagecolor="#ffffff"
     bordercolor="#666666"
     borderopacity="1"
     objecttolerance="10"
     gridtolerance="10"
     guidetolerance="10"
     inkscape:pageopacity="0"
     inkscape:pageshadow="2"
     inkscape:window-width="1920"
     inkscape:window-height="1115"
     id="namedview5"
     showgrid="false"
     inkscape:zoom="0.921875"
     inkscape:cx="-104.13559"
     inkscape:cy="192"
     inkscape:window-x="-4"
     inkscape:window-y="-4"
     inkscape:window-maximized="1"
     inkscape:current-layer="Layer_1" /><path
     d="M 65.687,208.813 C 64.969,203.25 64,197.75 64,192 64,121.312 121.281,64 192,64 233.813,64 270.594,84.344 293.938,115.375 302.344,113.344 311,112 320,112 c 61.875,0 112,50.125 112,112 0,1.75 -0.438,3.313 -0.5,5.063 46.406,13.656 80.5,56.093 80.5,106.937 0,61.875 -50.125,112 -112,112 H 128 C 57.281,448 0,390.719 0,320 0,272.063 26.656,230.75 65.687,208.813 z M 384,288 h -32 c 0,-52.938 -43.063,-96 -96,-96 -19,0 -37.094,5.625 -52.344,15.531 l 19.438,25.906 c 9.766,-5.875 21,-9.438 32.906,-9.438 35.297,0 64,28.688 64,64 h -32 l 48,64 L 384,288 z m -224,0 c 0,52.938 43.063,96 96,96 19,0 37.078,-5.625 52.359,-15.531 L 288.921,342.563 C 279.141,348.438 267.906,352 256,352 c -35.281,0 -64,-28.688 -64,-64 h 32 l -48,-64 -48,64 h 32 z"
     id="path3"
     inkscape:connector-curvature="0"
     style="fill:#000000;fill-opacity:1;opacity:1" /></svg>