<?xml version="1.0" encoding="UTF-8" standalone="no"?>
<svg xmlns:rdf="http://www.w3.org/1999/02/22-rdf-syntax-ns#" xmlns="http://www.w3.org/2000/svg" xml:space="preserve" height="16" width="16" version="1.1" y="0px" x="0px" xmlns:cc="http://creativecommons.org/ns#" xmlns:dc="http://purl.org/dc/elements/1.1/" viewBox="0 0 16 16"><title>reload</title>
  <path d="m3.1831 8.1335c0-2.7162 2.1827-4.9194 4.874-4.9194 1.1627 0 2.2244 0.41856 3.0599 1.1056l-1.9164 1.8406 6.0564 0.6952 0.048-6.5587-1.864 1.7913c-1.427-1.2968-3.31-2.0894-5.3807-2.0894-4.4517-0.0000153-8.0603 3.6426-8.0603 8.1349 0 0.1677 0.014664-0.1386 0.025085 0.0272l3.2526 0.462c-0.0606-0.3111-0.0946-0.161-0.0946-0.4893zm12.796-0.2948-3.253-0.462c0.06162 0.31105 0.09429 0.16005 0.09429 0.48877 0 2.7162-2.1818 4.9189-4.8735 4.9189-1.1593 0-2.2178-0.41575-3.0529-1.099l1.9148-1.8391-6.0551-0.6951-0.04921 6.5592 1.8656-1.793c1.4258 1.293 3.3066 2.083 5.3739 2.083 4.4521 0 8.0601-3.642 8.0601-8.1344 0-0.16733-0.01515 0.13889-0.02515-0.026849z"/>
</svg>
