<?xml version="1.0" encoding="UTF-8" standalone="no"?>
<svg xmlns:rdf="http://www.w3.org/1999/02/22-rdf-syntax-ns#" xmlns="http://www.w3.org/2000/svg" height="16" width="16" version="1.1" xmlns:cc="http://creativecommons.org/ns#" xmlns:xlink="http://www.w3.org/1999/xlink" xmlns:dc="http://purl.org/dc/elements/1.1/">
 <title>bad</title>
 <defs>
  <filter id="q" primitiveUnits="objectBoundingBox" height="1.2" width="1.2" color-interpolation-filters="sRGB" y="-.1" x="-.1" filterUnits="objectBoundingBox">
   <feGaussianBlur height="1.00000000000" width="1.00000000000" result="" y="0.00000000000" x="0.00000000000" stdDeviation="0.0272727, 0.025"/>
  </filter>
  <filter id="p" primitiveUnits="objectBoundingBox" height="1.2" width="1.2" color-interpolation-filters="sRGB" y="-.1" x="-.1" filterUnits="objectBoundingBox">
   <feGaussianBlur height="1.00000000000" width="1.00000000000" result="" y="0.00000000000" x="0.00000000000" stdDeviation="0.0272727, 0.025"/>
  </filter>
  <filter id="o" primitiveUnits="objectBoundingBox" height="1.2" width="1.2" color-interpolation-filters="sRGB" y="-.1" x="-.1" filterUnits="objectBoundingBox">
   <feGaussianBlur height="1.00000000000" width="1.00000000000" result="" y="0.00000000000" x="0.00000000000" stdDeviation="0.0196023, 0.0179688"/>
  </filter>
  <clipPath id="s" clipPathUnits="userSpaceOnUse">
   <path d="m36.25 1.4724c-9.472 9.4686-29.323 17.914-36.25 19.84 0 29.74 19.955 74.688 44 74.688 23.992 0 44-44.948 44-74.688-6.927-1.926-26.778-10.371-36.25-19.84-2.6875-1.9638-12.812-1.9627-15.5 0z"/>
  </clipPath>
  <filter id="n" primitiveUnits="objectBoundingBox" height="1.2277" width="1.2484" color-interpolation-filters="sRGB" y="-.11386" x="-.12421" filterUnits="objectBoundingBox">
   <feGaussianBlur height="1.00000000000" width="1.00000000000" result="" y="0.00000000000" x="0.00000000000" stdDeviation="0.064694, 0.0593028"/>
  </filter>
  <clipPath id="r" clipPathUnits="userSpaceOnUse">
   <path d="m29.659 1.2047c-7.75 7.7469-23.991 14.656-29.659 16.232 0 24.333 16.327 61.109 36 61.109 19.63 0 36-36.776 36-61.109-5.668-1.576-21.909-8.4854-29.659-16.232-2.1989-1.6068-10.483-1.6058-12.682 0z"/>
  </clipPath>
  <filter id="m" primitiveUnits="objectBoundingBox" height="1.3302" width="1.3602" color-interpolation-filters="sRGB" y="-.16510" x="-.18011" filterUnits="objectBoundingBox">
   <feGaussianBlur height="1.00000000000" width="1.00000000000" result="" y="0.00000000000" x="0.00000000000" stdDeviation="0.0938063, 0.0859891"/>
  </filter>
  <filter id="l" primitiveUnits="objectBoundingBox" height="1.2" width="1.2" color-interpolation-filters="sRGB" y="-.1" x="-.1" filterUnits="objectBoundingBox">
   <feGaussianBlur height="1.00000000000" width="1.00000000000" result="" y="0.00000000000" x="0.00000000000" stdDeviation="0.02734537516"/>
  </filter>
  <radialGradient id="e" gradientUnits="userSpaceOnUse" cy="61.275" cx="66.846" gradientTransform="matrix(1.2255 0 0 1.3369 7.68 1.2424)" r="31.054">
   <stop stop-color="#eee" offset="0"/>
   <stop stop-color="#babdb6" offset="1"/>
  </radialGradient>
  <linearGradient id="k" y2="61.28" gradientUnits="userSpaceOnUse" x2="61.979" gradientTransform="matrix(1.2255 0 0 1.3369 7.68 1.2424)" y1="71.924" x1="104.31">
   <stop offset="0"/>
   <stop stop-opacity="0" offset="1"/>
  </linearGradient>
  <linearGradient id="j" y2="100.3" gradientUnits="userSpaceOnUse" x2="39.314" gradientTransform="matrix(2.1206 0 0 .77262 7.68 1.2424)" y1="15.86" x1="39.314">
   <stop stop-color="#fff" offset="0"/>
   <stop stop-color="#fff" stop-opacity="0" offset="1"/>
  </linearGradient>
  <linearGradient id="i" y2="173.22" gradientUnits="userSpaceOnUse" x2="22.765" gradientTransform="matrix(3.6621 0 0 .44739 7.68 28.521)" y1="27.389" x1="22.765">
   <stop stop-color="#fff" offset="0"/>
   <stop stop-color="#fff" stop-opacity="0" offset="1"/>
  </linearGradient>
  <radialGradient id="d" fy="48.41" gradientUnits="userSpaceOnUse" cy="61.275" cx="66.846" gradientTransform="matrix(1.2255 0 0 1.3369 7.68 1.2424)" r="31.054">
   <stop stop-color="#fff" offset="0"/>
   <stop stop-color="#fff" stop-opacity="0" offset="1"/>
  </radialGradient>
  <radialGradient id="c" fx="66.683" fy="45.773" gradientUnits="userSpaceOnUse" cy="50.095" cx="66.846" gradientTransform="matrix(1.2255 0 0 1.3216 17.92 12.413)" r="25.408">
   <stop stop-color="#f00" offset="0"/>
   <stop stop-color="#590000" offset="1"/>
  </radialGradient>
  <linearGradient id="h" y2="81.381" gradientUnits="userSpaceOnUse" x2="66.846" gradientTransform="scale(.95743 1.0445)" y1="23.675" x1="66.846">
   <stop offset="0"/>
   <stop stop-opacity="0" offset="1"/>
  </linearGradient>
  <linearGradient id="g" y2="38.037" gradientUnits="userSpaceOnUse" x2="61.013" gradientTransform="matrix(1.3892 0 0 1.1794 17.92 34.722)" y1="121.5" x1="61.013">
   <stop stop-color="#fff" offset="0"/>
   <stop stop-color="#fff" stop-opacity="0" offset="1"/>
  </linearGradient>
  <linearGradient id="f" y2="67.593" gradientUnits="userSpaceOnUse" x2="32.981" gradientTransform="matrix(2.542 0 0 .64453 7.68 1.2424)" y1="35.056" x1="32.981">
   <stop stop-color="#fff" offset="0"/>
   <stop stop-color="#fff" stop-opacity="0" offset="1"/>
  </linearGradient>
  <radialGradient id="b" fx="66.885" fy="70.857" gradientUnits="userSpaceOnUse" cy="61.702" cx="67.312" gradientTransform="scale(.95790 1.044)" r="17.182">
   <stop stop-color="#ff3313" offset="0"/>
   <stop stop-color="#f00" stop-opacity="0" offset="1"/>
  </radialGradient>
  <radialGradient id="a" fx="68.802" fy="71.947" gradientUnits="userSpaceOnUse" cy="68.577" cx="68.577" r="18.257">
   <stop stop-color="#590000" offset="0"/>
   <stop stop-color="#590000" stop-opacity="0" offset="1"/>
  </radialGradient>
 </defs>
 <g transform="matrix(.11880 0 0 .12407 .40163 .024110)">
  <g fill-rule="evenodd">
   <path opacity=".64356" stroke-linejoin="round" d="m36.25 1.4724c-9.472 9.4686-29.323 17.914-36.25 19.84 0 29.74 19.955 74.688 44 74.688 23.992 0 44-44.948 44-74.688-6.927-1.926-26.778-10.371-36.25-19.84-2.6875-1.9638-12.812-1.9627-15.5 0z" transform="matrix(.94342 0 0 .88667 22.49 38.362)" filter="url(#q)" stroke="#000" stroke-linecap="round" stroke-width="5.5981"/>
   <path opacity=".64356" stroke-linejoin="round" d="m36.25 1.4724c-9.472 9.4686-29.323 17.914-36.25 19.84 0 29.74 19.955 74.688 44 74.688 23.992 0 44-44.948 44-74.688-6.927-1.926-26.778-10.371-36.25-19.84-2.6875-1.9638-12.812-1.9627-15.5 0z" transform="matrix(1.28 0 0 1.28 7.68 2.5224)" filter="url(#p)" stroke="#000" stroke-linecap="round" stroke-width="4"/>
   <path fill="url(#e)" d="m54.08 3.1271c-12.125 12.119-37.533 22.93-46.4 25.394 0 38.067 25.542 95.601 56.32 95.601 30.709 0 56.32-57.534 56.32-95.601-8.8667-2.4645-34.275-13.275-46.4-25.394-3.44-2.5137-16.4-2.5122-19.84 0z"/>
  </g>
  <path opacity=".35644" d="m36.25 1.4724c-9.472 9.4686-29.323 17.914-36.25 19.84 0 29.74 19.955 74.688 44 74.688 23.992 0 44-44.948 44-74.688-6.927-1.926-26.778-10.371-36.25-19.84-2.6875-1.9638-12.812-1.9627-15.5 0z" clip-path="url(#s)" transform="matrix(1.28 0 0 1.28 7.68 1.2424)" filter="url(#o)" stroke="#000" stroke-width="2" fill="none"/>
  <g fill-rule="evenodd">
   <path opacity=".36139" d="m54.08 3.1271c-12.125 12.119-37.533 22.93-46.4 25.394 0 38.067 25.542 95.601 56.32 95.601 30.709 0 56.32-57.534 56.32-95.601-8.8667-2.4645-34.275-13.275-46.4-25.394-3.44-2.5137-16.4-2.5122-19.84 0z" fill="url(#k)"/>
   <path opacity=".95545" d="m64 1.2424c-4.1 0.0001869-8.1999 0.62389-9.92 1.88-12.125 12.12-37.533 22.935-46.4 25.4 0 0.35302 0.035621 0.72358 0.04 1.0801 13.578 7.7649 33.757 12.68 56.28 12.68s42.702-4.9151 56.28-12.68c0.004-0.35648 0.0399-0.72704 0.0399-1.0801-8.8667-2.4645-34.275-13.28-46.4-25.4-1.7201-1.2569-5.82-1.8802-9.92-1.88z" fill="url(#j)"/>
   <path opacity=".95545" d="m7.68 28.522c0 0.35308 0.035621 0.72363 0.04 1.08 13.578 7.7649 33.757 12.68 56.28 12.68s42.702-4.9151 56.28-12.68c0.004-0.35637 0.0399-0.72692 0.0399-1.08-0.011-0.0031-0.0289 0.0031-0.0399 0-0.008 0.14755 0.002 0.29501 0 0.44-13.58 7.765-33.757 12.68-56.28 12.68s-42.702-4.9151-56.28-12.68c-0.00178-0.14499 0.00762-0.29245 0-0.44-0.011077 0.0031-0.028974-0.0031-0.04 0z" fill="url(#i)"/>
   <path fill="url(#d)" d="m54.08 3.1271c-12.125 12.119-37.533 22.93-46.4 25.394 0 38.067 25.542 95.601 56.32 95.601 30.709 0 56.32-57.534 56.32-95.601-8.8667-2.4645-34.275-13.275-46.4-25.394-3.44-2.5137-16.4-2.5122-19.84 0z"/>
   <path fill="url(#c)" d="m55.884 13.938c-9.921 9.802-30.709 18.546-37.964 20.539 0 30.79 20.898 77.324 46.08 77.324 25.126 0 46.08-46.534 46.08-77.324-7.2545-1.9933-28.043-10.737-37.964-20.539-2.8146-2.0331-13.418-2.0319-16.233 0z"/>
  </g>
  <path opacity=".51980" d="m29.659 1.2047c-7.75 7.7469-23.991 14.656-29.659 16.232 0 24.333 16.327 61.109 36 61.109 19.63 0 36-36.776 36-61.109-5.668-1.576-21.909-8.4854-29.659-16.232-2.1989-1.6068-10.483-1.6058-12.682 0z" clip-path="url(#r)" transform="matrix(1.28 0 0 1.28 17.92 12.413)" filter="url(#n)" stroke="url(#h)" stroke-width="6" fill="none"/>
  <g fill-rule="evenodd">
   <path fill="url(#g)" d="m17.92 34.722c0 31.146 20.898 78.24 46.08 78.24 25.126 0 46.08-47.094 46.08-78.24-0.01-0.0028-0.0299 0.0028-0.0399 0-0.83 31.122-21.423 76.958-46.04 76.958-24.672 0-45.217-45.838-46.04-76.96-0.01 0.0028-0.03005-0.0028-0.04 0z"/>
   <path opacity=".88614" d="m64 1.2424c-4.1 0.0001869-8.1999 0.62389-9.92 1.88-12.125 12.12-37.533 22.935-46.4 25.4 0 0.41843 0.033856 0.85696 0.04 1.28 8.8967-2.4822 34.25-13.295 46.36-25.4 3.4401-2.5122 16.4-2.5137 19.84 0 12.11 12.105 37.463 22.918 46.36 25.4 0.006-0.42304 0.0399-0.86157 0.0399-1.28-8.8667-2.4645-34.275-13.28-46.4-25.4-1.7201-1.2569-5.82-1.8802-9.92-1.88z" fill="url(#f)"/>
   <path d="m19.83 0.80548c-5.182 5.1795-16.041 9.7995-19.83 10.853 0 16.269 10.916 40.857 24.07 40.857 13.124 0 24.069-24.588 24.069-40.857-3.789-1.053-14.648-5.673-19.83-10.853-1.4701-1.0743-7.0088-1.0737-8.479 0z" transform="matrix(1.28 0 0 1.28 33.191 29.073)" filter="url(#m)" fill="url(#b)"/>
  </g>
  <path fill-opacity=".75688" fill="#fff" d="m30.695 128.77v-3.5772z"/>
  <path stroke-linejoin="round" d="m0 7.1062 14.459 14.459-14.459 13.966 7.1062 7.106 14.213-14.212 14.212 14.212 7.106-7.106-14.212-14.212 14.212-14.213-6.86-6.8598-14.212 14.213-14.459-14.459z" transform="matrix(1.1582 0 0 1.1582 39.309 37.991)" filter="url(#l)" stroke="url(#a)" stroke-linecap="round" stroke-width="4.4206" fill="none"/>
  <path fill-rule="evenodd" fill="#fff" d="m39.309 46.222 16.746 16.746-16.746 16.175 8.23 8.231 16.461-16.461l16.461 16.461 8.2304-8.2304-16.461-16.461 16.461-16.461-7.9452-7.9452-16.461 16.461-16.746-16.746z"/>
 </g>
</svg>
