<?xml version="1.0" encoding="UTF-8" standalone="no"?>
<svg xmlns:rdf="http://www.w3.org/1999/02/22-rdf-syntax-ns#" xmlns="http://www.w3.org/2000/svg" height="16" width="16" version="1.1" xmlns:cc="http://creativecommons.org/ns#" xmlns:xlink="http://www.w3.org/1999/xlink" xmlns:dc="http://purl.org/dc/elements/1.1/">
 <title>blank</title>
 <defs>
  <filter id="o" primitiveUnits="objectBoundingBox" height="1.2" width="1.2" color-interpolation-filters="sRGB" y="-.1" x="-.1" filterUnits="objectBoundingBox">
   <feGaussianBlur height="1.00000000000" width="1.00000000000" result="" y="0.00000000000" x="0.00000000000" stdDeviation="0.0272727, 0.025"/>
  </filter>
  <filter id="n" primitiveUnits="objectBoundingBox" height="1.2" width="1.2" color-interpolation-filters="sRGB" y="-.1" x="-.1" filterUnits="objectBoundingBox">
   <feGaussianBlur height="1.00000000000" width="1.00000000000" result="" y="0.00000000000" x="0.00000000000" stdDeviation="0.0272727, 0.025"/>
  </filter>
  <filter id="m" primitiveUnits="objectBoundingBox" height="1.2" width="1.2" color-interpolation-filters="sRGB" y="-.1" x="-.1" filterUnits="objectBoundingBox">
   <feGaussianBlur height="1.00000000000" width="1.00000000000" result="" y="0.00000000000" x="0.00000000000" stdDeviation="0.0196023, 0.0179688"/>
  </filter>
  <clipPath id="q" clipPathUnits="userSpaceOnUse">
   <path d="m36.25 1.4724c-9.472 9.4686-29.323 17.914-36.25 19.84 0 29.74 19.955 74.688 44 74.688 23.992 0 44-44.948 44-74.688-6.927-1.926-26.778-10.371-36.25-19.84-2.6875-1.9638-12.812-1.9627-15.5 0z"/>
  </clipPath>
  <filter id="l" primitiveUnits="objectBoundingBox" height="1.2277" width="1.2484" color-interpolation-filters="sRGB" y="-.11386" x="-.12421" filterUnits="objectBoundingBox">
   <feGaussianBlur height="1.00000000000" width="1.00000000000" result="" y="0.00000000000" x="0.00000000000" stdDeviation="0.064694, 0.0593028"/>
  </filter>
  <clipPath id="p" clipPathUnits="userSpaceOnUse">
   <path d="m29.659 1.2047c-7.75 7.7469-23.991 14.656-29.659 16.232 0 24.333 16.327 61.109 36 61.109 19.63 0 36-36.776 36-61.109-5.668-1.576-21.909-8.4854-29.659-16.232-2.1989-1.6068-10.483-1.6058-12.682 0z"/>
  </clipPath>
  <filter id="k" primitiveUnits="objectBoundingBox" height="1.3302" width="1.3602" color-interpolation-filters="sRGB" y="-.16510" x="-.18011" filterUnits="objectBoundingBox">
   <feGaussianBlur height="1.00000000000" width="1.00000000000" result="" y="0.00000000000" x="0.00000000000" stdDeviation="0.0938063, 0.0859891"/>
  </filter>
  <radialGradient id="d" fx="66.683" fy="45.773" gradientUnits="userSpaceOnUse" cy="50.095" cx="66.846" gradientTransform="matrix(1.2255 0 0 1.3369 18.112 -99.508)" r="25.408">
   <stop stop-color="#00bf00" offset="0"/>
   <stop stop-color="#004d00" offset="1"/>
  </radialGradient>
  <radialGradient id="c" gradientUnits="userSpaceOnUse" cy="61.275" cx="66.846" gradientTransform="matrix(1.2255 0 0 1.3369 7.8718 1.3212)" r="31.054">
   <stop stop-color="#eee" offset="0"/>
   <stop stop-color="#babdb6" offset="1"/>
  </radialGradient>
  <linearGradient id="j" y2="61.28" gradientUnits="userSpaceOnUse" x2="61.979" gradientTransform="matrix(1.2255 0 0 1.3369 7.8718 1.3212)" y1="71.924" x1="104.31">
   <stop offset="0"/>
   <stop stop-opacity="0" offset="1"/>
  </linearGradient>
  <linearGradient id="i" y2="100.3" gradientUnits="userSpaceOnUse" x2="39.314" gradientTransform="matrix(2.1206 0 0 .77262 7.8718 1.3212)" y1="15.86" x1="39.314">
   <stop stop-color="#fff" offset="0"/>
   <stop stop-color="#fff" stop-opacity="0" offset="1"/>
  </linearGradient>
  <linearGradient id="h" y2="173.22" gradientUnits="userSpaceOnUse" x2="22.765" gradientTransform="matrix(3.6621 0 0 .44739 7.8718 28.6)" y1="27.389" x1="22.765">
   <stop stop-color="#fff" offset="0"/>
   <stop stop-color="#fff" stop-opacity="0" offset="1"/>
  </linearGradient>
  <radialGradient id="b" fy="48.41" gradientUnits="userSpaceOnUse" cy="61.275" cx="66.846" gradientTransform="matrix(1.2255 0 0 1.3369 7.8718 1.3212)" r="31.054">
   <stop stop-color="#fff" offset="0"/>
   <stop stop-color="#fff" stop-opacity="0" offset="1"/>
  </radialGradient>
  <linearGradient id="g" y2="81.381" gradientUnits="userSpaceOnUse" x2="66.846" gradientTransform="scale(.95743 1.0445)" y1="23.675" x1="66.846">
   <stop offset="0"/>
   <stop stop-opacity="0" offset="1"/>
  </linearGradient>
  <linearGradient id="f" y2="38.037" gradientUnits="userSpaceOnUse" x2="61.013" gradientTransform="matrix(1.3892 0 0 1.1794 18.112 34.8)" y1="121.5" x1="61.013">
   <stop stop-color="#fff" offset="0"/>
   <stop stop-color="#fff" stop-opacity="0" offset="1"/>
  </linearGradient>
  <linearGradient id="e" y2="67.593" gradientUnits="userSpaceOnUse" x2="32.981" gradientTransform="matrix(2.542 0 0 .64453 7.8718 1.3212)" y1="35.056" x1="32.981">
   <stop stop-color="#fff" offset="0"/>
   <stop stop-color="#fff" stop-opacity="0" offset="1"/>
  </linearGradient>
  <radialGradient id="a" fx="66.885" fy="70.857" gradientUnits="userSpaceOnUse" cy="61.702" cx="67.312" gradientTransform="scale(.95790 1.044)" r="17.182">
   <stop stop-color="#0f0" offset="0"/>
   <stop stop-color="#0f0" stop-opacity="0" offset="1"/>
  </radialGradient>
 </defs>
 <path d="m56.075-97.966c-9.9203 9.916-30.709 18.761-37.964 20.777 0 31.146 20.898 78.219 46.08 78.219 25.126 0 46.08-47.073 46.08-78.219-7.2545-2.0164-28.043-10.861-37.964-20.777-2.8146-2.0567-13.418-2.0555-16.233 0z" fill-rule="evenodd" display="none" fill="url(#d)"/>
 <g transform="matrix(.11895 0 0 .12484 .37086 .0033809)">
  <g fill-rule="evenodd">
   <path opacity=".64356" stroke-linejoin="round" d="m36.25 1.4724c-9.472 9.4686-29.323 17.914-36.25 19.84 0 29.74 19.955 74.688 44 74.688 23.992 0 44-44.948 44-74.688-6.927-1.926-26.778-10.371-36.25-19.84-2.6875-1.9638-12.812-1.9627-15.5 0z" transform="matrix(.94342 0 0 .88667 22.681 38.441)" filter="url(#o)" stroke="#000" stroke-linecap="round" stroke-width="5.5981"/>
   <path opacity=".64356" stroke-linejoin="round" d="m36.25 1.4724c-9.472 9.4686-29.323 17.914-36.25 19.84 0 29.74 19.955 74.688 44 74.688 23.992 0 44-44.948 44-74.688-6.927-1.926-26.778-10.371-36.25-19.84-2.6875-1.9638-12.812-1.9627-15.5 0z" transform="matrix(1.28 0 0 1.28 7.8718 2.6012)" filter="url(#n)" stroke="#000" stroke-linecap="round" stroke-width="4"/>
   <path fill="url(#c)" d="m54.272 3.2059c-12.125 12.119-37.533 22.93-46.4 25.394 0 38.067 25.542 95.601 56.32 95.601 30.709 0 56.32-57.534 56.32-95.601-8.8667-2.4645-34.275-13.275-46.4-25.394-3.44-2.5137-16.4-2.5122-19.84 0z"/>
  </g>
  <path opacity=".35644" d="m36.25 1.4724c-9.472 9.4686-29.323 17.914-36.25 19.84 0 29.74 19.955 74.688 44 74.688 23.992 0 44-44.948 44-74.688-6.927-1.926-26.778-10.371-36.25-19.84-2.6875-1.9638-12.812-1.9627-15.5 0z" clip-path="url(#q)" transform="matrix(1.28 0 0 1.28 7.8718 1.3212)" filter="url(#m)" stroke="#000" stroke-width="2" fill="none"/>
  <g fill-rule="evenodd">
   <path opacity=".36139" d="m54.272 3.2059c-12.125 12.119-37.533 22.93-46.4 25.394 0 38.067 25.542 95.601 56.32 95.601 30.709 0 56.32-57.534 56.32-95.601-8.8667-2.4645-34.275-13.275-46.4-25.394-3.44-2.5137-16.4-2.5122-19.84 0z" fill="url(#j)"/>
   <path opacity=".95545" d="m64.192 1.3212c-4.1 0.0001869-8.1999 0.62389-9.92 1.88-12.125 12.12-37.533 22.935-46.4 25.4 0 0.35302 0.035621 0.72358 0.04 1.0801 13.578 7.7649 33.757 12.68 56.28 12.68s42.702-4.9151 56.28-12.68c0.004-0.35648 0.0399-0.72704 0.0399-1.0801-8.8667-2.4645-34.275-13.28-46.4-25.4-1.7201-1.2569-5.82-1.8802-9.92-1.88z" fill="url(#i)"/>
   <path opacity=".95545" d="m7.8718 28.601c0 0.35308 0.035621 0.72363 0.04 1.08 13.578 7.7649 33.757 12.68 56.28 12.68s42.702-4.9151 56.28-12.68c0.004-0.35637 0.0399-0.72692 0.0399-1.08-0.011-0.0031-0.0289 0.0031-0.0399 0-0.008 0.14755 0.002 0.29501 0 0.44-13.578 7.7649-33.757 12.68-56.28 12.68s-42.702-4.9151-56.28-12.68c-0.00178-0.14499 0.00762-0.29245 0-0.44-0.011077 0.0031-0.028974-0.0031-0.04 0z" fill="url(#h)"/>
   <path fill="url(#b)" d="m54.272 3.2059c-12.125 12.119-37.533 22.93-46.4 25.394 0 38.067 25.542 95.601 56.32 95.601 30.709 0 56.32-57.534 56.32-95.601-8.8667-2.4645-34.275-13.275-46.4-25.394-3.44-2.5137-16.4-2.5122-19.84 0z"/>
  </g>
  <path opacity=".51980" d="m29.659 1.2047c-7.75 7.7469-23.991 14.656-29.659 16.232 0 24.333 16.327 61.109 36 61.109 19.63 0 36-36.776 36-61.109-5.668-1.576-21.909-8.4854-29.659-16.232-2.1989-1.6068-10.483-1.6058-12.682 0z" clip-path="url(#p)" transform="matrix(1.28 0 0 1.28 18.112 12.492)" filter="url(#l)" stroke="url(#g)" stroke-width="6" fill="none"/>
  <path fill-rule="evenodd" fill="url(#f)" d="m18.112 34.801c0 31.146 20.898 78.24 46.08 78.24 25.126 0 46.08-47.094 46.08-78.24-0.01-0.0028-0.0299 0.0028-0.0399 0-0.82547 31.122-21.423 76.96-46.04 76.96-24.672 0-45.217-45.838-46.04-76.96-0.01 0.0028-0.03005-0.0028-0.04 0z"/>
  <path opacity=".88614" d="m64.192 1.3212c-4.1 0.0001869-8.1999 0.62389-9.92 1.88-12.125 12.12-37.533 22.935-46.4 25.4 0 0.41843 0.033856 0.85696 0.04 1.28 8.8967-2.4822 34.25-13.295 46.36-25.4 3.4401-2.5122 16.4-2.5137 19.84 0 12.11 12.105 37.463 22.918 46.36 25.4 0.006-0.42304 0.0399-0.86157 0.0399-1.28-8.8667-2.4645-34.275-13.28-46.4-25.4-1.7201-1.2569-5.82-1.8802-9.92-1.88z" fill-rule="evenodd" fill="url(#e)"/>
 </g>
 <path transform="matrix(1.28 0 0 1.28 33.383 -82.849)" fill-rule="evenodd" display="none" filter="url(#k)" fill="url(#a)" d="m19.83 0.80548c-5.182 5.1795-16.041 9.7995-19.83 10.853 0 16.269 10.916 40.857 24.07 40.857 13.124 0 24.069-24.588 24.069-40.857-3.789-1.053-14.648-5.673-19.83-10.853-1.4701-1.0743-7.0088-1.0737-8.479 0z"/>
</svg>
