<?xml version="1.0" encoding="UTF-8" standalone="no"?>
<svg xmlns:rdf="http://www.w3.org/1999/02/22-rdf-syntax-ns#" xmlns="http://www.w3.org/2000/svg" height="16" width="16" version="1.1" xmlns:cc="http://creativecommons.org/ns#" xmlns:xlink="http://www.w3.org/1999/xlink" xmlns:dc="http://purl.org/dc/elements/1.1/">
 <title>bad</title>
 <defs>
  <filter id="s" primitiveUnits="objectBoundingBox" height="1.2" width="1.2" color-interpolation-filters="sRGB" y="-.1" x="-.1" filterUnits="objectBoundingBox">
   <feGaussianBlur height="1.00000000000" width="1.00000000000" result="" y="0.00000000000" x="0.00000000000" stdDeviation="0.0272727, 0.025"/>
  </filter>
  <filter id="r" primitiveUnits="objectBoundingBox" height="1.2" width="1.2" color-interpolation-filters="sRGB" y="-.1" x="-.1" filterUnits="objectBoundingBox">
   <feGaussianBlur height="1.00000000000" width="1.00000000000" result="" y="0.00000000000" x="0.00000000000" stdDeviation="0.0272727, 0.025"/>
  </filter>
  <filter id="q" primitiveUnits="objectBoundingBox" height="1.2" width="1.2" color-interpolation-filters="sRGB" y="-.1" x="-.1" filterUnits="objectBoundingBox">
   <feGaussianBlur height="1.00000000000" width="1.00000000000" result="" y="0.00000000000" x="0.00000000000" stdDeviation="0.0196023, 0.0179688"/>
  </filter>
  <clipPath id="u" clipPathUnits="userSpaceOnUse">
   <path d="m36.25 1.4724c-9.472 9.4686-29.323 17.914-36.25 19.84 0 29.74 19.955 74.688 44 74.688 23.992 0 44-44.948 44-74.688-6.927-1.926-26.778-10.371-36.25-19.84-2.6875-1.9638-12.812-1.9627-15.5 0z"/>
  </clipPath>
  <filter id="p" primitiveUnits="objectBoundingBox" height="1.2277" width="1.2484" color-interpolation-filters="sRGB" y="-.11386" x="-.12421" filterUnits="objectBoundingBox">
   <feGaussianBlur height="1.00000000000" width="1.00000000000" result="" y="0.00000000000" x="0.00000000000" stdDeviation="0.064694, 0.0593028"/>
  </filter>
  <clipPath id="t" clipPathUnits="userSpaceOnUse">
   <path d="m29.659 1.2047c-7.75 7.7469-23.991 14.656-29.659 16.232 0 24.333 16.327 61.109 36 61.109 19.63 0 36-36.776 36-61.109-5.668-1.576-21.909-8.4854-29.659-16.232-2.1989-1.6068-10.483-1.6058-12.682 0z"/>
  </clipPath>
  <filter id="o" primitiveUnits="objectBoundingBox" height="1.3302" width="1.3602" color-interpolation-filters="sRGB" y="-.16510" x="-.18011" filterUnits="objectBoundingBox">
   <feGaussianBlur height="1.00000000000" width="1.00000000000" result="" y="0.00000000000" x="0.00000000000" stdDeviation="0.0938063, 0.0859891"/>
  </filter>
  <filter id="n" primitiveUnits="objectBoundingBox" height="1.2" width="1.2" color-interpolation-filters="sRGB" y="-.1" x="-.1" filterUnits="objectBoundingBox">
   <feGaussianBlur height="1.00000000000" width="1.00000000000" result="" y="0.00000000000" x="0.00000000000" stdDeviation="0.02734537516"/>
  </filter>
  <filter id="m" primitiveUnits="objectBoundingBox" height="1.2" width="1.2" color-interpolation-filters="sRGB" y="-.1" x="-.1" filterUnits="objectBoundingBox">
   <feGaussianBlur height="1.00000000000" width="1.00000000000" result="" y="0.00000000000" x="0.00000000000" stdDeviation="0.0240489, 0.0320652"/>
  </filter>
  <radialGradient id="f" gradientUnits="userSpaceOnUse" cy="61.275" cx="66.846" gradientTransform="matrix(.16649 0 0 .16587 .34939 .17825)" r="31.054">
   <stop stop-color="#eee" offset="0"/>
   <stop stop-color="#babdb6" offset="1"/>
  </radialGradient>
  <linearGradient id="l" y2="61.28" gradientUnits="userSpaceOnUse" x2="61.979" gradientTransform="matrix(.16649 0 0 .16587 .34939 .17825)" y1="71.924" x1="104.31">
   <stop offset="0"/>
   <stop stop-opacity="0" offset="1"/>
  </linearGradient>
  <linearGradient id="k" y2="100.3" gradientUnits="userSpaceOnUse" x2="39.314" gradientTransform="matrix(.28809 0 0 .095858 .34939 .17825)" y1="15.86" x1="39.314">
   <stop stop-color="#fff" offset="0"/>
   <stop stop-color="#fff" stop-opacity="0" offset="1"/>
  </linearGradient>
  <linearGradient id="j" y2="173.22" gradientUnits="userSpaceOnUse" x2="22.765" gradientTransform="matrix(.49752 0 0 .055507 .34939 3.5627)" y1="27.389" x1="22.765">
   <stop stop-color="#fff" offset="0"/>
   <stop stop-color="#fff" stop-opacity="0" offset="1"/>
  </linearGradient>
  <radialGradient id="e" fy="48.41" gradientUnits="userSpaceOnUse" cy="61.275" cx="66.846" gradientTransform="matrix(.16649 0 0 .16587 .34939 .17825)" r="31.054">
   <stop stop-color="#fff" offset="0"/>
   <stop stop-color="#fff" stop-opacity="0" offset="1"/>
  </radialGradient>
  <radialGradient id="d" fx="66.683" fy="45.773" gradientUnits="userSpaceOnUse" cy="50.095" cx="66.846" gradientTransform="matrix(.16649 0 0 .16397 1.7405 1.5642)" r="25.408">
   <stop stop-color="#0f0" offset="0"/>
   <stop stop-color="#005900" offset="1"/>
  </radialGradient>
  <linearGradient id="i" y2="81.381" gradientUnits="userSpaceOnUse" x2="66.846" gradientTransform="scale(.95743 1.0445)" y1="23.675" x1="66.846">
   <stop offset="0"/>
   <stop stop-opacity="0" offset="1"/>
  </linearGradient>
  <linearGradient id="h" y2="38.037" gradientUnits="userSpaceOnUse" x2="61.013" gradientTransform="matrix(.18873 0 0 .14632 1.7405 4.332)" y1="121.5" x1="61.013">
   <stop stop-color="#fff" offset="0"/>
   <stop stop-color="#fff" stop-opacity="0" offset="1"/>
  </linearGradient>
  <linearGradient id="g" y2="67.593" gradientUnits="userSpaceOnUse" x2="32.981" gradientTransform="matrix(.34534 0 0 .079966 .34939 .17825)" y1="35.056" x1="32.981">
   <stop stop-color="#fff" offset="0"/>
   <stop stop-color="#fff" stop-opacity="0" offset="1"/>
  </linearGradient>
  <radialGradient id="c" fx="66.885" fy="70.857" gradientUnits="userSpaceOnUse" cy="61.702" cx="67.312" gradientTransform="scale(.95790 1.044)" r="17.182">
   <stop stop-color="#ff3313" offset="0"/>
   <stop stop-color="#f00" stop-opacity="0" offset="1"/>
  </radialGradient>
  <radialGradient id="b" fx="68.802" fy="71.947" gradientUnits="userSpaceOnUse" cy="68.577" cx="68.577" r="18.257">
   <stop stop-color="#590000" offset="0"/>
   <stop stop-color="#590000" stop-opacity="0" offset="1"/>
  </radialGradient>
  <radialGradient id="a" fy="39.849" gradientUnits="userSpaceOnUse" cy="24.437" cx="-97.655" gradientTransform="scale(1.1389 .87801)" r="19.162">
   <stop stop-color="#004d00" offset="0"/>
   <stop stop-color="#004d00" stop-opacity="0" offset="1"/>
  </radialGradient>
 </defs>
 <g transform="matrix(.87481 0 0 1 .99477 0)">
  <g fill-rule="evenodd">
   <path opacity=".64356" stroke-linejoin="round" d="m36.25 1.4724c-9.472 9.4686-29.323 17.914-36.25 19.84 0 29.74 19.955 74.688 44 74.688 23.992 0 44-44.948 44-74.688-6.927-1.926-26.778-10.371-36.25-19.84-2.6875-1.9638-12.812-1.9627-15.5 0z" transform="matrix(.12817 0 0 .11001 2.3613 4.7837)" filter="url(#s)" stroke="#000" stroke-linecap="round" stroke-width="5.5981"/>
   <path opacity=".64356" stroke-linejoin="round" d="m36.25 1.4724c-9.472 9.4686-29.323 17.914-36.25 19.84 0 29.74 19.955 74.688 44 74.688 23.992 0 44-44.948 44-74.688-6.927-1.926-26.778-10.371-36.25-19.84-2.6875-1.9638-12.812-1.9627-15.5 0z" transform="matrix(.17389 0 0 .15881 .34939 .33706)" filter="url(#r)" stroke="#000" stroke-linecap="round" stroke-width="4"/>
   <path fill="url(#f)" d="m6.6531 0.41208c-1.6473 1.5036-5.0991 2.8448-6.3037 3.1506 0 4.723 3.47 11.861 7.6513 11.861 4.172 0 7.6513-7.1381 7.6513-11.861-1.2046-0.30577-4.6565-1.647-6.3037-3.1506-0.46734-0.31187-2.228-0.31169-2.6954 0z"/>
  </g>
  <path opacity=".35644" d="m36.25 1.4724c-9.472 9.4686-29.323 17.914-36.25 19.84 0 29.74 19.955 74.688 44 74.688 23.992 0 44-44.948 44-74.688-6.927-1.926-26.778-10.371-36.25-19.84-2.6875-1.9638-12.812-1.9627-15.5 0z" clip-path="url(#u)" transform="matrix(.17389 0 0 .15881 .34939 .17825)" filter="url(#q)" stroke="#000" stroke-width="2" fill="none"/>
  <g fill-rule="evenodd">
   <path opacity=".36139" d="m6.6531 0.41208c-1.6473 1.5036-5.0991 2.8448-6.3037 3.1506 0 4.723 3.47 11.861 7.6513 11.861 4.172 0 7.6513-7.1381 7.6513-11.861-1.2046-0.30577-4.6565-1.647-6.3037-3.1506-0.46734-0.31187-2.228-0.31169-2.6954 0z" fill="url(#l)"/>
   <path opacity=".95545" d="m8.0007 0.17825c-0.557 0.00002-1.114 0.0774-1.3476 0.23325-1.6473 1.5037-5.0991 2.8456-6.3037 3.1513 0 0.043799 0.004839 0.089774 0.005434 0.134 1.8446 0.9634 4.5861 1.5732 7.6459 1.5732 3.0599 0 5.8013-0.60981 7.6459-1.5732 0.000544-0.044228 0.0054-0.090203 0.0054-0.134-1.205-0.3057-4.656-1.6476-6.3036-3.1513-0.2337-0.15594-0.7907-0.23328-1.3477-0.23325z" fill="url(#k)"/>
   <path opacity=".95545" d="m0.34939 3.5628c0 0.043806 0.004839 0.08978 0.005434 0.13399 1.8446 0.9634 4.5861 1.5732 7.6459 1.5732 3.0599 0 5.8013-0.60981 7.6459-1.5732 0.000544-0.044214 0.0054-0.090188 0.0054-0.13399-0.0015-0.0003847-0.0039 0.0003846-0.0054 0-0.0011 0.018307 0.000272 0.036602 0 0.05459-1.8446 0.96338-4.586 1.5732-7.6459 1.5732s-5.8013-0.60981-7.6459-1.5732c-0.00024182-0.017988 0.001035-0.036284 0-0.05459-0.001505 0.0003846-0.003936-0.0003847-0.005434 0z" fill="url(#j)"/>
   <path fill="url(#e)" d="m6.6531 0.41208c-1.6473 1.5036-5.0991 2.8448-6.3037 3.1506 0 4.723 3.47 11.861 7.6513 11.861 4.172 0 7.6513-7.1381 7.6513-11.861-1.2046-0.30577-4.6565-1.647-6.3037-3.1506-0.46734-0.31187-2.228-0.31169-2.6954 0z"/>
   <path fill="url(#d)" d="m6.8981 1.7533c-1.3477 1.2162-4.172 2.301-5.1576 2.5483 0 3.8201 2.8391 9.5935 6.2602 9.5935 3.4135 0 6.2602-5.7735 6.2602-9.5935-0.985-0.2473-3.809-1.3321-5.1566-2.5483-0.38238-0.25225-1.8229-0.2521-2.2053 0z"/>
  </g>
  <path opacity=".51980" d="m29.659 1.2047c-7.75 7.7469-23.991 14.656-29.659 16.232 0 24.333 16.327 61.109 36 61.109 19.63 0 36-36.776 36-61.109-5.668-1.576-21.909-8.4854-29.659-16.232-2.1989-1.6068-10.483-1.6058-12.682 0z" clip-path="url(#t)" transform="matrix(.17389 0 0 .15881 1.7405 1.5642)" filter="url(#p)" stroke="url(#i)" stroke-width="6" fill="none"/>
  <g fill-rule="evenodd">
   <path fill="url(#h)" d="m1.7405 4.3321c0 3.8643 2.8391 9.7071 6.2602 9.7071 3.4135 0 6.2602-5.8429 6.2602-9.7071-0.0014-0.0003473-0.0041 0.0003474-0.0054 0-0.11215 3.8613-2.9105 9.5483-6.2548 9.5483-3.3518 0-6.1429-5.6871-6.2548-9.5483-0.00136 0.0003474-0.00408-0.0003473-0.00543 0z"/>
   <path opacity=".88614" d="m8.0007 0.17825c-0.557 0.00002-1.114 0.0774-1.3476 0.23325-1.6473 1.5037-5.0991 2.8456-6.3037 3.1513 0 0.051914 0.0046 0.10632 0.005434 0.15881 1.2087-0.3079 4.6531-1.6495 6.2983-3.1513 0.46736-0.31169 2.228-0.31187 2.6954 0 1.6455 1.5018 5.0895 2.8434 6.2985 3.1513 0.000816-0.052486 0.0054-0.10689 0.0054-0.15881-1.205-0.3057-4.656-1.6476-6.3036-3.1513-0.2337-0.15594-0.7907-0.23328-1.3477-0.23325z" fill="url(#g)"/>
   <path d="m19.83 0.80548c-5.182 5.1795-16.041 9.7995-19.83 10.853 0 16.269 10.916 40.857 24.07 40.857 13.124 0 24.069-24.588 24.069-40.857-3.789-1.053-14.648-5.673-19.83-10.853-1.4701-1.0743-7.0088-1.0737-8.479 0z" transform="matrix(.17389 0 0 .15881 3.8152 3.6311)" filter="url(#o)" fill="url(#c)"/>
  </g>
  <path fill-opacity=".75688" fill="#fff" d="m3.476 16v-0.44382z"/>
  <path stroke-linejoin="round" d="m0 7.1062 14.459 14.459-14.459 13.966 7.1062 7.106 14.213-14.212 14.212 14.212 7.106-7.106-14.212-14.212 14.212-14.213-6.86-6.8598-14.212 14.213-14.459-14.459z" transform="matrix(.15735 0 0 .14370 4.6463 4.7376)" filter="url(#n)" stroke="url(#b)" stroke-linecap="round" stroke-width="4.4206" fill="none"/>
  <g transform="matrix(.17398 0 0 .15936 3.2236 4.6844)">
   <path d="m18.397 22.09c-3.904-4.001-12.345-12.652-12.345-12.652l-6.052 6.204 18.397 18.858 27.603-28.296-6.053-6.204s-16.896 17.321-21.55 22.09z" transform="translate(4.6,3.45)" filter="url(#m)" stroke="url(#a)" stroke-width="4" fill="none"/>
   <path d="m18.397 22.09c-3.904-4.001-12.345-12.652-12.345-12.652l-6.052 6.204 18.397 18.858 27.603-28.296-6.053-6.204s-16.896 17.321-21.55 22.09z" fill="#fff" transform="translate(4.6,3.45)"/>
  </g>
 </g>
</svg>
