<?xml version="1.0" encoding="UTF-8" standalone="no"?>
<svg xmlns:rdf="http://www.w3.org/1999/02/22-rdf-syntax-ns#" xmlns="http://www.w3.org/2000/svg" height="16" width="16" version="1.1" xmlns:cc="http://creativecommons.org/ns#" xmlns:dc="http://purl.org/dc/elements/1.1/">
 <title>neutral</title>
 <defs>
  <filter id="q" primitiveUnits="objectBoundingBox" height="1.2" width="1.2" color-interpolation-filters="sRGB" y="-.1" x="-.1" filterUnits="objectBoundingBox">
   <feGaussianBlur height="1.00000000000" width="1.00000000000" result="" y="0.00000000000" x="0.00000000000" stdDeviation="0.0272727, 0.025"/>
  </filter>
  <filter id="p" primitiveUnits="objectBoundingBox" height="1.2" width="1.2" color-interpolation-filters="sRGB" y="-.1" x="-.1" filterUnits="objectBoundingBox">
   <feGaussianBlur height="1.00000000000" width="1.00000000000" result="" y="0.00000000000" x="0.00000000000" stdDeviation="0.0272727, 0.025"/>
  </filter>
  <radialGradient id="k" gradientUnits="userSpaceOnUse" cy="61.275" cx="66.846" gradientTransform="scale(.95743 1.0445)" r="31.054">
   <stop stop-color="#eee" offset="0"/>
   <stop stop-color="#babdb6" offset="1"/>
  </radialGradient>
  <filter id="o" primitiveUnits="objectBoundingBox" height="1.2" width="1.2" color-interpolation-filters="sRGB" y="-.1" x="-.1" filterUnits="objectBoundingBox">
   <feGaussianBlur height="1.00000000000" width="1.00000000000" result="" y="0.00000000000" x="0.00000000000" stdDeviation="0.0196023, 0.0179688"/>
  </filter>
  <clipPath id="s" clipPathUnits="userSpaceOnUse">
   <path d="m36.25 1.4724c-9.472 9.4686-29.323 17.914-36.25 19.84 0 29.74 19.955 74.688 44 74.688 23.992 0 44-44.948 44-74.688-6.927-1.926-26.778-10.371-36.25-19.84-2.6875-1.9638-12.812-1.9627-15.5 0z"/>
  </clipPath>
  <linearGradient id="j" y2="61.28" gradientUnits="userSpaceOnUse" x2="61.979" gradientTransform="scale(.95743 1.0445)" y1="71.924" x1="104.31">
   <stop offset="0"/>
   <stop stop-opacity="0" offset="1"/>
  </linearGradient>
  <linearGradient id="h" y2="100.3" gradientUnits="userSpaceOnUse" x2="39.314" gradientTransform="scale(1.6567 .60361)" y1="15.86" x1="39.314">
   <stop stop-color="#fff" offset="0"/>
   <stop stop-color="#fff" stop-opacity="0" offset="1"/>
  </linearGradient>
  <linearGradient id="g" y2="173.22" gradientUnits="userSpaceOnUse" x2="22.765" gradientTransform="scale(2.861 .34952)" y1="27.389" x1="22.765">
   <stop stop-color="#fff" offset="0"/>
   <stop stop-color="#fff" stop-opacity="0" offset="1"/>
  </linearGradient>
  <radialGradient id="f" fy="48.41" gradientUnits="userSpaceOnUse" cy="61.275" cx="66.846" gradientTransform="scale(.95743 1.0445)" r="31.054">
   <stop stop-color="#fff" offset="0"/>
   <stop stop-color="#fff" stop-opacity="0" offset="1"/>
  </radialGradient>
  <radialGradient id="e" fx="66.683" fy="45.773" gradientUnits="userSpaceOnUse" cy="50.095" cx="66.846" gradientTransform="scale(.95743 1.0445)" r="25.408">
   <stop stop-color="#ffbf00" offset="0"/>
   <stop stop-color="#e3ad00" offset="1"/>
  </radialGradient>
  <linearGradient id="d" y2="81.381" gradientUnits="userSpaceOnUse" x2="66.846" gradientTransform="scale(.95743 1.0445)" y1="23.675" x1="66.846">
   <stop offset="0"/>
   <stop stop-opacity="0" offset="1"/>
  </linearGradient>
  <filter id="n" primitiveUnits="objectBoundingBox" height="1.2277" width="1.2484" color-interpolation-filters="sRGB" y="-.11386" x="-.12421" filterUnits="objectBoundingBox">
   <feGaussianBlur height="1.00000000000" width="1.00000000000" result="" y="0.00000000000" x="0.00000000000" stdDeviation="0.064694, 0.0593028"/>
  </filter>
  <clipPath id="r" clipPathUnits="userSpaceOnUse">
   <path d="m29.659 1.2047c-7.75 7.7469-23.991 14.656-29.659 16.232 0 24.333 16.327 61.109 36 61.109 19.63 0 36-36.776 36-61.109-5.668-1.576-21.909-8.4854-29.659-16.232-2.1989-1.6068-10.483-1.6058-12.682 0z"/>
  </clipPath>
  <linearGradient id="c" y2="38.037" gradientUnits="userSpaceOnUse" x2="61.013" gradientTransform="scale(1.0853 .92139)" y1="121.5" x1="61.013">
   <stop stop-color="#fff" offset="0"/>
   <stop stop-color="#fff" stop-opacity="0" offset="1"/>
  </linearGradient>
  <linearGradient id="b" y2="67.593" gradientUnits="userSpaceOnUse" x2="32.981" gradientTransform="scale(1.9859 .50354)" y1="35.056" x1="32.981">
   <stop stop-color="#fff" offset="0"/>
   <stop stop-color="#fff" stop-opacity="0" offset="1"/>
  </linearGradient>
  <radialGradient id="a" fx="66.885" fy="70.857" gradientUnits="userSpaceOnUse" cy="61.702" cx="67.312" gradientTransform="scale(.95790 1.044)" r="17.182">
   <stop stop-color="#ff0" offset="0"/>
   <stop stop-color="#ff0" stop-opacity="0" offset="1"/>
  </radialGradient>
  <filter id="m" primitiveUnits="objectBoundingBox" height="1.3302" width="1.3602" color-interpolation-filters="sRGB" y="-.16510" x="-.18011" filterUnits="objectBoundingBox">
   <feGaussianBlur height="1.00000000000" width="1.00000000000" result="" y="0.00000000000" x="0.00000000000" stdDeviation="0.0938063, 0.0859891"/>
  </filter>
  <radialGradient id="i" gradientUnits="userSpaceOnUse" cy="35.541" cx="189.04" gradientTransform="scale(.51934 1.9255)" r="3.3931">
   <stop stop-color="#fa0" offset="0"/>
   <stop stop-color="#fa0" stop-opacity="0" offset="1"/>
  </radialGradient>
  <filter id="l" primitiveUnits="objectBoundingBox" height="1.0605" width="1.232" color-interpolation-filters="sRGB" y="-.030261" x="-.116" filterUnits="objectBoundingBox">
   <feGaussianBlur height="1.00000000000" width="1.00000000000" result="" y="0.00000000000" x="0.00000000000" stdDeviation="0.090625, 0.0172619"/>
  </filter>
 </defs>
 <g transform="matrix(.15182 0 0 .15895 -1.7186 -2.3795)">
  <g fill="none" transform="translate(11.2,6.4)">
   <g fill-rule="evenodd">
    <path opacity=".64356" stroke-linejoin="round" d="m36.25 1.4724c-9.472 9.4686-29.323 17.914-36.25 19.84 0 29.74 19.955 74.688 44 74.688 23.992 0 44-44.948 44-74.688-6.927-1.926-26.778-10.371-36.25-19.84-2.6875-1.9638-12.812-1.9627-15.5 0z" transform="matrix(.73704 0 0 .69271 20.37 38.6)" filter="url(#q)" stroke="#000" stroke-linecap="round" stroke-width="5.5981" fill="#000"/>
    <path opacity=".64356" stroke-linejoin="round" d="m36.25 1.4724c-9.472 9.4686-29.323 17.914-36.25 19.84 0 29.74 19.955 74.688 44 74.688 23.992 0 44-44.948 44-74.688-6.927-1.926-26.778-10.371-36.25-19.84-2.6875-1.9638-12.812-1.9627-15.5 0z" transform="translate(8.8,10.6)" filter="url(#p)" stroke="#000" stroke-linecap="round" stroke-width="4" fill="#000"/>
    <path d="m36.25 1.4724c-9.472 9.4686-29.323 17.914-36.25 19.84 0 29.74 19.955 74.688 44 74.688 23.992 0 44-44.948 44-74.688-6.927-1.926-26.778-10.371-36.25-19.84-2.6875-1.9638-12.812-1.9627-15.5 0z" transform="translate(8.8,9.6)" fill="url(#k)"/>
   </g>
   <path opacity=".35644" d="m36.25 1.4724c-9.472 9.4686-29.323 17.914-36.25 19.84 0 29.74 19.955 74.688 44 74.688 23.992 0 44-44.948 44-74.688-6.927-1.926-26.778-10.371-36.25-19.84-2.6875-1.9638-12.812-1.9627-15.5 0z" clip-path="url(#s)" transform="translate(8.8,9.6)" filter="url(#o)" stroke="#000" stroke-width="2" fill="none"/>
   <g fill-rule="evenodd">
    <path opacity=".36139" d="m36.25 1.4724c-9.472 9.4686-29.323 17.914-36.25 19.84 0 29.74 19.955 74.688 44 74.688 23.992 0 44-44.948 44-74.688-6.927-1.926-26.778-10.371-36.25-19.84-2.6875-1.9638-12.812-1.9627-15.5 0z" transform="translate(8.8,9.6)" fill="url(#j)"/>
    <path opacity=".95545" d="m44 3.282e-8c-3.203 0.000146-6.406 0.48741-7.75 1.4688-9.472 9.4682-29.323 17.918-36.25 19.843 0 0.276 0.027829 0.566 0.03125 0.844 10.608 6.067 26.373 9.906 43.969 9.906s33.361-3.8399 43.969-9.9062c0.003-0.278 0.031-0.568 0.031-0.844-6.927-1.925-26.778-10.375-36.25-19.843-1.344-0.98217-4.547-1.4691-7.75-1.469z" transform="translate(8.8,9.6)" fill="url(#h)"/>
    <path opacity=".95545" d="m0 0.00068898c0 0.27584 0.027829 0.56534 0.03125 0.84375 10.608 6.0664 26.373 9.9066 43.969 9.9066s33.361-3.8402 43.969-9.9066c0.003-0.27837 0.031-0.56787 0.031-0.84371-0.0086-0.002394-0.0226 0.002414-0.0312 0-0.006 0.11527 0.001 0.23048 0 0.34375-10.608 6.0664-26.373 9.9066-43.969 9.9066s-33.361-3.8402-43.969-9.9066c-0.001142-0.11323 0.006204-0.22844 0.00025-0.34371-0.008654 0.002413-0.022636-0.002395-0.03125-0.00000102z" transform="translate(8.8 30.912)" fill="url(#g)"/>
    <path d="m36.25 1.4724c-9.472 9.4686-29.323 17.914-36.25 19.84 0 29.74 19.955 74.688 44 74.688 23.992 0 44-44.948 44-74.688-6.927-1.926-26.778-10.371-36.25-19.84-2.6875-1.9638-12.812-1.9627-15.5 0z" transform="translate(8.8,9.6)" fill="url(#f)"/>
    <path d="m29.659 1.2047c-7.75 7.7469-23.991 14.656-29.659 16.232 0 24.333 16.327 61.109 36 61.109 19.63 0 36-36.776 36-61.109-5.668-1.576-21.909-8.4854-29.659-16.232-2.1989-1.6068-10.483-1.6058-12.682 0z" transform="translate(16.8 18.327)" fill="url(#e)"/>
   </g>
   <path opacity=".51980" d="m29.659 1.2047c-7.75 7.7469-23.991 14.656-29.659 16.232 0 24.333 16.327 61.109 36 61.109 19.63 0 36-36.776 36-61.109-5.668-1.576-21.909-8.4854-29.659-16.232-2.1989-1.6068-10.483-1.6058-12.682 0z" clip-path="url(#r)" transform="translate(16.8 18.327)" filter="url(#n)" stroke="url(#d)" stroke-width="6" fill="none"/>
   <g fill-rule="evenodd">
    <path d="m0 0.00062133c0 24.333 16.327 61.125 36 61.125 19.63 0 36-36.792 36-61.125-0.0078-0.00216-0.0234 0.002181-0.0312 0-0.645 24.314-16.737 60.125-35.969 60.125-19.275 0-35.326-35.811-35.969-60.125-0.007563 0.0018023-0.023227-0.0025387-0.031-0.00037867z" transform="translate(16.8 35.756)" fill="url(#c)"/>
    <path opacity=".88614" d="m44 3.282e-8c-3.203 0.000146-6.406 0.48741-7.75 1.4688-9.472 9.4682-29.323 17.918-36.25 19.843 0 0.3269 0.02645 0.6695 0.03125 1 6.9506-1.939 26.758-10.387 36.219-19.843 2.6876-1.9627 12.812-1.9638 15.5 0 9.461 9.456 29.268 17.904 36.219 19.843 0.005-0.33 0.031-0.673 0.031-1-6.927-1.925-26.778-10.375-36.25-19.843-1.344-0.98217-4.547-1.4691-7.75-1.469z" transform="translate(8.8,9.6)" fill="url(#b)"/>
    <path d="m19.83 0.80548c-5.182 5.1795-16.041 9.7995-19.83 10.853 0 16.269 10.916 40.857 24.07 40.857 13.124 0 24.069-24.588 24.069-40.857-3.789-1.053-14.648-5.673-19.83-10.853-1.4701-1.0743-7.0088-1.0737-8.479 0z" transform="translate(28.73 31.342)" filter="url(#m)" fill="url(#a)"/>
   </g>
   <path d="m0 2.7947v-2.7947z" fill-opacity=".75688" transform="translate(26.78 106.43)" fill="#fff"/>
   <path opacity=".49505" d="m8 0v20l-2 10h-4l-1.9048-10v-20zm0 34v8h-8v-8z" transform="translate(48.8,35.6)" filter="url(#l)" stroke="url(#i)" stroke-width="4" fill="none"/>
   <path d="m8 0v20l-2 10h-4l-1.9048-10v-20zm0 34v8h-8v-8z" fill="#323232" transform="translate(48.8,35.6)"/>
  </g>
 </g>
</svg>
