<?xml version="1.0" encoding="UTF-8" standalone="no"?>
<svg
   xmlns:dc="http://purl.org/dc/elements/1.1/"
   xmlns:cc="http://creativecommons.org/ns#"
   xmlns:rdf="http://www.w3.org/1999/02/22-rdf-syntax-ns#"
   xmlns:svg="http://www.w3.org/2000/svg"
   xmlns="http://www.w3.org/2000/svg"
   xmlns:sodipodi="http://sodipodi.sourceforge.net/DTD/sodipodi-0.dtd"
   xmlns:inkscape="http://www.inkscape.org/namespaces/inkscape"
   version="1.1"
   x="0px"
   y="0px"
   width="480px"
   height="480px"
   viewBox="0 0 480 480"
   style="enable-background:new 0 0 480 480;"
   xml:space="preserve"
   id="svg2"
   inkscape:version="0.48.3.1 r9886"
   sodipodi:docname="reload.svg"><title
   id="title2987">reload</title><metadata
   id="metadata10"><rdf:RDF><cc:Work
       rdf:about=""><dc:format>image/svg+xml</dc:format><dc:type
         rdf:resource="http://purl.org/dc/dcmitype/StillImage" /><dc:title>reload</dc:title><dc:creator><cc:Agent><dc:title>Christian Reiner</dc:title></cc:Agent></dc:creator><dc:rights><cc:Agent><dc:title>Copyright 2012, Christian Reiner, Hamburg, Germany</dc:title></cc:Agent></dc:rights><dc:publisher><cc:Agent><dc:title>Christian Reiner</dc:title></cc:Agent></dc:publisher><dc:subject><rdf:Bag><rdf:li>reload</rdf:li><rdf:li>action</rdf:li></rdf:Bag></dc:subject><cc:license
         rdf:resource="http://creativecommons.org/licenses/by-nc-sa/3.0/" /></cc:Work><cc:License
       rdf:about="http://creativecommons.org/licenses/by-nc-sa/3.0/"><cc:permits
         rdf:resource="http://creativecommons.org/ns#Reproduction" /><cc:permits
         rdf:resource="http://creativecommons.org/ns#Distribution" /><cc:requires
         rdf:resource="http://creativecommons.org/ns#Notice" /><cc:requires
         rdf:resource="http://creativecommons.org/ns#Attribution" /><cc:prohibits
         rdf:resource="http://creativecommons.org/ns#CommercialUse" /><cc:permits
         rdf:resource="http://creativecommons.org/ns#DerivativeWorks" /><cc:requires
         rdf:resource="http://creativecommons.org/ns#ShareAlike" /></cc:License></rdf:RDF></metadata><defs
   id="defs8" /><sodipodi:namedview
   pagecolor="#ffffff"
   bordercolor="#666666"
   borderopacity="1"
   objecttolerance="10"
   gridtolerance="10"
   guidetolerance="10"
   inkscape:pageopacity="0"
   inkscape:pageshadow="2"
   inkscape:window-width="1920"
   inkscape:window-height="1114"
   id="namedview6"
   showgrid="false"
   inkscape:zoom="1.7084413"
   inkscape:cx="408.20804"
   inkscape:cy="238.23544"
   inkscape:window-x="-4"
   inkscape:window-y="-4"
   inkscape:window-maximized="1"
   inkscape:current-layer="svg2" />
  <path
   d="m 95.373258,244.03812 c 0,-81.47536 65.400722,-147.559647 146.037342,-147.559647 34.83632,0 66.6498,12.554987 91.6841,33.163217 l -57.41966,55.20967 181.45282,20.85221 1.4615,-196.7302841 -55.8565,53.7292581 C 359.98448,23.806659 303.56154,0.03033227 241.50682,0.03033227 108.12188,0.03033227 0,109.29396 0,244.04178 c 0,5.03008 0.43935911,-4.15686 0.75162288,0.81634 L 98.209103,258.7174 c -1.817341,-9.3337 -2.835845,-4.83195 -2.835845,-14.67928 z m 383.399322,-8.84022 -97.4593,-13.85929 c 1.8464,9.33002 2.82496,4.80076 2.82496,14.66094 0,81.47535 -65.37348,147.5468 -146.02282,147.5468 -34.73648,0 -66.45192,-12.47061 -91.47168,-32.9651 L 204.0053,295.4046 22.579702,274.55423 21.1055,471.29919 77.003758,417.52773 C 119.72492,456.30989 176.07706,480 238.0192,480 c 133.38312,0 241.50682,-109.25079 241.50682,-243.99678 0,-5.01906 -0.45388,4.16604 -0.75344,-0.80532 z"
   id="path4"
   inkscape:connector-curvature="0" />
</svg>