<?xml version="1.0" standalone="no"?>
<!DOCTYPE svg PUBLIC "-//W3C//DTD SVG 20010904//EN" "http://www.w3.org/TR/2001/REC-SVG-20010904/DTD/svg10.dtd">
<!-- Created using Karbon, part of Calligra: http://www.calligra.org/karbon -->
<svg xmlns="http://www.w3.org/2000/svg" xmlns:xlink="http://www.w3.org/1999/xlink" width="133.098pt" height="134.778pt">
<defs>
  <linearGradient id="gradient0" gradientTransform="matrix(0.935714 0 0 0.971429 -260.197 309.044)" gradientUnits="objectBoundingBox" x1="1.86063000000" y1="-2.28812000000" x2="1.88918000000" y2="-1.09199000000" spreadMethod="pad">
   <stop stop-color="#000000" offset="0.00000000000" stop-opacity="1.00000000000"/>
   <stop stop-color="#ffffff" offset="1.00000000000" stop-opacity="1.00000000000"/>
  </linearGradient>
 </defs>
<g id="layer1">
  <path id="path5051" transform="matrix(0.758527 0 0 0.768107 0.000553729 -0.0011661)" fill="#000000" d="M219.336 109.668C219.336 170.236 170.236 219.336 109.668 219.336C49.1001 219.336 0 170.236 0 109.668C0 49.1001 49.1001 0 109.668 0C170.236 0 219.336 49.1001 219.336 109.668Z"/>
  <path id="path5053" transform="matrix(0.709764 0 0 0.736855 5.3481 4.47704)" fill="#000000" d="M219.336 109.668C219.336 170.236 170.236 219.336 109.668 219.336C49.1001 219.336 0 170.236 0 109.668C0 49.1001 49.1001 0 109.668 0C170.236 0 219.336 49.1001 219.336 109.668Z"/>
  <path id="path5067" transform="translate(5.33866, 4.46647)" fill="url(#gradient0)" d="M77.9389 0C34.8975 0 0 36.3365 0 81.1334C0 83.9908 0.150296 86.7995 0.427193 89.58C38.4505 103.838 96.5598 114.225 155.878 81.514C155.879 81.3877 155.878 81.2613 155.878 81.1334C155.878 36.3365 120.98 0 77.9389 0Z"/>
  <g id="g4549" transform="translate(42.322, 7.02378)" fill="none">
   <g id="g4542" transform="translate(-3.5, 49.2276)" fill="none">
    <rect id="rect812" transform="translate(3.5, 3.5)" fill="none" stroke="#ffffff" stroke-width="7.00000000000" stroke-linecap="butt" stroke-linejoin="round" width="52.59049680000pt" height="52.21751680000pt" rx="2.07274704000pt" ry="2.07274704000pt"/>
    <path id="path842" transform="translate(10.9597, 16.8727)" fill="none" stroke="#ffffff" stroke-width="7.00000000000" stroke-linecap="round" stroke-linejoin="round" d="M0 0L49.8864 0"/>
    <path id="path845" transform="translate(10.9597, 29.7461)" fill="none" stroke="#ffffff" stroke-width="7.00000000000" stroke-linecap="round" stroke-linejoin="round" d="M0 0L49.8864 0"/>
    <path id="path846" transform="translate(10.9597, 42.6194)" fill="none" stroke="#ffffff" stroke-width="7.00000000000" stroke-linecap="round" stroke-linejoin="round" d="M0 0L49.8864 0"/>
    <path id="path848" transform="translate(10.8847, 55.4927)" fill="none" stroke="#ffffff" stroke-width="7.00000000000" stroke-linecap="round" stroke-linejoin="round" d="M0 0L27.6573 0"/>
   </g>
   <g id="g886" transform="translate(24.1672, 32.1333)" fill="none">
    <path id="path599" transform="matrix(1.22855 0 0 1.22855 1.9275 48.6283)" fill="#ffffff" stroke="#b3b3b3" stroke-width="3.13784003000" stroke-linecap="round" stroke-linejoin="round" d="M12.8969 4.43421C0 13.8177 0 13.8177 0 13.8177L7.94665 0Z"/>
    <rect id="rect598" transform="matrix(-0.911191 -0.824059 0.824059 -0.911191 17.7442 54.0244)" fill="#ffffff" stroke="#b3b3b3" stroke-width="3.13783836000" stroke-linecap="round" stroke-linejoin="round" width="5.23702200000pt" height="37.70656160000pt"/>
    <path id="path600" transform="matrix(-1.23373 -1.11576 1.11576 -1.23373 5.93495 62.6459)" fill="#ffffff" stroke="#b3b3b3" stroke-width="2.31749964000" stroke-linecap="butt" stroke-linejoin="round" d="M1.2406 0.620299C1.2406 0.962881 0.962882 1.2406 0.6203 1.2406C0.277718 1.2406 0 0.962881 0 0.620299C0 0.277717 0.277718 0 0.6203 0C0.962882 0 1.2406 0.277717 1.2406 0.620299Z"/>
    <rect id="rect601" transform="matrix(-0.911191 -0.824059 0.824059 -0.911191 56.8216 11.5345)" fill="#ffffff" stroke="#b3b3b3" stroke-width="3.13783836000" stroke-linecap="butt" stroke-linejoin="round" width="5.97020528000pt" height="3.24695360000pt" rx="1.64633232000pt" ry="1.62347680000pt"/>
   </g>
  </g>
 </g>
</svg>
