<?xml version="1.0" encoding="UTF-8" standalone="no"?>
<!-- Created using Karbon, part of Calligra: http://www.calligra.org/karbon -->

<svg
   xmlns:dc="http://purl.org/dc/elements/1.1/"
   xmlns:cc="http://creativecommons.org/ns#"
   xmlns:rdf="http://www.w3.org/1999/02/22-rdf-syntax-ns#"
   xmlns:svg="http://www.w3.org/2000/svg"
   xmlns="http://www.w3.org/2000/svg"
   xmlns:sodipodi="http://sodipodi.sourceforge.net/DTD/sodipodi-0.dtd"
   xmlns:inkscape="http://www.inkscape.org/namespaces/inkscape"
   width="133.098pt"
   height="134.778pt"
   id="svg3172"
   version="1.1"
   inkscape:version="0.48.3.1 r9886"
   sodipodi:docname="locked.svg">
  <title
     id="title3543">locked</title>
  <metadata
     id="metadata3192">
    <rdf:RDF>
      <cc:Work
         rdf:about="">
        <dc:format>image/svg+xml</dc:format>
        <dc:type
           rdf:resource="http://purl.org/dc/dcmitype/StillImage" />
        <cc:license
           rdf:resource="http://creativecommons.org/licenses/by-nc-sa/3.0/" />
        <dc:title>locked</dc:title>
        <dc:creator>
          <cc:Agent>
            <dc:title>Christian Reiner</dc:title>
          </cc:Agent>
        </dc:creator>
        <dc:rights>
          <cc:Agent>
            <dc:title>Copyright 2012, Christian Reiner, Hamburg, Germany</dc:title>
          </cc:Agent>
        </dc:rights>
        <dc:publisher>
          <cc:Agent>
            <dc:title>Christian Reiner</dc:title>
          </cc:Agent>
        </dc:publisher>
        <dc:subject>
          <rdf:Bag>
            <rdf:li>locked</rdf:li>
            <rdf:li>usage</rdf:li>
          </rdf:Bag>
        </dc:subject>
      </cc:Work>
      <cc:License
         rdf:about="http://creativecommons.org/licenses/by-nc-sa/3.0/">
        <cc:permits
           rdf:resource="http://creativecommons.org/ns#Reproduction" />
        <cc:permits
           rdf:resource="http://creativecommons.org/ns#Distribution" />
        <cc:requires
           rdf:resource="http://creativecommons.org/ns#Notice" />
        <cc:requires
           rdf:resource="http://creativecommons.org/ns#Attribution" />
        <cc:prohibits
           rdf:resource="http://creativecommons.org/ns#CommercialUse" />
        <cc:permits
           rdf:resource="http://creativecommons.org/ns#DerivativeWorks" />
        <cc:requires
           rdf:resource="http://creativecommons.org/ns#ShareAlike" />
      </cc:License>
    </rdf:RDF>
  </metadata>
  <sodipodi:namedview
     pagecolor="#ffffff"
     bordercolor="#666666"
     borderopacity="1"
     objecttolerance="10"
     gridtolerance="10"
     guidetolerance="10"
     inkscape:pageopacity="0"
     inkscape:pageshadow="2"
     inkscape:window-width="1920"
     inkscape:window-height="1114"
     id="namedview3190"
     showgrid="false"
     inkscape:zoom="1.4008221"
     inkscape:cx="-57.802385"
     inkscape:cy="84.236252"
     inkscape:window-x="-4"
     inkscape:window-y="-4"
     inkscape:window-maximized="1"
     inkscape:current-layer="svg3172" />
  <defs
     id="defs3174">
    <linearGradient
       id="gradient0"
       gradientTransform="matrix(0.935714 0 0 0.971429 -260.198 309.044)"
       gradientUnits="objectBoundingBox"
       x1="1.86062897958"
       y1="-2.28811738018"
       x2="1.88918016404"
       y2="-1.09199169808"
       spreadMethod="pad">
      <stop
         stop-color="#edf4fd"
         offset="0.00000000000"
         stop-opacity="0.52845044633"
         id="stop3177" />
      <stop
         stop-color="#175bb3"
         offset="1.00000000000"
         stop-opacity="0.00000000000"
         id="stop3179" />
    </linearGradient>
  </defs>
  <g
     id="layer1">
    <g
       id="g5393"
       transform="translate(-2.11465e-06, -2.863e-06)"
       fill="none">
      <path
         id="path4197"
         transform="matrix(0.758527 0 0 0.768105 2.64698e-22 0)"
         fill="#000000"
         d="M219.336 109.668C219.336 170.236 170.236 219.336 109.668 219.336C49.1001 219.336 0 170.236 0 109.668C0 49.1001 49.1001 0 109.668 0C170.236 0 219.336 49.1001 219.336 109.668Z" />
      <path
         id="path4199"
         transform="matrix(0.709764 0 0 0.736855 5.34768 4.47751)"
         fill="#000000"
         d="M219.336 109.668C219.336 170.236 170.236 219.336 109.668 219.336C49.1001 219.336 0 170.236 0 109.668C0 49.1001 49.1001 0 109.668 0C170.236 0 219.336 49.1001 219.336 109.668Z" />
      <g
         id="g4220"
         transform="translate(46.2074, 35.1119)"
         fill="none">
        <path
           id="rect4189"
           transform="matrix(0.758527 0 0 0.758527 10.0979 0)"
           fill="#eeeeee"
           d="M11.875 0C5.28309 0 0 5.3085 0 11.9062L0 37.0938L12.7188 37.0938L12.7188 22.9688C12.7188 16.371 18.0331 11.0625 24.625 11.0625L50.125 11.0625C56.7169 11.0625 62.0312 16.371 62.0312 22.9688L62.0312 37.0938L74.2188 37.0938L74.2188 11.9062C74.2188 5.3085 68.9044 0 62.3125 0Z" />
        <path
           id="rect4193"
           transform="matrix(0.758527 0 0 0.758527 0 32.6878)"
           fill="#eeeeee"
           d="M11.9062 0C5.31434 0 0 5.3085 0 11.9062L0 26.875C0 33.4728 5.31434 38.7812 11.9062 38.7812L87.8125 38.7812C93.6895 38.7812 98.5472 34.5601 99.5312 28.9687L87.9375 28.9687C81.3456 28.9687 76.0312 25.575 76.0312 21.3438C76.0312 17.1125 81.3456 13.6875 87.9375 13.6875L99.7188 13.6875L99.7188 11.9062C99.7188 5.3085 94.4044 0 87.8125 0Z" />
        <path
           id="path4218"
           transform="matrix(0.758527 0 0 0.758527 0 67.4477)"
           fill="#eeeeee"
           d="M11.9062 0C5.31434 0 0 5.3085 0 11.9062L0 26.875C0 33.4728 5.31434 38.7812 11.9062 38.7812L87.8125 38.7812C93.6895 38.7812 98.5472 34.5601 99.5312 28.9687L87.9375 28.9687C81.3456 28.9687 76.0312 25.575 76.0312 21.3438C76.0312 17.1125 81.3456 13.6875 87.9375 13.6875L99.7188 13.6875L99.7188 11.9062C99.7188 5.3085 94.4044 0 87.8125 0Z" />
      </g>
      <path
         id="path4201"
         transform="matrix(0.758527 0 0 0.758527 5.33866 4.46647)"
         fill="url(#gradient0)"
         d="M102.625 0C45.9507 0 0 47.725 0 106.562C0 110.315 0.1979 114.004 0.5625 117.656C50.6291 136.382 127.144 150.025 205.25 107.062C205.251 106.896 205.25 106.73 205.25 106.562C205.25 47.725 159.299 0 102.625 0Z" />
    </g>
  </g>
</svg>
