<?xml version="1.0" encoding="UTF-8" standalone="no"?>
<!-- Created using Karbon, part of Calligra: http://www.calligra.org/karbon -->

<svg
   xmlns:dc="http://purl.org/dc/elements/1.1/"
   xmlns:cc="http://creativecommons.org/ns#"
   xmlns:rdf="http://www.w3.org/1999/02/22-rdf-syntax-ns#"
   xmlns:svg="http://www.w3.org/2000/svg"
   xmlns="http://www.w3.org/2000/svg"
   xmlns:sodipodi="http://sodipodi.sourceforge.net/DTD/sodipodi-0.dtd"
   xmlns:inkscape="http://www.inkscape.org/namespaces/inkscape"
   width="133.098pt"
   height="134.778pt"
   id="svg3515"
   version="1.1"
   inkscape:version="0.48.3.1 r9886"
   sodipodi:docname="team.svg">
  <title
     id="title3535">team</title>
  <metadata
     id="metadata3533">
    <rdf:RDF>
      <cc:Work
         rdf:about="">
        <dc:format>image/svg+xml</dc:format>
        <dc:type
           rdf:resource="http://purl.org/dc/dcmitype/StillImage" />
        <dc:title>team</dc:title>
        <dc:rights>
          <cc:Agent>
            <dc:title>Copyright 2012, Christian Reiner, Hamburg, Germany</dc:title>
          </cc:Agent>
        </dc:rights>
        <dc:publisher>
          <cc:Agent>
            <dc:title>Christian Reiner</dc:title>
          </cc:Agent>
        </dc:publisher>
        <dc:creator>
          <cc:Agent>
            <dc:title>Christian Reiner</dc:title>
          </cc:Agent>
        </dc:creator>
        <dc:subject>
          <rdf:Bag>
            <rdf:li>team</rdf:li>
            <rdf:li>usage</rdf:li>
          </rdf:Bag>
        </dc:subject>
        <cc:license
           rdf:resource="http://creativecommons.org/licenses/by-nc-sa/3.0/" />
      </cc:Work>
      <cc:License
         rdf:about="http://creativecommons.org/licenses/by-nc-sa/3.0/">
        <cc:permits
           rdf:resource="http://creativecommons.org/ns#Reproduction" />
        <cc:permits
           rdf:resource="http://creativecommons.org/ns#Distribution" />
        <cc:requires
           rdf:resource="http://creativecommons.org/ns#Notice" />
        <cc:requires
           rdf:resource="http://creativecommons.org/ns#Attribution" />
        <cc:prohibits
           rdf:resource="http://creativecommons.org/ns#CommercialUse" />
        <cc:permits
           rdf:resource="http://creativecommons.org/ns#DerivativeWorks" />
        <cc:requires
           rdf:resource="http://creativecommons.org/ns#ShareAlike" />
      </cc:License>
    </rdf:RDF>
  </metadata>
  <sodipodi:namedview
     pagecolor="#ffffff"
     bordercolor="#666666"
     borderopacity="1"
     objecttolerance="10"
     gridtolerance="10"
     guidetolerance="10"
     inkscape:pageopacity="0"
     inkscape:pageshadow="2"
     inkscape:window-width="1920"
     inkscape:window-height="1114"
     id="namedview3531"
     showgrid="false"
     inkscape:zoom="1.4008221"
     inkscape:cx="-57.802385"
     inkscape:cy="84.236252"
     inkscape:window-x="-4"
     inkscape:window-y="-4"
     inkscape:window-maximized="1"
     inkscape:current-layer="svg3515" />
  <defs
     id="defs3517">
    <linearGradient
       id="gradient0"
       gradientTransform="matrix(0.935714 0 0 0.971429 -260.198 309.044)"
       gradientUnits="objectBoundingBox"
       x1="1.86062898865"
       y1="-2.28811738018"
       x2="1.88918017325"
       y2="-1.09199169808"
       spreadMethod="pad">
      <stop
         stop-color="#edf4fd"
         offset="0.00000000000"
         stop-opacity="0.52845044633"
         id="stop3520" />
      <stop
         stop-color="#175bb3"
         offset="1.00000000000"
         stop-opacity="0.00000000000"
         id="stop3522" />
    </linearGradient>
  </defs>
  <g
     id="layer1">
    <g
       id="g5258"
       transform="translate(-2.67397e-06, 5.0533e-06)"
       fill="none">
      <path
         id="path4049"
         transform="matrix(0.758527 0 0 0.768105 5.29396e-22 0)"
         fill="#000000"
         d="M219.336 109.668C219.336 170.236 170.236 219.336 109.668 219.336C49.1001 219.336 0 170.236 0 109.668C0 49.1001 49.1001 0 109.668 0C170.236 0 219.336 49.1001 219.336 109.668Z" />
      <path
         id="path4051"
         transform="matrix(0.709764 0 0 0.736855 5.34768 4.47748)"
         fill="#000000"
         d="M219.336 109.668C219.336 170.236 170.236 219.336 109.668 219.336C49.1001 219.336 0 170.236 0 109.668C0 49.1001 49.1001 0 109.668 0C170.236 0 219.336 49.1001 219.336 109.668Z" />
      <path
         id="path4066"
         transform="matrix(0.758527 0 0 0.758527 28.6825 27.5818)"
         fill="#eeeeee"
         d="M51.3117 0C34.1148 0 20.1891 15.2419 20.1891 34.0447C20.1891 44.7741 24.7371 54.3331 31.8306 60.5733C16.506 70.8805 4.63895 92.9893 0 120.395L55.1922 120.395C59.0298 99.7894 68.1076 83.2199 79.7599 75.3826C75.6622 71.7778 72.6402 66.7497 71.3435 60.9909C71.1645 60.8664 70.999 60.7224 70.8191 60.6012C70.9527 60.4838 71.0806 60.359 71.2124 60.2393C70.8546 58.4247 70.6355 56.5482 70.6355 54.6162C70.6355 44.9453 75.3345 36.4865 82.3819 31.8177C81.3314 14.0536 67.8239 0 51.3117 0Z" />
      <path
         id="path4076"
         transform="matrix(0.758527 0 0 0.758527 79.2535 53.036)"
         fill="#eeeeee"
         d="M40.1579 0C26.6991 0 15.8005 11.9287 15.8005 26.6442C15.8005 35.0414 19.3599 42.5225 24.9114 47.4063C12.918 55.4729 3.63055 72.7758 0 94.2243L80.3158 94.2243C76.6873 72.791 67.4064 55.5019 55.4248 47.428C60.9821 42.5445 64.5358 35.0463 64.5358 26.6442C64.5358 11.9287 53.6166 0 40.1579 0Z" />
      <path
         id="path4053"
         transform="matrix(0.758527 0 0 0.758527 5.33866 4.46644)"
         fill="url(#gradient0)"
         d="M102.625 0C45.9507 0 0 47.725 0 106.562C0 110.315 0.1979 114.004 0.5625 117.656C50.6291 136.382 127.144 150.025 205.25 107.062C205.251 106.896 205.25 106.73 205.25 106.562C205.25 47.725 159.299 0 102.625 0Z" />
    </g>
  </g>
</svg>
