<?xml version="1.0" encoding="UTF-8" standalone="no"?>
<!-- Created using Karbon, part of Calligra: http://www.calligra.org/karbon -->

<svg
   xmlns:dc="http://purl.org/dc/elements/1.1/"
   xmlns:cc="http://creativecommons.org/ns#"
   xmlns:rdf="http://www.w3.org/1999/02/22-rdf-syntax-ns#"
   xmlns:svg="http://www.w3.org/2000/svg"
   xmlns="http://www.w3.org/2000/svg"
   xmlns:sodipodi="http://sodipodi.sourceforge.net/DTD/sodipodi-0.dtd"
   xmlns:inkscape="http://www.inkscape.org/namespaces/inkscape"
   width="102.4pt"
   height="102.4pt"
   id="svg2984"
   version="1.1"
   inkscape:version="0.48.3.1 r9886"
   sodipodi:docname="bad.svg">
  <title
     id="title3407">bad</title>
  <metadata
     id="metadata3086">
    <rdf:RDF>
      <cc:Work
         rdf:about="">
        <dc:format>image/svg+xml</dc:format>
        <dc:type
           rdf:resource="http://purl.org/dc/dcmitype/StillImage" />
        <cc:license
           rdf:resource="http://creativecommons.org/licenses/by-nc-sa/3.0/" />
        <dc:title>bad</dc:title>
        <dc:creator>
          <cc:Agent>
            <dc:title>Chistian Reiner</dc:title>
          </cc:Agent>
        </dc:creator>
        <dc:rights>
          <cc:Agent>
            <dc:title>Copyright 2013, Chistian Reiner, Hamburg, Germany</dc:title>
          </cc:Agent>
        </dc:rights>
        <dc:publisher>
          <cc:Agent>
            <dc:title>Chistian Reiner</dc:title>
          </cc:Agent>
        </dc:publisher>
        <dc:subject>
          <rdf:Bag>
            <rdf:li>bad</rdf:li>
            <rdf:li>status</rdf:li>
          </rdf:Bag>
        </dc:subject>
      </cc:Work>
      <cc:License
         rdf:about="http://creativecommons.org/licenses/by-nc-sa/3.0/">
        <cc:permits
           rdf:resource="http://creativecommons.org/ns#Reproduction" />
        <cc:permits
           rdf:resource="http://creativecommons.org/ns#Distribution" />
        <cc:requires
           rdf:resource="http://creativecommons.org/ns#Notice" />
        <cc:requires
           rdf:resource="http://creativecommons.org/ns#Attribution" />
        <cc:prohibits
           rdf:resource="http://creativecommons.org/ns#CommercialUse" />
        <cc:permits
           rdf:resource="http://creativecommons.org/ns#DerivativeWorks" />
        <cc:requires
           rdf:resource="http://creativecommons.org/ns#ShareAlike" />
      </cc:License>
    </rdf:RDF>
  </metadata>
  <sodipodi:namedview
     pagecolor="#ffffff"
     bordercolor="#666666"
     borderopacity="1"
     objecttolerance="10"
     gridtolerance="10"
     guidetolerance="10"
     inkscape:pageopacity="0"
     inkscape:pageshadow="2"
     inkscape:window-width="1920"
     inkscape:window-height="1114"
     id="namedview3084"
     showgrid="false"
     inkscape:zoom="5.2149125"
     inkscape:cx="26.12784"
     inkscape:cy="64"
     inkscape:window-x="-4"
     inkscape:window-y="-4"
     inkscape:window-maximized="1"
     inkscape:current-layer="svg2984" />
  <defs
     id="defs2986">
    <filter
       id="filter0"
       filterUnits="objectBoundingBox"
       primitiveUnits="objectBoundingBox"
       x="-0.10000000000"
       y="-0.10000000000"
       width="1.20000000000"
       height="1.20000000000">
      <feGaussianBlur
         result=""
         in=""
         x="0.00000000000"
         y="0.00000000000"
         width="1.00000000000"
         height="1.00000000000"
         stdDeviation="0.0272727, 0.025"
         id="feGaussianBlur2989" />
    </filter>
    <filter
       id="filter1"
       filterUnits="objectBoundingBox"
       primitiveUnits="objectBoundingBox"
       x="-0.10000000000"
       y="-0.10000000000"
       width="1.20000000000"
       height="1.20000000000">
      <feGaussianBlur
         result=""
         in=""
         x="0.00000000000"
         y="0.00000000000"
         width="1.00000000000"
         height="1.00000000000"
         stdDeviation="0.0272727, 0.025"
         id="feGaussianBlur2992" />
    </filter>
    <radialGradient
       id="gradient0"
       gradientTransform="scale(0.95742711,1.0444659)"
       gradientUnits="userSpaceOnUse"
       cx="66.845821"
       cy="61.275337"
       fx="66.845821"
       fy="61.275337"
       r="31.053939"
       spreadMethod="pad">
      <stop
         stop-color="#eeeeee"
         offset="0.00000000000"
         stop-opacity="1.00000000000"
         id="stop2995" />
      <stop
         stop-color="#babdb6"
         offset="1.00000000000"
         stop-opacity="1.00000000000"
         id="stop2997" />
    </radialGradient>
    <filter
       id="filter2"
       filterUnits="objectBoundingBox"
       primitiveUnits="objectBoundingBox"
       x="-0.10000000000"
       y="-0.10000000000"
       width="1.20000000000"
       height="1.20000000000">
      <feGaussianBlur
         result=""
         in=""
         x="0.00000000000"
         y="0.00000000000"
         width="1.00000000000"
         height="1.00000000000"
         stdDeviation="0.0196023, 0.0179688"
         id="feGaussianBlur3000" />
    </filter>
    <clipPath
       id="clippath0"
       clipPathUnits="userSpaceOnUse">
      <path
         d="M36.25 1.47245C26.7775 10.9408 6.92707 19.3862 0 21.3116C0 51.0518 19.9547 96 44 96C67.9916 96 88 51.0518 88 21.3116C81.0729 19.3862 61.2225 10.9408 51.75 1.47245C49.0625 -0.491399 38.9376 -0.490231 36.25 1.47245Z"
         id="path3003" />
    </clipPath>
    <linearGradient
       id="gradient1"
       gradientTransform="scale(0.95742711,1.0444659)"
       gradientUnits="userSpaceOnUse"
       x1="104.31459"
       y1="71.9235"
       x2="61.979081"
       y2="61.279572"
       spreadMethod="pad">
      <stop
         stop-color="#000000"
         offset="0.00000000000"
         stop-opacity="1.00000000000"
         id="stop3006" />
      <stop
         stop-color="#000000"
         offset="1.00000000000"
         stop-opacity="0.00000000000"
         id="stop3008" />
    </linearGradient>
    <linearGradient
       id="gradient2"
       gradientTransform="scale(1.6566953,0.60361129)"
       gradientUnits="userSpaceOnUse"
       x1="39.31388"
       y1="15.859876"
       x2="39.31388"
       y2="100.30147"
       spreadMethod="pad">
      <stop
         stop-color="#ffffff"
         offset="0.00000000000"
         stop-opacity="1.00000000000"
         id="stop3011" />
      <stop
         stop-color="#ffffff"
         offset="1.00000000000"
         stop-opacity="0.00000000000"
         id="stop3013" />
    </linearGradient>
    <linearGradient
       id="gradient3"
       gradientTransform="scale(2.8610336,0.34952403)"
       gradientUnits="userSpaceOnUse"
       x1="22.764892"
       y1="27.389276"
       x2="22.764892"
       y2="173.21602"
       spreadMethod="pad">
      <stop
         stop-color="#ffffff"
         offset="0.00000000000"
         stop-opacity="1.00000000000"
         id="stop3016" />
      <stop
         stop-color="#ffffff"
         offset="1.00000000000"
         stop-opacity="0.00000000000"
         id="stop3018" />
    </linearGradient>
    <radialGradient
       id="gradient4"
       gradientTransform="scale(0.95742711,1.0444659)"
       gradientUnits="userSpaceOnUse"
       cx="66.845821"
       cy="61.275337"
       fx="66.845832"
       fy="48.409798"
       r="31.053939"
       spreadMethod="pad">
      <stop
         stop-color="#ffffff"
         offset="0.00000000000"
         stop-opacity="1.00000000000"
         id="stop3021" />
      <stop
         stop-color="#ffffff"
         offset="1.00000000000"
         stop-opacity="0.00000000000"
         id="stop3023" />
    </radialGradient>
    <radialGradient
       id="gradient5"
       gradientTransform="scale(0.95742683,1.0444662)"
       gradientUnits="userSpaceOnUse"
       cx="66.84584"
       cy="50.094775"
       fx="66.683098"
       fy="45.772988"
       r="25.407776"
       spreadMethod="pad">
      <stop
         stop-color="#ff0000"
         offset="0.00000000000"
         stop-opacity="1.00000000000"
         id="stop3026" />
      <stop
         stop-color="#590000"
         offset="1.00000000000"
         stop-opacity="1.00000000000"
         id="stop3028" />
    </radialGradient>
    <linearGradient
       id="gradient6"
       gradientTransform="scale(0.95742683,1.0444662)"
       gradientUnits="userSpaceOnUse"
       x1="66.84584"
       y1="23.67457"
       x2="66.84584"
       y2="81.381322"
       spreadMethod="pad">
      <stop
         stop-color="#000000"
         offset="0.00000000000"
         stop-opacity="1.00000000000"
         id="stop3031" />
      <stop
         stop-color="#000000"
         offset="1.00000000000"
         stop-opacity="0.00000000000"
         id="stop3033" />
    </linearGradient>
    <filter
       id="filter3"
       filterUnits="objectBoundingBox"
       primitiveUnits="objectBoundingBox"
       x="-0.12421242000"
       y="-0.11386138000"
       width="1.24842480000"
       height="1.22772280000">
      <feGaussianBlur
         result=""
         in=""
         x="0.00000000000"
         y="0.00000000000"
         width="1.00000000000"
         height="1.00000000000"
         stdDeviation="0.064694, 0.0593028"
         id="feGaussianBlur3036" />
    </filter>
    <clipPath
       id="clippath1"
       clipPathUnits="userSpaceOnUse">
      <path
         d="M29.6591 1.20473C21.9089 8.9516 5.66761 15.8614 0 17.4367C0 41.7697 16.3266 78.5455 36 78.5455C55.6295 78.5455 72 41.7697 72 17.4367C66.3324 15.8614 50.0911 8.9516 42.3409 1.20473C40.142 -0.402054 31.858 -0.401098 29.6591 1.20473Z"
         id="path3039" />
    </clipPath>
    <linearGradient
       id="gradient7"
       gradientTransform="scale(1.0853122,0.92139387)"
       gradientUnits="userSpaceOnUse"
       x1="61.01287"
       y1="121.49794"
       x2="61.01287"
       y2="38.036621"
       spreadMethod="pad">
      <stop
         stop-color="#ffffff"
         offset="0.00000000000"
         stop-opacity="1.00000000000"
         id="stop3042" />
      <stop
         stop-color="#ffffff"
         offset="1.00000000000"
         stop-opacity="0.00000000000"
         id="stop3044" />
    </linearGradient>
    <linearGradient
       id="gradient8"
       gradientTransform="scale(1.985945,0.50353861)"
       gradientUnits="userSpaceOnUse"
       x1="32.980583"
       y1="35.056497"
       x2="32.980583"
       y2="67.59273"
       spreadMethod="pad">
      <stop
         stop-color="#ffffff"
         offset="0.00000000000"
         stop-opacity="1.00000000000"
         id="stop3047" />
      <stop
         stop-color="#ffffff"
         offset="1.00000000000"
         stop-opacity="0.00000000000"
         id="stop3049" />
    </linearGradient>
    <radialGradient
       id="gradient9"
       gradientTransform="scale(0.95789918,1.0439512)"
       gradientUnits="userSpaceOnUse"
       cx="67.311928"
       cy="61.702328"
       fx="66.884676"
       fy="70.857116"
       r="17.182476"
       spreadMethod="pad">
      <stop
         stop-color="#ff3313"
         offset="0.00000000000"
         stop-opacity="1.00000000000"
         id="stop3052" />
      <stop
         stop-color="#ff0000"
         offset="1.00000000000"
         stop-opacity="0.00000000000"
         id="stop3054" />
    </radialGradient>
    <filter
       id="filter4"
       filterUnits="objectBoundingBox"
       primitiveUnits="objectBoundingBox"
       x="-0.18010801000"
       y="-0.16509901000"
       width="1.36021600000"
       height="1.33019800000">
      <feGaussianBlur
         result=""
         in=""
         x="0.00000000000"
         y="0.00000000000"
         width="1.00000000000"
         height="1.00000000000"
         stdDeviation="0.0938063, 0.0859891"
         id="feGaussianBlur3057" />
    </filter>
    <radialGradient
       id="gradient10"
       gradientUnits="userSpaceOnUse"
       cx="68.577413"
       cy="68.577413"
       fx="68.802021"
       fy="71.946527"
       r="18.257053"
       spreadMethod="pad">
      <stop
         stop-color="#590000"
         offset="0.00000000000"
         stop-opacity="1.00000000000"
         id="stop3060" />
      <stop
         stop-color="#590000"
         offset="1.00000000000"
         stop-opacity="0.00000000000"
         id="stop3062" />
    </radialGradient>
    <filter
       id="filter5"
       filterUnits="objectBoundingBox"
       primitiveUnits="objectBoundingBox"
       x="-0.10000000000"
       y="-0.10000000000"
       width="1.20000000000"
       height="1.20000000000">
      <feGaussianBlur
         result=""
         in=""
         x="0.00000000000"
         y="0.00000000000"
         width="1.00000000000"
         height="1.00000000000"
         stdDeviation="0.02734537516"
         id="feGaussianBlur3065" />
    </filter>
  </defs>
  <g
     id="layer1"
     transform="matrix(1.28,0,0,1.28,-17.92,-19.237645)">
    <path
       id="path3557"
       transform="matrix(0.737045,0,0,0.692708,31.57,45)"
       d="M 36.25,1.47245 C 26.7775,10.9408 6.92707,19.3862 0,21.3116 0,51.0518 19.9547,96 44,96 67.9916,96 88,51.0518 88,21.3116 81.0729,19.3862 61.2225,10.9408 51.75,1.47245 c -2.6875,-1.963849 -12.8124,-1.962681 -15.5,0 z"
       inkscape:connector-curvature="0"
       style="opacity:0.64356432;fill:#000000;fill-rule:evenodd;stroke:#000000;stroke-width:5.59806108;stroke-linecap:round;stroke-linejoin:round;filter:url(#filter0)" />
    <path
       id="path3170"
       transform="translate(20,17)"
       d="M 36.25,1.47245 C 26.7775,10.9408 6.92707,19.3862 0,21.3116 0,51.0518 19.9547,96 44,96 67.9916,96 88,51.0518 88,21.3116 81.0729,19.3862 61.2225,10.9408 51.75,1.47245 c -2.6875,-1.963849 -12.8124,-1.962681 -15.5,0 z"
       inkscape:connector-curvature="0"
       style="opacity:0.64356432;fill:#000000;fill-rule:evenodd;stroke:#000000;stroke-width:4;stroke-linecap:round;stroke-linejoin:round;filter:url(#filter1)" />
    <path
       id="path2160"
       transform="translate(20,16)"
       d="M 36.25,1.47245 C 26.7775,10.9408 6.92707,19.3862 0,21.3116 0,51.0518 19.9547,96 44,96 67.9916,96 88,51.0518 88,21.3116 81.0729,19.3862 61.2225,10.9408 51.75,1.47245 c -2.6875,-1.963849 -12.8124,-1.962681 -15.5,0 z"
       style="fill:url(#gradient0);fill-rule:evenodd"
       inkscape:connector-curvature="0" />
    <path
       id="path3525"
       transform="translate(20,16)"
       stroke-miterlimit="4.00000000000"
       clip-path="url(#clippath0)"
       d="M 36.25,1.47245 C 26.7775,10.9408 6.92707,19.3862 0,21.3116 0,51.0518 19.9547,96 44,96 67.9916,96 88,51.0518 88,21.3116 81.0729,19.3862 61.2225,10.9408 51.75,1.47245 c -2.6875,-1.963849 -12.8124,-1.962681 -15.5,0 z"
       inkscape:connector-curvature="0"
       style="opacity:0.35643562;fill:none;stroke:#000000;stroke-width:2;stroke-linecap:butt;stroke-linejoin:miter;stroke-miterlimit:4;filter:url(#filter2)" />
    <path
       id="path3192"
       transform="translate(20,16)"
       d="M 36.25,1.47245 C 26.7775,10.9408 6.92707,19.3862 0,21.3116 0,51.0518 19.9547,96 44,96 67.9916,96 88,51.0518 88,21.3116 81.0729,19.3862 61.2225,10.9408 51.75,1.47245 c -2.6875,-1.963849 -12.8124,-1.962681 -15.5,0 z"
       style="opacity:0.36138617;fill:url(#gradient1);fill-rule:evenodd"
       inkscape:connector-curvature="0" />
    <path
       id="path3157"
       transform="translate(20,16)"
       d="M 44,3.28195e-8 C 40.7969,1.46033e-4 37.5938,0.487412 36.25,1.46875 26.7775,10.9372 6.92707,19.3871 0,21.3125 0,21.5883 0.027829,21.8778 0.03125,22.1563 10.6389,28.2226 26.4038,32.0625 44,32.0625 c 17.5962,0 33.3611,-3.8399 43.9688,-9.9062 C 87.9722,21.8778 88,21.5883 88,21.3125 81.0729,19.3871 61.2225,10.9372 51.75,1.46875 50.4062,0.486827 47.2031,-1.45967e-4 44,3.28195e-8 z"
       style="opacity:0.95544553;fill:url(#gradient2);fill-rule:evenodd"
       inkscape:connector-curvature="0" />
    <path
       id="path3490"
       transform="translate(20,37.3118)"
       d="M 0,6.88981e-4 C 0,0.276531 0.027829,0.566028 0.03125,0.844439 10.6389,6.91075 26.4038,10.7507 44,10.7507 61.5962,10.7507 77.3611,6.91075 87.9688,0.844439 87.9722,0.566028 88,0.276531 88,6.88981e-4 c -0.0086,-0.002394001 -0.0226,0.002413999 -0.0312,0 C 87.9628,0.115964 87.9702,0.231168 87.9688,0.344439 77.3611,6.41075 61.5962,10.2507 44,10.2507 26.4038,10.2507 10.6389,6.41075 0.03125,0.344439 0.029858,0.231168 0.037204,0.115964 0.03125,6.88981e-4 0.022596,0.00310298 0.008614,-0.00170502 0,6.88981e-4 z"
       style="opacity:0.95544553;fill:url(#gradient3);fill-rule:evenodd"
       inkscape:connector-curvature="0" />
    <path
       id="path3547"
       transform="translate(20,16)"
       d="M 36.25,1.47245 C 26.7775,10.9408 6.92707,19.3862 0,21.3116 0,51.0518 19.9547,96 44,96 67.9916,96 88,51.0518 88,21.3116 81.0729,19.3862 61.2225,10.9408 51.75,1.47245 c -2.6875,-1.963849 -12.8124,-1.962681 -15.5,0 z"
       style="fill:url(#gradient4);fill-rule:evenodd"
       inkscape:connector-curvature="0" />
    <path
       id="path3145"
       transform="translate(28,24.7273)"
       d="M 29.6591,1.20473 C 21.9089,8.9516 5.66761,15.8614 0,17.4367 c 0,24.333 16.3266,61.1088 36,61.1088 19.6295,0 36,-36.7758 36,-61.1088 C 66.3324,15.8614 50.0911,8.9516 42.3409,1.20473 c -2.1989,-1.606784 -10.4829,-1.605828 -12.6818,0 z"
       style="fill:url(#gradient5);fill-rule:evenodd"
       inkscape:connector-curvature="0" />
    <path
       id="path3202"
       transform="translate(28,24.7273)"
       stroke-miterlimit="4.00000000000"
       clip-path="url(#clippath1)"
       d="M 29.6591,1.20473 C 21.9089,8.9516 5.66761,15.8614 0,17.4367 c 0,24.333 16.3266,61.1088 36,61.1088 19.6295,0 36,-36.7758 36,-61.1088 C 66.3324,15.8614 50.0911,8.9516 42.3409,1.20473 c -2.1989,-1.606784 -10.4829,-1.605828 -12.6818,0 z"
       style="opacity:0.51980196;fill:none;stroke:url(#gradient6);stroke-width:6;stroke-linecap:butt;stroke-linejoin:miter;stroke-miterlimit:4;filter:url(#filter3)"
       inkscape:connector-curvature="0" />
    <path
       id="path3306"
       transform="translate(28,42.1556)"
       d="M 0,6.21327e-4 C 0,24.3336 16.3266,61.1256 36,61.1256 c 19.6295,0 36,-36.792 36,-61.124978673 -0.0078,-0.002159997 -0.0234,0.002181003 -0.0312,0 C 71.3239,24.3147 55.2317,60.1256 36,60.1256 16.7253,60.1256 0.674393,24.3147 0.03125,6.21327e-4 0.023437,0.00280233 0.007773,-0.00153867 0,6.21327e-4 z"
       style="fill:url(#gradient7);fill-rule:evenodd"
       inkscape:connector-curvature="0" />
    <path
       id="path3323"
       transform="translate(20,16)"
       d="M 44,3.28195e-8 C 40.7969,1.46033e-4 37.5938,0.487412 36.25,1.46875 26.7775,10.9372 6.92707,19.3871 0,21.3125 c 0,0.3269 0.02645,0.6695 0.03125,1 C 6.98177,20.3733 26.7893,11.9254 36.25,2.46875 c 2.6876,-1.962677 12.8125,-1.963845 15.5,0 C 61.2107,11.9254 81.0182,20.3733 87.9688,22.3125 87.9736,21.982 88,21.6394 88,21.3125 81.0729,19.3871 61.2225,10.9372 51.75,1.46875 50.4062,0.486827 47.2031,-1.45967e-4 44,3.28195e-8 z"
       style="opacity:0.88613862;fill:url(#gradient8);fill-rule:evenodd"
       inkscape:connector-curvature="0" />
    <path
       id="path3340"
       transform="translate(39.9305,37.7424)"
       d="M 19.83,0.805479 C 14.6482,5.98502 3.78935,10.6049 0,11.6582 0,27.9271 10.9159,52.5153 24.0695,52.5153 37.1938,52.5153 48.139,27.9271 48.139,11.6582 44.3497,10.6049 33.4908,5.98502 28.309,0.805479 c -1.4701,-1.074291 -7.0088,-1.073652 -8.479,0 z"
       style="fill:url(#gradient9);fill-rule:evenodd;filter:url(#filter4)"
       inkscape:connector-curvature="0" />
    <path
       id="path2276"
       transform="translate(37.9801,112.834)"
       d="M 0,2.79471 0,0 z"
       inkscape:connector-curvature="0"
       style="fill:#ffffff;fill-opacity:0.756878" />
    <path
       id="path3623"
       transform="matrix(0.904847,0,0,0.904847,44.71,44.71)"
       d="M 0,7.10618 14.4586,21.5648 0,35.5309 7.10618,42.6371 21.3186,28.4247 35.5309,42.6371 42.6371,35.5309 28.4247,21.3186 42.6371,7.10618 35.7772,0.246236 21.5648,14.4586 7.10618,0 z"
       style="fill:none;stroke:url(#gradient10);stroke-width:4.42063713;stroke-linecap:round;stroke-linejoin:round;filter:url(#filter5)"
       inkscape:connector-curvature="0" />
    <path
       id="rect3232"
       transform="translate(44.71,44.71)"
       d="M 0,6.43001 13.0828,19.5128 0,32.15 6.43001,38.58 19.29,25.72 32.15,38.58 38.58,32.15 25.72,19.29 38.58,6.43001 32.3728,0.222806 19.5128,13.0828 6.43001,0 z"
       inkscape:connector-curvature="0"
       style="fill:#ffffff;fill-rule:evenodd" />
  </g>
</svg>
