<?xml version="1.0" encoding="UTF-8" standalone="no"?>
<svg xmlns:rdf="http://www.w3.org/1999/02/22-rdf-syntax-ns#" xmlns="http://www.w3.org/2000/svg" height="64" width="64" version="1.1" xmlns:cc="http://creativecommons.org/ns#" xmlns:xlink="http://www.w3.org/1999/xlink" xmlns:dc="http://purl.org/dc/elements/1.1/">
 <title>_</title>
 <defs>
  <radialGradient id="a" gradientUnits="userSpaceOnUse" cy="21.222" cx="31.998" gradientTransform="matrix(.93444 0 0 .48806 2.0978 4.2611)" r="29.944">
   <stop stop-color="#eef4fd" stop-opacity=".52845" offset="0"/>
   <stop stop-color="#175bb3" stop-opacity="0" offset="1"/>
  </radialGradient>
 </defs>
 <path d="m63.998 32.002c0 17.672-14.326 31.999-31.999 31.999s-31.999-14.327-31.999-31.999c-0.0000059448-17.673 14.326-31.999 31.999-31.999s31.999 14.326 31.999 31.999z"/>
 <path d="m61.941 32.401c0 16.953-13.405 30.697-29.942 30.697-16.536 0-29.942-13.743-29.942-30.697 0-16.953 13.406-30.697 29.942-30.697 16.537 0 29.942 13.744 29.942 30.697z"/>
 <path d="m31.998 0.0041785c-15.452 0-27.981 10.294-27.981 22.986 0 0.80954 0.05395 1.6053 0.15337 2.393 13.651 4.0393 34.513 6.9821 55.809-2.2852 0.000273-0.0358 0-0.07161 0-0.10785 0-12.691-12.529-22.986-27.981-22.986z" fill="url(#a)"/>
 <g fill="#eee" transform="matrix(.36142 0 0 .31081 16 15.989)">
  <path d="m160.24 0.00622c-4.13 0.10365-8.13 1.4425-11.5 3.8438l-140.06 99.78c-6.0158 4.29-9.2885 11.46-8.586 18.81 0.70248 7.36 5.2736 13.78 11.992 16.85l156.44 71.407c6.722 3.072 14.573 2.324 20.594-1.963s9.297-11.461 8.593-18.819l-16.38-171.2c-1.03-10.804-10.24-18.978-21.1-18.714z" transform="matrix(-.16837 -.43842 .36134 -.20215 27.838 126.43)"/>
  <rect transform="matrix(.62445 0 0 .61058 81.371 26.817)" rx="10.183" ry="19.505" height="78.334" width="20.367" y="0" x="0"/>
 </g>
</svg>
