<?xml version="1.0" encoding="UTF-8" standalone="no"?>
<svg xmlns:rdf="http://www.w3.org/1999/02/22-rdf-syntax-ns#" xmlns="http://www.w3.org/2000/svg" height="64" width="64" version="1.1" xmlns:cc="http://creativecommons.org/ns#" xmlns:xlink="http://www.w3.org/1999/xlink" xmlns:dc="http://purl.org/dc/elements/1.1/">
 <title>_</title>
 <defs>
  <radialGradient id="a" gradientUnits="userSpaceOnUse" cy="21.222" cx="31.998" gradientTransform="matrix(.93444 0 0 .48806 2.0978 4.2611)" r="29.944">
   <stop stop-color="#eef4fd" stop-opacity=".52845" offset="0"/>
   <stop stop-color="#175bb3" stop-opacity="0" offset="1"/>
  </radialGradient>
 </defs>
 <path d="m63.998 32.002c0 17.672-14.326 31.999-31.999 31.999s-31.999-14.327-31.999-31.999c-0.0000059448-17.673 14.326-31.999 31.999-31.999s31.999 14.326 31.999 31.999z"/>
 <path d="m61.941 32.401c0 16.953-13.405 30.697-29.942 30.697-16.536 0-29.942-13.743-29.942-30.697 0-16.953 13.406-30.697 29.942-30.697 16.537 0 29.942 13.744 29.942 30.697z"/>
 <path d="m31.998 0.0041785c-15.452 0-27.981 10.294-27.981 22.986 0 0.80954 0.05395 1.6053 0.15337 2.393 13.651 4.0393 34.513 6.9821 55.809-2.2852 0.000273-0.0358 0-0.07161 0-0.10785 0-12.691-12.529-22.986-27.981-22.986z" fill="url(#a)"/>
 <g stroke-linejoin="round" stroke="#fff" fill="none" stroke-width="7" transform="matrix(.42924 0 0 .40977 11.526 20.695)">
  <rect transform="translate(13.922 -7.7033)" rx="2.6617" ry="3.0024" height="75.637" width="67.533" y="0" x="0"/>
  <g stroke-linecap="round">
   <path d="m0 0h51.249" transform="translate(21.585 7.793)"/>
   <path d="m0 0h51.249" transform="translate(21.585 22.711)"/>
   <path d="m0 0h51.249" transform="translate(21.585 37.628)"/>
   <path d="m0 0h28.412" transform="translate(21.508 52.546)"/>
  </g>
 </g>
 <g stroke-linejoin="round" stroke="#b3b3b3" fill="#fff" transform="translate(-47.561 -2.1416)">
  <path d="m76.146 37.248l-7.2104 5.4819 4.4428-8.0723z" stroke-linecap="round" stroke-width="1.3139"/>
  <rect transform="matrix(-.70003 -.71412 .62553 -.78020 0 0)" height="26.138" width="3.587" stroke-linecap="round" y="28.322" x="-83.169" stroke-width="1.5825"/>
  <path d="m70.615 40.376c0.1597-0.19918 0.4323-0.21462 0.60888-0.03449 0.17658 0.18014 0.19027 0.48763 0.03057 0.68682-0.15969 0.19918-0.4323 0.21462-0.60888 0.03448-0.17658-0.18013-0.19027-0.48763-0.03057-0.68681z" stroke-width=".94963"/>
  <rect transform="matrix(-.66637 -.74562 .59012 -.80732 0 0)" rx="1.0206" ry="1.0278" height="2.0557" width="3.7012" y="57.725" x="-86.366" stroke-width="1.4388"/>
 </g>
</svg>
