<?xml version="1.0" encoding="UTF-8" standalone="no"?>
<svg xmlns:rdf="http://www.w3.org/1999/02/22-rdf-syntax-ns#" xmlns="http://www.w3.org/2000/svg" height="64" width="64" version="1.1" xmlns:cc="http://creativecommons.org/ns#" xmlns:xlink="http://www.w3.org/1999/xlink" xmlns:dc="http://purl.org/dc/elements/1.1/">
 <title>_</title>
 <defs>
  <radialGradient id="a" gradientUnits="userSpaceOnUse" cy="21.222" cx="31.998" gradientTransform="matrix(.93444 0 0 .48806 2.0978 4.2611)" r="29.944">
   <stop stop-color="#eef4fd" stop-opacity=".52845" offset="0"/>
   <stop stop-color="#175bb3" stop-opacity="0" offset="1"/>
  </radialGradient>
 </defs>
 <path d="m63.998 32.002c0 17.672-14.326 31.999-31.999 31.999s-31.999-14.327-31.999-31.999c-0.0000059448-17.673 14.326-31.999 31.999-31.999s31.999 14.326 31.999 31.999z"/>
 <path d="m61.941 32.401c0 16.953-13.405 30.697-29.942 30.697-16.536 0-29.942-13.743-29.942-30.697 0-16.953 13.406-30.697 29.942-30.697 16.537 0 29.942 13.744 29.942 30.697z"/>
 <path d="m31.998 0.0041785c-15.452 0-27.981 10.294-27.981 22.986 0 0.80954 0.05395 1.6053 0.15337 2.393 13.651 4.0393 34.513 6.9821 55.809-2.2852 0.000273-0.0358 0-0.07161 0-0.10785 0-12.691-12.529-22.986-27.981-22.986z" fill="url(#a)"/>
 <g fill="none" transform="matrix(.33436 0 0 .36827 15.249 15.294)">
  <path d="m80.773 37.044 1.7055-7.5725h18.01l-10.369 48.914c-0.6368 3.0927-0.9552 5.1393-0.9551 6.1398-0.0001 1.0461 0.25 1.8647 0.7504 2.4559 0.5457 0.5913 1.1824 0.8869 1.9102 0.8869 2.4558 0 5.6167-1.5918 9.4825-4.7754 3.911-3.2291 7.3-7.5952 10.165-13.098 2.91-5.5486 4.366-11.597 4.366-18.147 0-5.4576-1.046-10.597-3.138-15.418-2.047-4.8208-5.026-9.005-8.937-12.552-3.9114-3.5474-8.755-6.3217-14.531-8.3229-5.7306-2.001-12.234-3.0016-19.511-3.0017-7.4133 0.0001-14.213 0.9779-20.398 2.9335-6.1854 1.9102-11.62 4.6845-16.305 8.3229-4.6845 3.593-8.5958 8.05-11.734 13.371-2.7743 4.6391-4.8891 9.7783-6.3445 15.418-1.4553 5.6396-2.183 11.393-2.183 17.26 0 7.8227 1.5463 14.986 4.639 21.489 3.1381 6.4582 7.6634 11.87 13.576 16.236 5.9579 4.412 13.144 7.527 21.558 9.347 8.4138 1.864 17.919 2.251 28.516 1.159 8.4137-1 15.531-2.91 21.353-5.73 5.866-2.82 10.824-6.777 14.872-11.871h14.531c-2.366 4.867-5.458 9.21-9.278 13.031-3.775 3.82-8.21 7.026-13.303 9.619-5.094 2.637-10.802 4.639-17.124 6.003-6.3219 1.364-13.212 2.047-20.671 2.047-11.188 0-21.262-1.479-30.222-4.435-8.9596-2.91-16.509-7.14-22.649-12.689-6.088-5.51-10.705-12.08-13.843-19.721-3.1379-7.687-4.707-16.169-4.707-25.447-0.00001-9.687 1.6145-18.737 4.8436-27.151s7.8684-15.713 13.917-21.899c6.094-6.231 13.507-11.097 22.239-14.599 8.778-3.5019 18.442-5.2529 28.994-5.253 8.6412 0.0001 16.555 1.2736 23.741 3.8203 7.2313 2.5015 13.416 6.1172 18.556 10.847 5.139 4.73 9.05 10.347 11.733 16.85 2.729 6.4582 4.093 13.599 4.094 21.421-0.001 6.0944-1.092 12.075-3.275 17.942-2.183 5.8214-5.321 11.074-9.414 15.759-4.048 4.639-8.824 8.3229-14.327 11.052-5.5028 2.6836-11.438 4.0246-17.805 4.0246-3.684 0-6.5493-0.614-8.5958-1.8415-2.0467-1.2735-3.4111-3.2746-4.0932-6.0034-3.9569 3.9113-8.5049 6.3899-13.644 7.4359-5.1393 1.001-10.119 0.523-14.94-1.4325-4.821-2.0012-8.7322-5.344-11.734-10.028-2.9562-4.6845-4.4343-10.46-4.4343-17.328 0-7.1403 1.5235-14.167 4.5707-21.08 3.0927-6.913 7.4587-12.575 13.098-16.987 5.685-4.4115 12.098-6.6173 19.238-6.6173 8.1863 0 14.19 3.0699 18.01 9.2097m-37.317 35.334c0 5.4576 1.137 9.6418 3.411 12.552 2.274 2.9108 5.2529 4.3661 8.9369 4.3661 4.2751 0 8.0272-1.7055 11.256-5.1165 3.2745-3.411 5.7532-7.7089 7.436-12.894 1.6827-5.2302 2.5241-10.278 2.5242-15.145-0.0001-2.4104-0.2957-4.5707-0.8869-6.481-0.5458-1.9555-1.3872-3.6611-2.5241-5.1165-1.0916-1.4553-2.4333-2.5468-4.025-3.2745-1.5464-0.7731-3.3201-1.1597-5.3212-1.1598-4.0023 0.0001-7.618 1.5691-10.847 4.7072-3.1837 3.0927-5.6396 7.1404-7.3678 12.143-1.7283 4.9574-2.5924 10.097-2.5924 15.418" fill="#eee" transform="scale(.79421 .72444)"/>
 </g>
</svg>
