<?xml version="1.0" encoding="UTF-8" standalone="no"?>
<svg xmlns:rdf="http://www.w3.org/1999/02/22-rdf-syntax-ns#" xmlns="http://www.w3.org/2000/svg" height="64" width="64" version="1.1" xmlns:cc="http://creativecommons.org/ns#" xmlns:xlink="http://www.w3.org/1999/xlink" xmlns:dc="http://purl.org/dc/elements/1.1/">
 <title>_</title>
 <defs>
  <radialGradient id="a" gradientUnits="userSpaceOnUse" cy="21.222" cx="31.998" gradientTransform="matrix(.93444 0 0 .48806 2.0978 4.2611)" r="29.944">
   <stop stop-color="#eef4fd" stop-opacity=".52845" offset="0"/>
   <stop stop-color="#175bb3" stop-opacity="0" offset="1"/>
  </radialGradient>
 </defs>
 <path d="m63.998 32.002c0 17.672-14.326 31.999-31.999 31.999s-31.999-14.327-31.999-31.999c-0.0000059448-17.673 14.326-31.999 31.999-31.999s31.999 14.326 31.999 31.999z"/>
 <path d="m61.941 32.401c0 16.953-13.405 30.697-29.942 30.697-16.536 0-29.942-13.743-29.942-30.697 0-16.953 13.406-30.697 29.942-30.697 16.537 0 29.942 13.744 29.942 30.697z"/>
 <path d="m31.998 0.0041785c-15.452 0-27.981 10.294-27.981 22.986 0 0.80954 0.05395 1.6053 0.15337 2.393 13.651 4.0393 34.513 6.9821 55.809-2.2852 0.000273-0.0358 0-0.07161 0-0.10785 0-12.691-12.529-22.986-27.981-22.986z" fill="url(#a)"/>
 <path fill="#eee" d="m32.885 14.023c-4.8028-0.23588-9.4094 1.4114-12.97 4.6398-3.5654 3.2316-5.6562 7.6546-5.8919 12.454-0.23589 4.8029 1.4114 9.4095 4.6432 12.972 3.2266 3.5618 7.6496 5.6525 12.452 5.8885 9.9162 0.4869 18.373-7.1814 18.86-17.094 0.4869-9.9127-7.1779-18.373-17.094-18.86zm14.225 18.719c-0.08248 1.6804-0.44144 3.2819-1.0214 4.7642-1.2074-0.1572-2.3991-0.35669-3.5746-0.60178 1.206-2.9281 1.6179-6.1375 1.161-9.3604-0.43558-3.0654-1.6296-5.845-3.3579-8.1712 4.3153 2.8503 7.0645 7.8393 6.7929 13.369zm-11.545-12.609c-2.9582 3.3972-5.483 7.1732-7.4865 11.255-1.6947-0.98216-3.326-2.0626-4.8878-3.2308 1.274-2.4211 3.1839-4.4569 5.5855-5.8997 2.1343-1.2857 4.4611-1.9741 6.7889-2.1245zm-8.681 13.881c-1.2777 3.0225-2.2793 6.1961-2.9652 9.4884-0.10558-0.1598-0.20928-0.32311-0.30777-0.48783-2.0833-3.4626-2.6913-7.5317-1.7169-11.447 0.05407-0.22594 0.11793-0.44111 0.18227-0.66654 1.5416 1.1242 3.1458 2.1638 4.8076 3.1134zm1.0993 11.039c-0.4899 0.07054-0.97827 0.11013-1.4641 0.13262 0.6283-3.4137 1.6093-6.695 2.9071-9.811 2.7933 1.3954 5.7275 2.5467 8.7816 3.4256-0.08458 0.11598-0.16988 0.24087-0.25821 0.36014-2.4293 3.2309-5.9662 5.3207-9.9664 5.8927zm2.627-12.296c2.0166-4.1379 4.5995-7.942 7.6467-11.331 1.3187 1.885 2.2278 4.0902 2.5727 6.5187 0.40606 2.8629-0.0037 5.7097-1.1544 8.283-3.1619-0.85659-6.1949-2.0265-9.0649-3.4703zm-8.7663-11.962c2.9936-2.7166 6.8636-4.1009 10.9-3.9027 0.91222 0.0448 1.803 0.17622 2.663 0.37314-2.7828 0.17616-5.5629 0.99528-8.1116 2.5288-2.6975 1.6224-4.8741 3.8738-6.3819 6.5412-0.69972-0.59126-1.3832-1.1989-2.0518-1.8299 0.78239-1.371 1.7806-2.6231 2.9822-3.7106zm-4.9502 10.463c0.06746-1.3735 0.3203-2.7069 0.73857-3.9789 0.66305 0.60323 1.3407 1.1899 2.0345 1.762-0.21655 0.59437-0.4047 1.2056-0.56267 1.8321-0.77107 3.1007-0.70361 6.277 0.15317 9.2704-1.686-2.6285-2.5198-5.7049-2.3636-8.8857zm14.761 15.859c3.4047-1.1493 6.3873-3.2923 8.5926-6.2315 0.32358-0.43113 0.62725-0.87492 0.90936-1.3321 1.168 0.25844 2.3466 0.47776 3.5425 0.66029-2.7742 4.2708-7.628 7.0319-13.045 6.9033z"/>
</svg>
