<?xml version="1.0" encoding="UTF-8" standalone="no"?>
<svg xmlns:rdf="http://www.w3.org/1999/02/22-rdf-syntax-ns#" xmlns="http://www.w3.org/2000/svg" height="64" width="64" version="1.1" xmlns:cc="http://creativecommons.org/ns#" xmlns:xlink="http://www.w3.org/1999/xlink" xmlns:dc="http://purl.org/dc/elements/1.1/">
 <title>_</title>
 <defs>
  <radialGradient id="a" gradientUnits="userSpaceOnUse" cy="21.222" cx="31.998" gradientTransform="matrix(.93444 0 0 .48806 2.0978 4.2611)" r="29.944">
   <stop stop-color="#eef4fd" stop-opacity=".52845" offset="0"/>
   <stop stop-color="#175bb3" stop-opacity="0" offset="1"/>
  </radialGradient>
 </defs>
 <path d="m63.998 32.002c0 17.672-14.326 31.999-31.999 31.999s-31.999-14.327-31.999-31.999c-0.0000059448-17.673 14.326-31.999 31.999-31.999s31.999 14.326 31.999 31.999z"/>
 <path d="m61.941 32.401c0 16.953-13.405 30.697-29.942 30.697-16.536 0-29.942-13.743-29.942-30.697 0-16.953 13.406-30.697 29.942-30.697 16.537 0 29.942 13.744 29.942 30.697z"/>
 <path d="m31.998 0.0041785c-15.452 0-27.981 10.294-27.981 22.986 0 0.80954 0.05395 1.6053 0.15337 2.393 13.651 4.0393 34.513 6.9821 55.809-2.2852 0.000273-0.0358 0-0.07161 0-0.10785 0-12.691-12.529-22.986-27.981-22.986z" fill="url(#a)"/>
 <g fill="#eee" transform="matrix(.33033 0 0 .32922 14 14)">
  <path d="m83.973 0.014622c-2.191 0.082323-4.338 0.4968-6.312 1.2188-2.939 1.0691-5.388 2.7777-7.031 4.9062l-68.407 88.781c-2.3645 3.066-2.8696 6.749-1.3864 10.119s4.8114 6.09 9.1367 7.48l61.438-79.724c1.6371-2.1401 4.0864-3.8601 7.0312-4.9375 7.7398-2.8224 17.051-0.6379 21.312 5l60.246 79.532c3.9-1.572 6.791-4.27 8.016-7.478 1.224-3.208 0.677-6.6548-1.516-9.5536l-67.527-89.125c-3.0512-4.041-8.8488-6.4445-15-6.2187z" transform="scale(.64617)"/>
  <path d="m52.656 0.0085853c-1.343 0.045127-2.66 0.30015-3.875 0.74999-1.816 0.67842-3.329 1.7671-4.343 3.125l-42.032 56.406c-0.14524 0.1831-0.28077 0.3708-0.40625 0.5625-0.01 0.0143 0.01 0.0481 0 0.0625-0.03154 0.0311-0.06277 0.0623-0.0937 0.0937-1.2271 1.874-1.906 4.113-1.906 6.531v49.031c0 6.598 5.2831 11.906 11.875 11.906h24.562v-42.906c0-6.5977 5.2831-11.906 11.875-11.906h9.125c6.5919 0 11.875 5.3085 11.875 11.906v42.906h24.531c6.5923 0 11.906-5.308 11.906-11.906v-49.031c0-3.1165-1.212-5.913-3.156-8.0313l-40.746-55.562c-1.875-2.5542-5.422-4.0744-9.188-3.9375z" transform="matrix(.64617 0 0 .64617 20.025 26.33)"/>
  <rect transform="matrix(.64617 0 0 .64617 21.536 9.6403)" rx="11.358" ry="18.431" height="39.167" width="22.717" y="0" x="0"/>
 </g>
</svg>
