<?xml version="1.0" encoding="UTF-8" standalone="no"?>
<svg xmlns:rdf="http://www.w3.org/1999/02/22-rdf-syntax-ns#" xmlns="http://www.w3.org/2000/svg" height="64" width="64" version="1.1" xmlns:cc="http://creativecommons.org/ns#" xmlns:xlink="http://www.w3.org/1999/xlink" xmlns:dc="http://purl.org/dc/elements/1.1/">
 <title>_</title>
 <defs>
  <radialGradient id="a" gradientUnits="userSpaceOnUse" cy="21.222" cx="31.998" gradientTransform="matrix(.93444 0 0 .48806 2.0978 4.2611)" r="29.944">
   <stop stop-color="#eef4fd" stop-opacity=".52845" offset="0"/>
   <stop stop-color="#175bb3" stop-opacity="0" offset="1"/>
  </radialGradient>
 </defs>
 <path d="m63.998 32.002c0 17.672-14.326 31.999-31.999 31.999s-31.999-14.327-31.999-31.999c-0.0000059448-17.673 14.326-31.999 31.999-31.999s31.999 14.326 31.999 31.999z"/>
 <path d="m61.941 32.401c0 16.953-13.405 30.697-29.942 30.697-16.536 0-29.942-13.743-29.942-30.697 0-16.953 13.406-30.697 29.942-30.697 16.537 0 29.942 13.744 29.942 30.697z"/>
 <path d="m31.998 0.0041785c-15.452 0-27.981 10.294-27.981 22.986 0 0.80954 0.05395 1.6053 0.15337 2.393 13.651 4.0393 34.513 6.9821 55.809-2.2852 0.000273-0.0358 0-0.07161 0-0.10785 0-12.691-12.529-22.986-27.981-22.986z" fill="url(#a)"/>
 <g fill="none" transform="matrix(.33686 0 0 .35273 27 12)">
  <path d="m19.195 38.602v55.476c0 3.8438-0.9141 6.7499-2.7422 8.7189s-4.1484 2.953-6.9609 2.953-5.1094-1.008-6.8906-3.023c-1.7338-2.02-2.601-4.902-2.601-8.652v-54.914c-0.0000099999-3.7968 0.86717-6.6562 2.6016-8.5782 1.7812-1.9218 4.0781-2.8827 6.8906-2.8828 2.8125 0.0001 5.1328 0.961 6.9609 2.8828 1.8281 1.922 2.7422 4.5939 2.7422 8.0157m-9.4919-19.829c-2.6719 0.001-4.9687-0.82-6.8906-2.461-1.875-1.64-2.8125-3.96-2.8125-6.9604-0.0000099999-2.7187 0.96092-4.9453 2.8828-6.6797 1.9687-1.7812 4.2422-2.6718 6.8203-2.6719 2.4844 0.0001 4.6875 0.79697 6.6094 2.3906 1.9218 1.5938 2.8828 3.9142 2.8828 6.9609 0 2.9532-0.9375 5.2735-2.8125 6.9609-1.875 1.6407-4.1016 2.461-6.6797 2.4609" fill="#eee" transform="scale(1.5465 .96513)"/>
 </g>
</svg>
