<?xml version="1.0" encoding="UTF-8" standalone="no"?>
<svg xmlns:rdf="http://www.w3.org/1999/02/22-rdf-syntax-ns#" xmlns="http://www.w3.org/2000/svg" height="64" width="64" version="1.1" xmlns:cc="http://creativecommons.org/ns#" xmlns:xlink="http://www.w3.org/1999/xlink" xmlns:dc="http://purl.org/dc/elements/1.1/">
 <title>_</title>
 <defs>
  <radialGradient id="a" gradientUnits="userSpaceOnUse" cy="21.222" cx="31.998" gradientTransform="matrix(.93444 0 0 .48806 2.0978 4.2611)" r="29.944">
   <stop stop-color="#eef4fd" stop-opacity=".52845" offset="0"/>
   <stop stop-color="#175bb3" stop-opacity="0" offset="1"/>
  </radialGradient>
 </defs>
 <path d="m63.998 32.002c0 17.672-14.326 31.999-31.999 31.999s-31.999-14.327-31.999-31.999c-0.0000059448-17.673 14.326-31.999 31.999-31.999s31.999 14.326 31.999 31.999z"/>
 <path d="m61.941 32.401c0 16.953-13.405 30.697-29.942 30.697-16.536 0-29.942-13.743-29.942-30.697 0-16.953 13.406-30.697 29.942-30.697 16.537 0 29.942 13.744 29.942 30.697z"/>
 <path d="m31.998 0.0041785c-15.452 0-27.981 10.294-27.981 22.986 0 0.80954 0.05395 1.6053 0.15337 2.393 13.651 4.0393 34.513 6.9821 55.809-2.2852 0.000273-0.0358 0-0.07161 0-0.10785 0-12.691-12.529-22.986-27.981-22.986z" fill="url(#a)"/>
 <g fill="#eee" transform="matrix(.37166 0 0 .37166 18.398 13.893)">
  <path d="m11.875 0c-6.5919 0-11.875 5.3085-11.875 11.906v25.188h12.719v-14.125c0-6.5978 5.3143-11.906 11.906-11.906h25.5c6.5919 0 11.906 5.3085 11.906 11.906v14.125h12.188v-25.188c0-6.5975-5.315-11.906-11.907-11.906z" transform="matrix(.75853 0 0 .75853 10.098 0)"/>
  <path d="m11.906 0c-6.5917 0-11.906 5.3085-11.906 11.906v14.969c0 6.5978 5.3143 11.906 11.906 11.906h75.906c5.877 0 10.735-4.2211 11.719-9.8125h-11.594c-6.5919 0-11.906-3.3937-11.906-7.6249 0-4.2313 5.3144-7.6563 11.906-7.6563h11.781v-1.7813c0.001-6.5975-5.314-11.906-11.906-11.906z" transform="matrix(.75853 0 0 .75853 0 32.688)"/>
  <path d="m11.906 0c-6.5917 0-11.906 5.3085-11.906 11.906v14.969c0 6.5978 5.3143 11.906 11.906 11.906h75.906c5.877 0 10.735-4.2211 11.719-9.8125h-11.594c-6.5919 0-11.906-3.3937-11.906-7.6249 0-4.2313 5.3144-7.6563 11.906-7.6563h11.781v-1.7813c0.001-6.5975-5.314-11.906-11.906-11.906z" transform="matrix(.75853 0 0 .75853 0 67.448)"/>
 </g>
</svg>
