<?xml version="1.0" encoding="UTF-8" standalone="no"?>
<svg xmlns:rdf="http://www.w3.org/1999/02/22-rdf-syntax-ns#" xmlns="http://www.w3.org/2000/svg" height="64" width="64" version="1.1" xmlns:cc="http://creativecommons.org/ns#" xmlns:xlink="http://www.w3.org/1999/xlink" xmlns:dc="http://purl.org/dc/elements/1.1/">
 <title>_</title>
 <defs>
  <radialGradient id="a" gradientUnits="userSpaceOnUse" cy="21.222" cx="31.998" gradientTransform="matrix(.93444 0 0 .48806 2.0978 4.2611)" r="29.944">
   <stop stop-color="#eef4fd" stop-opacity=".52845" offset="0"/>
   <stop stop-color="#175bb3" stop-opacity="0" offset="1"/>
  </radialGradient>
 </defs>
 <path d="m63.998 32.002c0 17.672-14.326 31.999-31.999 31.999s-31.999-14.327-31.999-31.999c-0.0000059448-17.673 14.326-31.999 31.999-31.999s31.999 14.326 31.999 31.999z"/>
 <path d="m61.941 32.401c0 16.953-13.405 30.697-29.942 30.697-16.536 0-29.942-13.743-29.942-30.697 0-16.953 13.406-30.697 29.942-30.697 16.537 0 29.942 13.744 29.942 30.697z"/>
 <path d="m31.998 0.0041785c-15.452 0-27.981 10.294-27.981 22.986 0 0.80954 0.05395 1.6053 0.15337 2.393 13.651 4.0393 34.513 6.9821 55.809-2.2852 0.000273-0.0358 0-0.07161 0-0.10785 0-12.691-12.529-22.986-27.981-22.986z" fill="url(#a)"/>
 <g fill="#eee" transform="matrix(.35005 0 0 .35005 11 12)">
  <path d="m9.9163 0c-5.4945 0-9.9163 4.144-9.9163 9.293v35.429c0 5.149 4.4218 9.2931 9.9163 9.2931h63.234c5.4945 0 9.9163-4.1441 9.9163-9.2931v-35.429c0.001-5.149-4.421-9.293-9.916-9.293zm9.1132 8.1443h45.008c5.4944 0 9.9163 4.1439 9.9163 9.293v19.14c0 5.1491-4.4219 9.2931-9.9163 9.2931h-45.008c-5.4945 0-9.9163-4.144-9.9163-9.2931v-19.14c0-5.1491 4.4218-9.293 9.9163-9.293z" transform="matrix(.7132 0 0 .7132 29.746 0)"/>
  <rect transform="matrix(.7132 0 0 .7132 0 75.188)" rx="14.021" ry="14.021" height="37.666" width="48.744" y="0" x="0"/>
  <rect transform="matrix(.7132 0 0 .7132 86.12 75.978)" rx="14.021" ry="14.021" height="37.666" width="48.744" y="0" x="0"/>
  <rect transform="matrix(.7132 0 0 .7132 42.665 75.978)" rx="14.021" ry="14.021" height="37.666" width="48.744" y="0" x="0"/>
  <g transform="translate(8.1835 44.967)">
   <rect transform="matrix(.7132 0 0 .7132 48.308 0)" height="37.389" width="9.1395" y="0" x="0"/>
   <rect transform="matrix(.7132 0 0 .7132 91.891 8.691)" height="25.203" width="9.4164" y="0" x="0"/>
   <rect transform="matrix(.7132 0 0 .7132 0 8.691)" height="25.203" width="9.4164" y="0" x="0"/>
   <rect transform="matrix(.7132 0 0 .7132 0 8.691)" height="10.771" width="138.26" y="0" x="0"/>
  </g>
  <rect transform="matrix(.7132 0 0 .7132 42.264 10.415)" height="5.2876" width="49.546" y="0" x="0"/>
  <rect transform="matrix(.7132 0 0 .7132 42.264 10.415)" height="5.2876" width="49.546" y="0" x="0"/>
  <rect transform="matrix(.7132 0 0 .7132 42.264 17.547)" height="5.2876" width="49.546" y="0" x="0"/>
  <rect transform="matrix(.7132 0 0 .7132 42.264 24.679)" height="5.2876" width="49.546" y="0" x="0"/>
 </g>
</svg>
