<?xml version="1.0" encoding="UTF-8" standalone="no"?>
<svg xmlns:rdf="http://www.w3.org/1999/02/22-rdf-syntax-ns#" xmlns="http://www.w3.org/2000/svg" height="64" width="64" version="1.1" xmlns:cc="http://creativecommons.org/ns#" xmlns:xlink="http://www.w3.org/1999/xlink" xmlns:dc="http://purl.org/dc/elements/1.1/">
 <title>_</title>
 <defs>
  <radialGradient id="a" gradientUnits="userSpaceOnUse" cy="21.222" cx="31.998" gradientTransform="matrix(.93444 0 0 .48806 2.0978 4.2611)" r="29.944">
   <stop stop-color="#eef4fd" stop-opacity=".52845" offset="0"/>
   <stop stop-color="#175bb3" stop-opacity="0" offset="1"/>
  </radialGradient>
 </defs>
 <path d="m63.998 32.002c0 17.672-14.326 31.999-31.999 31.999s-31.999-14.327-31.999-31.999c-0.0000059448-17.673 14.326-31.999 31.999-31.999s31.999 14.326 31.999 31.999z"/>
 <path d="m61.941 32.401c0 16.953-13.405 30.697-29.942 30.697-16.536 0-29.942-13.743-29.942-30.697 0-16.953 13.406-30.697 29.942-30.697 16.537 0 29.942 13.744 29.942 30.697z"/>
 <path d="m31.998 0.0041785c-15.452 0-27.981 10.294-27.981 22.986 0 0.80954 0.05395 1.6053 0.15337 2.393 13.651 4.0393 34.513 6.9821 55.809-2.2852 0.000273-0.0358 0-0.07161 0-0.10785 0-12.691-12.529-22.986-27.981-22.986z" fill="url(#a)"/>
 <g stroke-width="0" stroke-miterlimit="2" fill="#fff">
  <rect height="1.7143" width="1.7143" y="14" x="14"/>
  <rect height="1.7143" width="1.7143" y="15.714" x="14"/>
  <rect height="1.7143" width="1.7143" y="17.429" x="14"/>
  <rect height="1.7143" width="1.7143" y="19.143" x="14"/>
  <rect height="1.7143" width="1.7143" y="20.857" x="14"/>
  <rect height="1.7143" width="1.7143" y="22.571" x="14"/>
  <rect height="1.7143" width="1.7143" y="24.286" x="14"/>
  <rect height="1.7143" width="1.7143" y="38" x="14"/>
  <rect height="1.7143" width="1.7143" y="39.714" x="14"/>
  <rect height="1.7143" width="1.7143" y="41.429" x="14"/>
  <rect height="1.7143" width="1.7143" y="43.143" x="14"/>
  <rect height="1.7143" width="1.7143" y="44.857" x="14"/>
  <rect height="1.7143" width="1.7143" y="46.571" x="14"/>
  <rect height="1.7143" width="1.7143" y="48.286" x="14"/>
  <rect height="1.7143" width="1.7143" y="14" x="15.714"/>
  <rect height="1.7143" width="1.7143" y="24.286" x="15.714"/>
  <rect height="1.7143" width="1.7143" y="31.143" x="15.714"/>
  <rect height="1.7143" width="1.7143" y="38" x="15.714"/>
  <rect height="1.7143" width="1.7143" y="48.286" x="15.714"/>
  <rect height="1.7143" width="1.7143" y="14" x="17.429"/>
  <rect height="1.7143" width="1.7143" y="17.429" x="17.429"/>
  <rect height="1.7143" width="1.7143" y="19.143" x="17.429"/>
  <rect height="1.7143" width="1.7143" y="20.857" x="17.429"/>
  <rect height="1.7143" width="1.7143" y="24.286" x="17.429"/>
  <rect height="1.7143" width="1.7143" y="29.429" x="17.429"/>
  <rect height="1.7143" width="1.7143" y="31.143" x="17.429"/>
  <rect height="1.7143" width="1.7143" y="38" x="17.429"/>
  <rect height="1.7143" width="1.7143" y="41.429" x="17.429"/>
  <rect height="1.7143" width="1.7143" y="43.143" x="17.429"/>
  <rect height="1.7143" width="1.7143" y="44.857" x="17.429"/>
  <rect height="1.7143" width="1.7143" y="48.286" x="17.429"/>
  <rect height="1.7143" width="1.7143" y="14" x="19.143"/>
  <rect height="1.7143" width="1.7143" y="17.429" x="19.143"/>
  <rect height="1.7143" width="1.7143" y="19.143" x="19.143"/>
  <rect height="1.7143" width="1.7143" y="20.857" x="19.143"/>
  <rect height="1.7143" width="1.7143" y="24.286" x="19.143"/>
  <rect height="1.7143" width="1.7143" y="29.429" x="19.143"/>
  <rect height="1.7143" width="1.7143" y="31.143" x="19.143"/>
  <rect height="1.7143" width="1.7143" y="38" x="19.143"/>
  <rect height="1.7143" width="1.7143" y="41.429" x="19.143"/>
  <rect height="1.7143" width="1.7143" y="43.143" x="19.143"/>
  <rect height="1.7143" width="1.7143" y="44.857" x="19.143"/>
  <rect height="1.7143" width="1.7143" y="48.286" x="19.143"/>
  <rect height="1.7143" width="1.7143" y="14" x="20.857"/>
  <rect height="1.7143" width="1.7143" y="17.429" x="20.857"/>
  <rect height="1.7143" width="1.7143" y="19.143" x="20.857"/>
  <rect height="1.7143" width="1.7143" y="20.857" x="20.857"/>
  <rect height="1.7143" width="1.7143" y="24.286" x="20.857"/>
  <rect height="1.7143" width="1.7143" y="29.429" x="20.857"/>
  <rect height="1.7143" width="1.7143" y="38" x="20.857"/>
  <rect height="1.7143" width="1.7143" y="41.429" x="20.857"/>
  <rect height="1.7143" width="1.7143" y="43.143" x="20.857"/>
  <rect height="1.7143" width="1.7143" y="44.857" x="20.857"/>
  <rect height="1.7143" width="1.7143" y="48.286" x="20.857"/>
  <rect height="1.7143" width="1.7143" y="14" x="22.571"/>
  <rect height="1.7143" width="1.7143" y="24.286" x="22.571"/>
  <rect height="1.7143" width="1.7143" y="29.429" x="22.571"/>
  <rect height="1.7143" width="1.7143" y="31.143" x="22.571"/>
  <rect height="1.7143" width="1.7143" y="38" x="22.571"/>
  <rect height="1.7143" width="1.7143" y="48.286" x="22.571"/>
  <rect height="1.7143" width="1.7143" y="14" x="24.286"/>
  <rect height="1.7143" width="1.7143" y="15.714" x="24.286"/>
  <rect height="1.7143" width="1.7143" y="17.429" x="24.286"/>
  <rect height="1.7143" width="1.7143" y="19.143" x="24.286"/>
  <rect height="1.7143" width="1.7143" y="20.857" x="24.286"/>
  <rect height="1.7143" width="1.7143" y="22.571" x="24.286"/>
  <rect height="1.7143" width="1.7143" y="24.286" x="24.286"/>
  <rect height="1.7143" width="1.7143" y="31.143" x="24.286"/>
  <rect height="1.7143" width="1.7143" y="38" x="24.286"/>
  <rect height="1.7143" width="1.7143" y="39.714" x="24.286"/>
  <rect height="1.7143" width="1.7143" y="41.429" x="24.286"/>
  <rect height="1.7143" width="1.7143" y="43.143" x="24.286"/>
  <rect height="1.7143" width="1.7143" y="44.857" x="24.286"/>
  <rect height="1.7143" width="1.7143" y="46.571" x="24.286"/>
  <rect height="1.7143" width="1.7143" y="48.286" x="24.286"/>
  <rect height="1.7143" width="1.7143" y="14" x="38"/>
  <rect height="1.7143" width="1.7143" y="15.714" x="38"/>
  <rect height="1.7143" width="1.7143" y="17.429" x="38"/>
  <rect height="1.7143" width="1.7143" y="19.143" x="38"/>
  <rect height="1.7143" width="1.7143" y="20.857" x="38"/>
  <rect height="1.7143" width="1.7143" y="22.571" x="38"/>
  <rect height="1.7143" width="1.7143" y="24.286" x="38"/>
  <rect height="1.7143" width="1.7143" y="31.143" x="38"/>
  <rect height="1.7143" width="1.7143" y="36.286" x="38"/>
  <rect height="1.7143" width="1.7143" y="38" x="38"/>
  <rect height="1.7143" width="1.7143" y="44.857" x="38"/>
  <rect height="1.7143" width="1.7143" y="14" x="39.714"/>
  <rect height="1.7143" width="1.7143" y="24.286" x="39.714"/>
  <rect height="1.7143" width="1.7143" y="31.143" x="39.714"/>
  <rect height="1.7143" width="1.7143" y="38" x="39.714"/>
  <rect height="1.7143" width="1.7143" y="41.429" x="39.714"/>
  <rect height="1.7143" width="1.7143" y="43.143" x="39.714"/>
  <rect height="1.7143" width="1.7143" y="44.857" x="39.714"/>
  <rect height="1.7143" width="1.7143" y="46.571" x="39.714"/>
  <rect height="1.7143" width="1.7143" y="48.286" x="39.714"/>
  <rect height="1.7143" width="1.7143" y="14" x="41.429"/>
  <rect height="1.7143" width="1.7143" y="17.429" x="41.429"/>
  <rect height="1.7143" width="1.7143" y="19.143" x="41.429"/>
  <rect height="1.7143" width="1.7143" y="20.857" x="41.429"/>
  <rect height="1.7143" width="1.7143" y="24.286" x="41.429"/>
  <rect height="1.7143" width="1.7143" y="36.286" x="41.429"/>
  <rect height="1.7143" width="1.7143" y="41.429" x="41.429"/>
  <rect height="1.7143" width="1.7143" y="43.143" x="41.429"/>
  <rect height="1.7143" width="1.7143" y="44.857" x="41.429"/>
  <rect height="1.7143" width="1.7143" y="46.571" x="41.429"/>
  <rect height="1.7143" width="1.7143" y="14" x="43.143"/>
  <rect height="1.7143" width="1.7143" y="17.429" x="43.143"/>
  <rect height="1.7143" width="1.7143" y="19.143" x="43.143"/>
  <rect height="1.7143" width="1.7143" y="20.857" x="43.143"/>
  <rect height="1.7143" width="1.7143" y="24.286" x="43.143"/>
  <rect height="1.7143" width="1.7143" y="29.429" x="43.143"/>
  <rect height="1.7143" width="1.7143" y="36.286" x="43.143"/>
  <rect height="1.7143" width="1.7143" y="39.714" x="43.143"/>
  <rect height="1.7143" width="1.7143" y="41.429" x="43.143"/>
  <rect height="1.7143" width="1.7143" y="44.857" x="43.143"/>
  <rect height="1.7143" width="1.7143" y="46.571" x="43.143"/>
  <rect height="1.7143" width="1.7143" y="48.286" x="43.143"/>
  <rect height="1.7143" width="1.7143" y="14" x="44.857"/>
  <rect height="1.7143" width="1.7143" y="17.429" x="44.857"/>
  <rect height="1.7143" width="1.7143" y="19.143" x="44.857"/>
  <rect height="1.7143" width="1.7143" y="20.857" x="44.857"/>
  <rect height="1.7143" width="1.7143" y="24.286" x="44.857"/>
  <rect height="1.7143" width="1.7143" y="29.429" x="44.857"/>
  <rect height="1.7143" width="1.7143" y="31.143" x="44.857"/>
  <rect height="1.7143" width="1.7143" y="36.286" x="44.857"/>
  <rect height="1.7143" width="1.7143" y="38" x="44.857"/>
  <rect height="1.7143" width="1.7143" y="39.714" x="44.857"/>
  <rect height="1.7143" width="1.7143" y="43.143" x="44.857"/>
  <rect height="1.7143" width="1.7143" y="44.857" x="44.857"/>
  <rect height="1.7143" width="1.7143" y="46.571" x="44.857"/>
  <rect height="1.7143" width="1.7143" y="14" x="46.571"/>
  <rect height="1.7143" width="1.7143" y="24.286" x="46.571"/>
  <rect height="1.7143" width="1.7143" y="29.429" x="46.571"/>
  <rect height="1.7143" width="1.7143" y="31.143" x="46.571"/>
  <rect height="1.7143" width="1.7143" y="38" x="46.571"/>
  <rect height="1.7143" width="1.7143" y="44.857" x="46.571"/>
  <rect height="1.7143" width="1.7143" y="48.286" x="46.571"/>
  <rect height="1.7143" width="1.7143" y="14" x="48.286"/>
  <rect height="1.7143" width="1.7143" y="15.714" x="48.286"/>
  <rect height="1.7143" width="1.7143" y="17.429" x="48.286"/>
  <rect height="1.7143" width="1.7143" y="19.143" x="48.286"/>
  <rect height="1.7143" width="1.7143" y="20.857" x="48.286"/>
  <rect height="1.7143" width="1.7143" y="22.571" x="48.286"/>
  <rect height="1.7143" width="1.7143" y="24.286" x="48.286"/>
  <rect height="1.7143" width="1.7143" y="36.286" x="48.286"/>
  <rect height="1.7143" width="1.7143" y="39.714" x="48.286"/>
  <rect height="1.7143" width="1.7143" y="41.429" x="48.286"/>
  <rect height="1.7143" width="1.7143" y="44.857" x="48.286"/>
  <rect height="1.7143" width="1.7143" y="71.733" x="76.33"/>
  <rect height="1.7143" width="1.7143" y="75.162" x="76.33"/>
  <rect height="1.7143" width="1.7143" y="76.876" x="76.33"/>
  <rect height="1.7143" width="1.7143" y="15.715" x="26.002"/>
  <rect height="1.7143" width="1.7143" y="17.429" x="26.002"/>
  <rect height="1.7143" width="1.7143" y="19.143" x="26.002"/>
  <rect height="1.7143" width="1.7143" y="24.286" x="26.002"/>
  <rect height="1.7143" width="1.7143" y="26" x="26.002"/>
  <rect height="1.7143" width="1.7143" y="29.429" x="26.002"/>
  <rect height="1.7143" width="1.7143" y="36.286" x="26.002"/>
  <rect height="1.7143" width="1.7143" y="48.286" x="26.002"/>
  <rect height="1.7143" width="1.7143" y="36.291" x="27.724"/>
  <rect height="1.7143" width="1.7143" y="38.005" x="27.724"/>
  <rect height="1.7143" width="1.7143" y="39.719" x="27.724"/>
  <rect height="1.7143" width="1.7143" y="20.884" x="29.451"/>
  <rect height="1.7143" width="1.7143" y="26.027" x="29.451"/>
  <rect height="1.7143" width="1.7143" y="31.169" x="29.451"/>
  <rect height="1.7143" width="1.7143" y="39.741" x="29.451"/>
  <rect height="1.7143" width="1.7143" y="41.455" x="29.451"/>
  <rect height="1.7143" width="1.7143" y="43.169" x="29.451"/>
  <rect height="1.7143" width="1.7143" y="14.023" x="31.141"/>
  <rect height="1.7143" width="1.7143" y="17.452" x="31.141"/>
  <rect height="1.7143" width="1.7143" y="19.166" x="31.141"/>
  <rect height="1.7143" width="1.7143" y="22.594" x="31.141"/>
  <rect height="1.7143" width="1.7143" y="26.023" x="31.141"/>
  <rect height="1.7143" width="1.7143" y="29.452" x="31.141"/>
  <rect height="1.7143" width="1.7143" y="31.166" x="31.141"/>
  <rect height="1.7143" width="1.7143" y="41.452" x="31.141"/>
  <rect height="1.7143" width="1.7143" y="44.88" x="31.141"/>
  <rect height="1.7143" width="1.7143" y="48.309" x="31.141"/>
  <rect height="1.7143" width="1.7143" y="15.724" x="32.828"/>
  <rect height="1.7143" width="1.7143" y="19.153" x="32.828"/>
  <rect height="1.7143" width="1.7143" y="24.296" x="32.828"/>
  <rect height="1.7143" width="1.7143" y="29.438" x="32.828"/>
  <rect height="1.7143" width="1.7143" y="38.01" x="32.828"/>
  <rect height="1.7143" width="1.7143" y="46.581" x="32.828"/>
  <rect height="1.7143" width="1.7143" y="19.169" x="34.524"/>
  <rect height="1.7143" width="1.7143" y="26.026" x="34.524"/>
  <rect height="1.7143" width="1.7143" y="29.455" x="34.524"/>
  <rect height="1.7143" width="1.7143" y="31.169" x="34.524"/>
  <rect height="1.7143" width="1.7143" y="41.455" x="34.524"/>
  <rect height="1.7143" width="1.7143" y="43.169" x="34.524"/>
  <rect height="1.7143" width="1.7143" y="44.883" x="34.524"/>
  <rect height="1.7143" width="1.7143" y="46.598" x="34.524"/>
  <rect height="1.7143" width="1.7143" y="48.312" x="34.524"/>
  <rect height="1.7143" width="1.7143" y="20.867" x="36.264"/>
  <rect height="1.7143" width="1.7143" y="22.581" x="36.264"/>
  <rect height="1.7143" width="1.7143" y="24.296" x="36.264"/>
  <rect height="1.7143" width="1.7143" y="29.438" x="36.264"/>
  <rect height="1.7143" width="1.7143" y="41.438" x="36.264"/>
  <rect height="1.7143" width="1.7143" y="34.553" x="19.142"/>
  <rect height="1.7143" width="1.7143" y="34.553" x="32.857"/>
  <rect height="1.7143" width="1.7143" y="34.553" x="38"/>
  <rect height="1.7143" width="1.7143" y="34.553" x="39.714"/>
  <rect height="1.7143" width="1.7143" y="34.553" x="41.428"/>
  <rect height="1.7143" width="1.7143" y="34.553" x="20.859"/>
  <rect height="1.7143" width="1.7143" y="34.576" x="25.997"/>
  <rect height="1.7143" width="1.7143" y="34.579" x="29.381"/>
  <rect height="1.7143" width="1.7143" y="34.563" x="31.121"/>
  <rect height="1.7143" width="1.7143" y="36.282" x="14.013"/>
  <rect height="1.7143" width="1.7143" y="27.71" x="17.39"/>
  <rect height="1.7143" width="1.7143" y="27.71" x="20.818"/>
  <rect height="1.7143" width="1.7143" y="27.71" x="22.533"/>
  <rect height="1.7143" width="1.7143" y="27.71" x="25.961"/>
  <rect height="1.7143" width="1.7143" y="27.71" x="43.104"/>
  <rect height="1.7143" width="1.7143" y="27.71" x="44.818"/>
  <rect height="1.7143" width="1.7143" y="27.71" x="46.533"/>
  <rect height="1.7143" width="1.7143" y="27.71" x="48.247"/>
  <rect height="1.7143" width="1.7143" y="27.71" x="29.392"/>
  <rect height="1.7143" width="1.7143" y="27.732" x="34.531"/>
  <rect height="1.7143" width="1.7143" y="27.736" x="37.914"/>
  <rect height="1.7143" width="1.7143" y="27.719" x="39.654"/>
  <rect height="1.7143" width="1.7143" y="32.858" x="14.008"/>
  <rect height="1.7143" width="1.7143" y="32.858" x="15.723"/>
  <rect height="1.7143" width="1.7143" y="32.858" x="17.437"/>
  <rect height="1.7143" width="1.7143" y="32.858" x="20.865"/>
  <rect height="1.7143" width="1.7143" y="32.858" x="24.294"/>
  <rect height="1.7143" width="1.7143" y="32.858" x="38.008"/>
  <rect height="1.7143" width="1.7143" y="32.858" x="46.58"/>
  <rect height="1.7143" width="1.7143" y="32.858" x="26.01"/>
  <rect height="1.7143" width="1.7143" y="32.867" x="32.837"/>
  <rect height="1.7143" width="1.7143" y="32.884" x="34.532"/>
 </g>
</svg>
