<?xml version="1.0" encoding="UTF-8" standalone="no"?>
<svg xmlns:rdf="http://www.w3.org/1999/02/22-rdf-syntax-ns#" xmlns="http://www.w3.org/2000/svg" height="64" width="64" version="1.1" xmlns:cc="http://creativecommons.org/ns#" xmlns:xlink="http://www.w3.org/1999/xlink" xmlns:dc="http://purl.org/dc/elements/1.1/">
 <title>_</title>
 <defs>
  <radialGradient id="a" gradientUnits="userSpaceOnUse" cy="21.222" cx="31.998" gradientTransform="matrix(.93444 0 0 .48806 2.0978 4.2611)" r="29.944">
   <stop stop-color="#eef4fd" stop-opacity=".52845" offset="0"/>
   <stop stop-color="#175bb3" stop-opacity="0" offset="1"/>
  </radialGradient>
 </defs>
 <path d="m63.998 32.002c0 17.672-14.326 31.999-31.999 31.999s-31.999-14.327-31.999-31.999c-0.0000059448-17.673 14.326-31.999 31.999-31.999s31.999 14.326 31.999 31.999z"/>
 <path d="m61.941 32.401c0 16.953-13.405 30.697-29.942 30.697-16.536 0-29.942-13.743-29.942-30.697 0-16.953 13.406-30.697 29.942-30.697 16.537 0 29.942 13.744 29.942 30.697z"/>
 <path d="m31.998 0.0041785c-15.452 0-27.981 10.294-27.981 22.986 0 0.80954 0.05395 1.6053 0.15337 2.393 13.651 4.0393 34.513 6.9821 55.809-2.2852 0.000273-0.0358 0-0.07161 0-0.10785 0-12.691-12.529-22.986-27.981-22.986z" fill="url(#a)"/>
 <path fill="#eee" d="m16.299 16c-1.828 0-3.299 1.471-3.299 3.299v16.657c0 1.8276 1.4713 3.2988 3.2988 3.2988h19.647c2.6033 3.6478 9.2849 12.988 9.3468 12.74 0.06269-0.25044 0.15889-9.0839 0.19765-12.74h2.9722c1.8276 0 3.2988-1.4713 3.2988-3.2988v-16.657c0-1.828-1.471-3.299-3.299-3.299zm4.8967 6.9499c0.46304 0.000028 0.8787 0.06655 1.2456 0.1976 0.37137 0.13107 0.67458 0.30363 0.91922 0.52405 0.24898 0.22042 0.44031 0.47072 0.56699 0.73877 0.13107 0.26808 0.19757 0.52561 0.19757 0.78177 0 0.27999-0.07499 0.50854-0.21476 0.68726-0.13544 0.17871-0.33079 0.26633-0.58417 0.2663-0.18347 0.000028-0.34143-0.07178-0.4725-0.21475-0.12665-0.14298-0.27215-0.34976-0.43811-0.63571-0.13544-0.23829-0.28909-0.43261-0.47248-0.57559-0.18352-0.14295-0.43289-0.21475-0.7474-0.21475-0.32326 0-0.59349 0.09286-0.80753 0.28348-0.21407 0.18468-0.31787 0.41587-0.31787 0.69586 0 0.25615 0.07469 0.4689 0.23196 0.63571 0.15724 0.16084 0.36922 0.29654 0.63571 0.40375 0.26649 0.10724 0.63219 0.24029 1.0996 0.39517 0.55481 0.18468 1.0078 0.40534 1.3573 0.6615 0.35386 0.25615 0.61985 0.55912 0.79892 0.91062 0.18353 0.34552 0.2749 0.73872 0.2749 1.1855 0 0.67318-0.12055 1.2528-0.36078 1.7353-0.24029 0.47657-0.59349 0.84082-1.0652 1.091-0.46747 0.24425-1.0368 0.36941-1.7096 0.36941-0.64217 0-1.1907-0.13569-1.6494-0.40378-0.4587-0.26806-0.80384-0.60597-1.0223-1.0051-0.21838-0.4051-0.32642-0.80621-0.32642-1.2113 0-0.26806 0.07497-0.49661 0.21475-0.68726 0.13979-0.19062 0.30998-0.29206 0.52402-0.29208 0.18792 0.000027 0.33766 0.06391 0.43814 0.189 0.10048 0.12511 0.1918 0.30627 0.28348 0.53262 0.18352 0.4349 0.40812 0.75628 0.6615 0.97076 0.25772 0.21445 0.60685 0.32645 1.0481 0.32645 0.3582 0 0.6491-0.112 0.87625-0.32645 0.23152-0.22042 0.34363-0.46739 0.34363-0.7474 0-0.4289-0.12057-0.74837-0.36081-0.94498-0.23589-0.19658-0.6223-0.37967-1.1683-0.55838-0.61595-0.20851-1.1232-0.42651-1.512-0.65289-0.38442-0.23232-0.68767-0.53532-0.91922-0.91061-0.23147-0.3753-0.3522-0.83504-0.3522-1.3831 0-0.48848 0.11241-0.9568 0.32645-1.3917 0.21404-0.43487 0.52996-0.7747 0.94498-1.0309 0.41936-0.26212 0.92224-0.39517 1.512-0.3952zm5.541 0c0.24466 0.000028 0.44831 0.11727 0.60995 0.34363 0.16596 0.22044 0.24912 0.52605 0.24912 0.91922v0.23194c0.3102-0.50634 0.64269-0.87848 0.99652-1.1168 0.35388-0.23829 0.74446-0.36081 1.1769-0.36081 0.44996 0 0.8365 0.12514 1.1597 0.36939 0.32328 0.24425 0.58923 0.61375 0.79895 1.1082 0.3014-0.50038 0.62559-0.86987 0.97076-1.1082 0.34506-0.24425 0.73176-0.36939 1.1511-0.36939 0.4893 0 0.90899 0.13305 1.2628 0.39514 0.35385 0.26215 0.61559 0.63689 0.79034 1.1254 0.15287 0.44083 0.23191 1.1317 0.23196 2.079v4.7678c-0.000082 0.51234-0.08736 0.895-0.25775 1.1512-0.17033 0.25618-0.3905 0.3866-0.67005 0.3866-0.27089 0-0.49535-0.13041-0.6701-0.3866-0.17033-0.26212-0.25769-0.64478-0.25769-1.1512v-4.1064c0-0.52421-0.0165-0.93849-0.05157-1.2542-0.03048-0.31572-0.12214-0.58447-0.2663-0.79892s-0.3602-0.31784-0.65289-0.31787c-0.2359 0.000028-0.45604 0.09289-0.67008 0.28351-0.2097 0.19064-0.3803 0.4429-0.49826 0.76456-0.13105 0.41106-0.19757 1.1395-0.19757 2.182v3.2473c0 0.51234-0.07878 0.895-0.24914 1.1512-0.17038 0.25618-0.3991 0.3866-0.67865 0.3866-0.27089 0-0.49114-0.13041-0.6615-0.3866-0.16601-0.25615-0.24914-0.63882-0.24914-1.1512v-3.8916c0-0.61361-0.01237-1.0865-0.04294-1.4261-0.03055-0.33956-0.11376-0.61883-0.24912-0.83331-0.13544-0.22039-0.35163-0.32642-0.64432-0.32645-0.58538 0.000028-0.97186 0.26806-1.1598 0.81613-0.18344 0.54807-0.2749 1.3378-0.2749 2.3624v3.2988c0 0.50637-0.08736 0.88904-0.25769 1.1512-0.16604 0.25618-0.38629 0.3866-0.6615 0.3866-0.27084 0-0.49532-0.13041-0.67008-0.3866-0.17036-0.26212-0.24917-0.64478-0.24912-1.1512v-6.9842c0-0.4587 0.07048-0.80118 0.22333-1.0395 0.15733-0.23826 0.36518-0.36078 0.61853-0.36081zm13.616 0c0.46294 0.000028 0.87886 0.06655 1.2456 0.1976 0.37139 0.13107 0.68313 0.30363 0.92779 0.52405 0.24906 0.22042 0.43187 0.47072 0.5586 0.73877 0.13085 0.26808 0.19738 0.52561 0.19738 0.78177 0 0.27999-0.06625 0.50854-0.20617 0.68726-0.13526 0.17871-0.33071 0.26633-0.58417 0.2663-0.18336 0.000028-0.34143-0.07178-0.47256-0.21475-0.12645-0.14298-0.27188-0.34976-0.43792-0.63571-0.13553-0.23829-0.29772-0.43261-0.48108-0.57559-0.18363-0.14295-0.43297-0.21475-0.74746-0.21475-0.32329 0-0.59346 0.09286-0.80752 0.28348-0.21404 0.18468-0.31787 0.41587-0.31784 0.69586 0 0.25615 0.07469 0.4689 0.23194 0.63571 0.15727 0.16084 0.36922 0.29654 0.63571 0.40375 0.26646 0.10724 0.63214 0.24029 1.0995 0.39517 0.55503 0.18468 1.0081 0.40534 1.3575 0.6615 0.3538 0.25615 0.6199 0.55912 0.79886 0.91062 0.18364 0.34552 0.2749 0.73872 0.2749 1.1855 0 0.67318-0.12041 1.2528-0.36067 1.7353-0.24026 0.47657-0.59352 0.84082-1.0652 1.091-0.46733 0.24425-1.0369 0.36941-1.7096 0.36941-0.64214 0-1.1907-0.13569-1.6494-0.40378-0.4587-0.26806-0.79526-0.60597-1.0137-1.0051-0.21841-0.4051-0.33502-0.80621-0.33505-1.2113 0-0.26806 0.07499-0.49661 0.21478-0.68726 0.13976-0.19062 0.31858-0.29206 0.53262-0.29208 0.18784 0.000027 0.32906 0.06391 0.42954 0.189 0.10045 0.12511 0.20035 0.30627 0.29209 0.53262 0.18347 0.4349 0.39949 0.75628 0.65289 0.97076 0.25772 0.21445 0.60682 0.32645 1.0481 0.32645 0.3582 0 0.64904-0.112 0.87639-0.32645 0.23147-0.22042 0.35215-0.46739 0.35215-0.7474 0-0.4289-0.12068-0.74837-0.36095-0.94498-0.23586-0.19658-0.6309-0.37967-1.1769-0.55838-0.61597-0.20851-1.1146-0.42651-1.5034-0.65289-0.38442-0.23232-0.69627-0.53532-0.9278-0.91061-0.23155-0.3753-0.34363-0.83504-0.34363-1.3831 0-0.48848 0.1038-0.9568 0.31784-1.3917 0.21404-0.43487 0.52996-0.7747 0.94498-1.0309 0.41936-0.26212 0.92224-0.39517 1.512-0.3952z"/>
</svg>
