<?xml version="1.0" encoding="UTF-8" standalone="no"?>
<svg xmlns:rdf="http://www.w3.org/1999/02/22-rdf-syntax-ns#" xmlns="http://www.w3.org/2000/svg" height="64" width="64" version="1.1" xmlns:cc="http://creativecommons.org/ns#" xmlns:xlink="http://www.w3.org/1999/xlink" xmlns:dc="http://purl.org/dc/elements/1.1/">
 <title>_</title>
 <defs>
  <radialGradient id="a" gradientUnits="userSpaceOnUse" cy="21.222" cx="31.998" gradientTransform="matrix(.93444 0 0 .48806 2.0978 4.2611)" r="29.944">
   <stop stop-color="#eef4fd" stop-opacity=".52845" offset="0"/>
   <stop stop-color="#175bb3" stop-opacity="0" offset="1"/>
  </radialGradient>
 </defs>
 <path d="m63.998 32.002c0 17.672-14.326 31.999-31.999 31.999s-31.999-14.327-31.999-31.999c-0.0000059448-17.673 14.326-31.999 31.999-31.999s31.999 14.326 31.999 31.999z"/>
 <path d="m61.941 32.401c0 16.953-13.405 30.697-29.942 30.697-16.536 0-29.942-13.743-29.942-30.697 0-16.953 13.406-30.697 29.942-30.697 16.537 0 29.942 13.744 29.942 30.697z"/>
 <path d="m31.998 0.0041785c-15.452 0-27.981 10.294-27.981 22.986 0 0.80954 0.05395 1.6053 0.15337 2.393 13.651 4.0393 34.513 6.9821 55.809-2.2852 0.000273-0.0358 0-0.07161 0-0.10785 0-12.691-12.529-22.986-27.981-22.986z" fill="url(#a)"/>
 <g transform="matrix(.35877 0 0 .37142 1.7096 3.7556)" fill="#eee">
  <path d="m67.604 27.582c-13.044 0-23.607 11.561-23.607 25.824 0 8.1385 3.4498 15.389 8.8304 20.123-11.624 7.818-20.626 24.588-24.145 45.371h41.865c2.9109-15.63 9.7967-28.198 18.635-34.143-3.1082-2.7343-5.4005-6.5483-6.3841-10.916-0.13578-0.09444-0.26131-0.20366-0.39777-0.2956 0.10134-0.08905 0.19836-0.18372 0.29833-0.27451-0.2714-1.3764-0.43759-2.7998-0.43759-4.2653 0-7.3356 3.5643-13.752 8.91-17.293-0.795-13.47-11.041-24.13-23.566-24.13z"/>
  <path d="m109.71 53.036c-10.209 0-18.476 9.0482-18.476 20.21 0 6.3695 2.6999 12.044 6.9109 15.749-9.0973 6.1187-16.142 19.243-18.896 35.513h60.922c-2.7523-16.258-9.7921-29.372-18.88-35.496 4.2154-3.7043 6.9109-9.3919 6.9109-15.765 0-11.162-8.2825-20.21-18.491-20.21z"/>
 </g>
</svg>
