<?xml version="1.0" encoding="UTF-8" standalone="no"?>
<svg xmlns:rdf="http://www.w3.org/1999/02/22-rdf-syntax-ns#" xmlns="http://www.w3.org/2000/svg" height="64" width="64" version="1.1" xmlns:cc="http://creativecommons.org/ns#" xmlns:xlink="http://www.w3.org/1999/xlink" xmlns:dc="http://purl.org/dc/elements/1.1/">
 <title>_</title>
 <defs>
  <radialGradient id="a" gradientUnits="userSpaceOnUse" cy="21.222" cx="31.998" gradientTransform="matrix(.93444 0 0 .48806 2.0978 4.2611)" r="29.944">
   <stop stop-color="#eef4fd" stop-opacity=".52845" offset="0"/>
   <stop stop-color="#175bb3" stop-opacity="0" offset="1"/>
  </radialGradient>
 </defs>
 <path d="m63.998 32.002c0 17.672-14.326 31.999-31.999 31.999s-31.999-14.327-31.999-31.999c-0.0000059448-17.673 14.326-31.999 31.999-31.999s31.999 14.326 31.999 31.999z"/>
 <path d="m61.941 32.401c0 16.953-13.405 30.697-29.942 30.697-16.536 0-29.942-13.743-29.942-30.697 0-16.953 13.406-30.697 29.942-30.697 16.537 0 29.942 13.744 29.942 30.697z"/>
 <path d="m31.998 0.0041785c-15.452 0-27.981 10.294-27.981 22.986 0 0.80954 0.05395 1.6053 0.15337 2.393 13.651 4.0393 34.513 6.9821 55.809-2.2852 0.000273-0.0358 0-0.07161 0-0.10785 0-12.691-12.529-22.986-27.981-22.986z" fill="url(#a)"/>
 <g fill="#eee" transform="matrix(.35701 0 0 .35701 14 13.952)">
  <path d="m14.064 0c-7.7924 0-14.064 6.7481-14.064 15.133v57.693c0 8.385 6.2716 15.133 14.064 15.133h89.685c7.793 0 14.065-6.748 14.065-15.133v-57.693c-0.01-8.3849-6.28-15.133-14.07-15.133zm12.925 13.262h63.835c7.7927 0 14.065 6.7481 14.065 15.133v31.169c0 8.3848-6.2721 15.133-14.065 15.133h-63.835c-7.7927 0-14.064-6.7482-14.064-15.133v-31.169c0-8.3848 6.2716-15.133 14.064-15.133z" transform="matrix(.75853 0 0 .75853 5.7603 0)"/>
  <path d="m5 0c-2.77 0-5 2.23-5 5v26.125c0 2.77 2.23 5 5 5h122.94c2.77 0 5-2.23 5-5v-26.125c0-2.77-2.23-5-5-5zm10.375 9c4.2073 0 7.5938 3.0823 7.5938 6.9062 0 3.824-3.3865 6.9376-7.5938 6.9376s-7.625-3.1136-7.625-6.9376 3.418-6.906 7.625-6.906zm62.719 0.53125h40.406c2.77 0 5 2.23 5 5v1.6563c0 2.77-2.23 5-5 5h-40.406c-2.7701 0-5-2.23-5-5v-1.6563c0-2.7699 2.2299-5 5-5z" transform="matrix(.75853 0 0 .75853 0 73.57)"/>
 </g>
</svg>
