<?xml version="1.0" encoding="UTF-8" standalone="no"?>
<svg xmlns:rdf="http://www.w3.org/1999/02/22-rdf-syntax-ns#" xmlns="http://www.w3.org/2000/svg" height="12.8pt" width="12.8pt" version="1.1" xmlns:cc="http://creativecommons.org/ns#" xmlns:dc="http://purl.org/dc/elements/1.1/">
 <title>shorty</title>
 <path d="m5.905 0.000053637l-3.8688 0.04833c-1.1394 0.012-2.0461 2.0253-2.0361 4.5229 0.009914 2.4976 0.92804 4.5059 2.0675 4.4939l3.8687-0.0483c0.9764-0.0103 1.7772-1.502 1.9813-3.4985h0.1802c0.2002 2.0511 1.0328 3.5766 2.0282 3.5661l3.869-0.0386c1.139-0.012 2.046-2.035 2.036-4.5326s-0.928-4.4962-2.067-4.4842l-3.877 0.038607c-0.9416 0.0099-1.7203 1.3969-1.9579 3.2859h-0.2271c-0.2353-1.9426-1.0364-3.3637-1.997-3.3535zm-0.9085 1.4883c0.8642-0.008 1.6004 0.7598 1.9109 1.8652h-2.4356c-0.2777 0-0.5012 0.4827-0.5012 1.0824 0 0.5996 0.2235 1.0824 0.5012 1.0824h2.4826c-0.2774 1.1823-1.03 2.0309-1.9266 2.0392l-2.0283 0.0193c-1.1394 0.0105-2.0677-1.3325-2.0753-3.0153-0.00766-1.6827 0.9046-3.0531 2.044-3.0636l2.0283-0.0096zm8.0585 0.029c1.139-0.0105 2.06 1.3228 2.067 3.0056 0.008 1.6827-0.904 3.0531-2.044 3.0636l-2.028 0.0096c-0.918 0.0085-1.694-0.8601-1.9655-2.0779h2.4045c0.277 0 0.501-0.4827 0.501-1.0824 0-0.5996-0.224-1.0824-0.501-1.0824h-2.334c0.314-1.0704 1.03-1.8187 1.872-1.8265l2.028-0.0096z" fill="#d3d3d3" transform="translate(-.031406 3.976)"/>
 <path fill-opacity=".95294" d="m5.905 0.000053637l-3.8688 0.04833c-1.1394 0.011992-2.0461 2.0253-2.0361 4.5229 0.009914 2.4976 0.92804 4.5059 2.0675 4.4939l3.8687-0.0483c0.9764-0.0103 1.7772-1.502 1.9813-3.4985h0.1802c0.2002 2.0511 1.0328 3.5766 2.0282 3.5661l3.869-0.0386c1.139-0.012 2.046-2.035 2.036-4.5326s-0.928-4.4962-2.067-4.4843l-3.877 0.038698c-0.9416 0.0099-1.7203 1.3969-1.9579 3.2859h-0.2271c-0.2353-1.9426-1.0364-3.3637-1.997-3.3535zm-0.9085 1.4883c0.8642-0.008 1.6004 0.7598 1.9109 1.8652h-2.4356c-0.2777 0-0.5012 0.4827-0.5012 1.0824 0 0.5996 0.2235 1.0824 0.5012 1.0824h2.4826c-0.2774 1.1823-1.03 2.0309-1.9266 2.0392l-2.0283 0.0193c-1.1394 0.0105-2.0677-1.3325-2.0753-3.0153-0.00766-1.6827 0.9046-3.0531 2.044-3.0636l2.0283-0.0096zm8.0585 0.029c1.139-0.0105 2.06 1.3228 2.067 3.0056 0.008 1.6827-0.904 3.0531-2.044 3.0636l-2.028 0.0096c-0.918 0.0085-1.694-0.8601-1.9655-2.0779h2.4045c0.277 0 0.501-0.4827 0.501-1.0824 0-0.5996-0.224-1.0824-0.501-1.0824h-2.334c0.314-1.0705 1.03-1.8188 1.872-1.8265z" fill="#505053" transform="translate(-.000080865 2.9323)"/>
</svg>
