<?xml version="1.0" encoding="UTF-8" standalone="no"?>
<svg xmlns:rdf="http://www.w3.org/1999/02/22-rdf-syntax-ns#" xmlns="http://www.w3.org/2000/svg" height="32" width="32" version="1.1" xmlns:cc="http://creativecommons.org/ns#" xmlns:dc="http://purl.org/dc/elements/1.1/">
 <title>shorty</title>
 <path fill="#d3d3d3" d="m11.787 9.5-7.7225 0.0851c-2.2744 0.0212-4.0843 3.5669-4.0643 7.9659 0.019753 4.399 1.8524 7.936 4.127 7.915l7.7224-0.08506c1.949-0.01814 3.5475-2.6454 3.9549-6.1617h0.3597c0.39962 3.6125 2.0616 6.2993 4.0485 6.2808l7.723-0.06798c2.2736-0.02113 4.0841-3.5841 4.0641-7.983-0.01996-4.3989-1.8524-7.9189-4.126-7.8978l-7.739 0.068001c-1.8796 0.017432-3.4339 2.4603-3.9082 5.7873h-0.455c-0.469-3.421-2.068-5.9239-3.986-5.9059zm-1.8134 2.621c1.7251-0.01409 3.1946 1.3382 3.8144 3.2851h-4.8618c-0.55432 0-1.0005 0.85015-1.0005 1.9064 0 1.056 0.44613 1.9064 1.0005 1.9064h4.9556c-0.55372 2.0823-2.056 3.5769-3.8457 3.5915l-4.0487 0.03399c-2.2744 0.0185-4.1274-2.3469-4.1426-5.3107-0.01529-2.9636 1.8057-5.3772 4.0801-5.3957l4.0487-0.01691zm16.085 0.051c2.2736-0.01849 4.112 2.3298 4.126 5.2936 0.01596 2.9636-1.8045 5.3772-4.0801 5.3957l-4.0481 0.01691c-1.8324 0.01497-3.3814-1.5148-3.9234-3.6597h4.7997c0.55293 0 1.0001-0.85015 1.0001-1.9064 0-1.056-0.44713-1.9064-1.0001-1.9064h-4.659c0.62678-1.8852 2.056-3.2032 3.7367-3.2169l4.0481-0.01691z"/>
 <path fill-opacity=".95294" fill="#505053" d="m11.787 8-7.7225 0.0852c-2.2744 0.0211-4.0843 3.5668-4.0643 7.9658 0.019753 4.399 1.8524 7.936 4.127 7.915l7.7224-0.08506c1.949-0.01815 3.5475-2.6454 3.9549-6.1617h0.3597c0.39962 3.6125 2.0616 6.2993 4.0485 6.2808l7.723-0.06798c2.2736-0.02113 4.0841-3.5841 4.0641-7.983-0.01996-4.3989-1.8524-7.9189-4.126-7.8979l-7.739 0.068163c-1.8796 0.017432-3.4339 2.4603-3.9082 5.7873h-0.45332c-0.471-3.421-2.07-5.9239-3.988-5.9059zm-1.8134 2.621c1.7251-0.01409 3.1946 1.3382 3.8144 3.2851h-4.8618c-0.55432 0-1.0005 0.85015-1.0005 1.9064 0 1.056 0.44613 1.9064 1.0005 1.9064h4.9556c-0.55372 2.0823-2.056 3.5769-3.8457 3.5915l-4.0487 0.03399c-2.2744 0.0185-4.1274-2.3468-4.1426-5.3107-0.01529-2.9636 1.8057-5.3772 4.0801-5.3957l4.0487-0.01691zm16.086 0.05107c2.2736-0.01849 4.112 2.3298 4.126 5.2936 0.01597 2.9636-1.8045 5.3772-4.0801 5.3957l-4.0481 0.01691c-1.8324 0.01497-3.3814-1.5148-3.9234-3.6597h4.7997c0.55293 0 1.0001-0.85015 1.0001-1.9064 0-1.056-0.44713-1.9064-1.0001-1.9064h-4.659c0.62678-1.8854 2.056-3.2033 3.7367-3.2169z"/>
</svg>
