<?xml version="1.0" encoding="UTF-8" standalone="no"?>
<svg xmlns:rdf="http://www.w3.org/1999/02/22-rdf-syntax-ns#" xmlns="http://www.w3.org/2000/svg" height="12.8pt" width="12.8pt" version="1.1" xmlns:cc="http://creativecommons.org/ns#" xmlns:dc="http://purl.org/dc/elements/1.1/">
 <title>shorty</title>
 <path d="m5.9049 3.5378-3.8687 0.04833c-1.1395 0.012-2.0461 2.0253-2.0362 4.523 0.0099333 2.4979 0.92806 4.5059 2.0675 4.4939l3.8687-0.04833c0.97638-0.01027 1.7772-1.502 1.9813-3.4985h0.18013c0.2003 2.0511 1.0329 3.5766 2.0283 3.5661l3.8687-0.03865c1.1394-0.012 2.0461-2.035 2.0362-4.5326s-0.9281-4.4963-2.0675-4.4843l-3.8766 0.038651c-0.94152 0.0099-1.7202 1.3969-1.9578 3.2859h-0.22711c-0.23522-1.9426-1.0364-3.3636-1.997-3.3535zm-0.90845 1.4883c0.86423-0.008 1.6004 0.75987 1.9109 1.8652h-2.4356c-0.27767 0-0.50121 0.48276-0.50121 1.0824 0 0.59965 0.22354 1.0824 0.50121 1.0824h2.4826c-0.27741 1.1823-1.03 2.0309-1.9265 2.0392l-2.0283 0.01932c-1.1394 0.0105-2.0677-1.3325-2.0753-3.0153-0.007646-1.6827 0.90456-3.0531 2.044-3.0636l2.0283-0.0096zm8.0585 0.02899c1.1395-0.01049 2.0599 1.3229 2.0675 3.0056s-0.9045 3.0531-2.044 3.0636l-2.0283 0.0096c-0.9184 0.0085-1.6942-0.86005-1.9657-2.0778h2.4042c0.2777 0 0.5013-0.48275 0.5013-1.0824s-0.2236-1.0824-0.5013-1.0824h-2.3337c0.31402-1.0705 1.0299-1.8188 1.8717-1.8266z" fill-opacity=".95294"/>
 <path d="m5.9114 3.7491-3.8687 0.04833c-1.1394 0.012-2.0461 2.0253-2.0362 4.5229 0.0099333 2.4976 0.92806 4.5059 2.0675 4.4939l3.8687-0.04833c0.97638-0.01027 1.7772-1.502 1.9813-3.4985h0.18013c0.2003 2.0511 1.0329 3.5766 2.0283 3.5661l3.8687-0.03865c1.1394-0.012 2.0461-2.035 2.0362-4.5326-0.01-2.4976-0.9281-4.4962-2.0675-4.4843l-3.8766 0.03865c-0.94152 0.0099-1.7202 1.3969-1.9578 3.2859h-0.22711c-0.23522-1.9426-1.0364-3.3636-1.997-3.3535zm-0.90845 1.4883c0.86423-0.008 1.6004 0.75987 1.9109 1.8652h-2.4356c-0.27767 0-0.50121 0.48276-0.50121 1.0824 0 0.59965 0.22354 1.0824 0.50121 1.0824h2.4826c-0.27741 1.1823-1.03 2.0309-1.9265 2.0392l-2.0283 0.01933c-1.1394 0.01052-2.0677-1.3325-2.0753-3.0153-0.00765-1.6827 0.90456-3.0531 2.044-3.0636l2.0283-0.0096zm8.0585 0.02899c1.1395-0.01049 2.0599 1.3229 2.0675 3.0056s-0.9045 3.0531-2.044 3.0636l-2.0283 0.0096c-0.9184 0.0085-1.6942-0.86004-1.9657-2.0778h2.4042c0.2777 0 0.5013-0.48276 0.5013-1.0824 0-0.59965-0.2236-1.0824-0.5013-1.0824h-2.3337c0.31402-1.0704 1.0299-1.8187 1.8717-1.8265l2.0283-0.0096z" fill="#fff"/>
</svg>
