<?xml version="1.0" encoding="UTF-8" standalone="no"?>
<svg xmlns:rdf="http://www.w3.org/1999/02/22-rdf-syntax-ns#" xmlns="http://www.w3.org/2000/svg" height="32" width="32" version="1.1" xmlns:cc="http://creativecommons.org/ns#" xmlns:dc="http://purl.org/dc/elements/1.1/">
 <title>shorty</title>
 <path fill-opacity=".95294" d="m11.787 5.5-7.7225 0.1063c-2.2743 0.0265-4.0841 4.4587-4.0643 9.9577 0.019749 5.499 1.8525 9.92 4.1269 9.893l7.7224-0.10568c1.949-0.02422 3.5476-3.3067 3.955-7.7027h0.3596c0.39982 4.5156 2.0618 7.874 4.0488 7.8509l7.7224-0.08509c2.2744-0.02642 4.0842-4.4801 4.0646-9.9787-0.0198-5.4986-1.8526-9.8988-4.127-9.8724l-7.7382 0.08509c-1.881 0.0225-3.435 3.0761-3.909 7.2349h-0.453c-0.469-4.2755-2.069-7.4039-3.986-7.3817zm-1.8133 3.2766c1.7253-0.0177 3.1943 1.6734 3.8143 4.1064h-4.8617c-0.55426 0-1.0005 1.0628-1.0005 2.3829 0 1.3202 0.44622 2.3829 1.0005 2.3829h4.9557c-0.5538 2.602-2.056 4.4711-3.8456 4.4887l-4.0488 0.04403c-2.2741 0.022-4.127-2.935-4.1422-6.64-0.0152-3.704 1.8057-6.7212 4.0801-6.7443l4.0488-0.021132zm16.086 0.063822c2.2746-0.023093 4.1118 2.9124 4.127 6.6169s-1.8055 6.7215-4.08 6.7446l-4.0488 0.02113c-1.8332 0.01871-3.3818-1.8934-3.9238-4.5744h4.7992c0.55432 0 1.0007-1.0628 1.0007-2.3829 0-1.3202-0.44634-2.3829-1.0007-2.3829h-4.661c0.627-2.357 2.055-4.0043 3.736-4.0215z"/>
 <path fill="#fff" d="m11.787 6.0007-7.7224 0.1063c-2.2744 0.0264-4.0842 4.459-4.0644 9.957 0.019749 5.499 1.8525 9.919 4.127 9.893l7.7228-0.106c1.949-0.02202 3.5476-3.3066 3.955-7.7021h0.35956c0.39982 4.5155 2.0618 7.8738 4.0488 7.8507l7.7224-0.08509c2.2744-0.02641 4.0842-4.48 4.0646-9.9785-0.02-5.4984-1.8526-9.8983-4.127-9.8721l-7.738 0.08476c-1.8788 0.0218-3.4332 3.0753-3.9074 7.2339h-0.455c-0.469-4.2768-2.069-7.4051-3.986-7.3829zm-1.8133 3.2764c1.7253-0.0176 3.1943 1.6729 3.8143 4.1059h-4.8617c-0.55426 0-1.0005 1.0628-1.0005 2.3829s0.44622 2.3829 1.0005 2.3829h4.9556c-0.55374 2.6028-2.056 4.471-3.8456 4.4893l-4.0488 0.04256c-2.2744 0.02201-4.1274-2.9337-4.1426-6.6384-0.01518-3.7044 1.8058-6.7214 4.0802-6.7445l4.0488-0.02113zm16.086 0.06382c2.2746-0.02309 4.1118 2.9124 4.127 6.6168s-1.8055 6.7214-4.08 6.7445l-4.0488 0.02113c-1.8332 0.01871-3.3818-1.8934-3.9238-4.5743h4.7992c0.55432 0 1.0007-1.0628 1.0007-2.3829s-0.44634-2.3829-1.0007-2.3829h-4.6614c0.6268-2.3582 2.0554-4.0056 3.7354-4.0228l4.0488-0.02113z"/>
</svg>
